<svg xmlns="http://www.w3.org/2000/svg" viewBox="0 0 100 125" x="0px" y="0px">
	<title>
		MOVIE
	</title>
	<g data-name="Layer 27">
		<path d="M19.47461,55.83838h4.02246a.99974.99974,0,0,0,1-1v-.22217H26.601a23.59091,23.59091,0,0,0,46.798,0h2.10394v.22217a.99974.99974,0,0,0,1,1h4.02246a.99974.99974,0,0,0,1-1V48.374a.99974.99974,0,0,0-1-1H76.50293a.99974.99974,0,0,0-1,1v.22217H73.39905A23.64369,23.64369,0,0,0,54.15649,28.38232a4.2018,4.2018,0,0,0-8.313,0A23.64369,23.64369,0,0,0,26.601,48.59619H24.49707V48.374a.99974.99974,0,0,0-1-1H19.47461a.99974.99974,0,0,0-1,1v6.46436A.99974.99974,0,0,0,19.47461,55.83838ZM77.50293,49.374h2.02246v4.46436H77.50293ZM50,73.2041A21.625,21.625,0,0,1,28.49939,53.6192l.00061-.003-.00134-.00659c-.03076-.33264-.05554-.66687-.071-1.00366h2.90815a18.68962,18.68962,0,0,0,37.32836,0h2.90815c-.01545.33679-.04023.671-.071,1.00366L71.5,53.61621l.00061.003A21.625,21.625,0,0,1,50,73.2041ZM66.71387,51.62531A16.72113,16.72113,0,0,1,51,68.27014V65.01508a5.57851,5.57851,0,0,0,4.57324-5.478c0-2.3551-2.92816-6.25659-4.27795-7.93109,1.34979-1.6742,4.27795-5.57562,4.27795-7.93073A5.5785,5.5785,0,0,0,51,38.19733V34.94177A16.72114,16.72114,0,0,1,66.71387,51.58661c-.00012.00683-.00391.01251-.00391.01935S66.71375,51.61847,66.71387,51.62531ZM50,40.10254a3.57666,3.57666,0,0,1,3.57324,3.57275c0,1.34766-1.958,4.28565-3.57324,6.34522-1.67773-2.1416-3.57324-5.05762-3.57324-6.34522A3.57666,3.57666,0,0,1,50,40.10254Zm0,13.08887a24.06646,24.06646,0,0,1,3.33691,5.3457H46.66309A24.06646,24.06646,0,0,1,50,53.19141Zm3.41321,7.3457a3.55049,3.55049,0,0,1-6.82642,0ZM49,38.19733a5.5785,5.5785,0,0,0-4.57324,5.478c0,2.35511,2.92816,6.25653,4.27795,7.93073-1.34979,1.6745-4.27795,5.576-4.27795,7.93109A5.57851,5.57851,0,0,0,49,65.01508v3.25506A16.72113,16.72113,0,0,1,33.28613,51.62531c.00012-.00684.00391-.01252.00391-.01935s-.00379-.01252-.00391-.01935A16.72114,16.72114,0,0,1,49,34.94177ZM75.5,50.59619v2.02H73.572c.01422-.33539.02564-.67145.02564-1.01025,0-.33863-.01142-.67456-.02564-1.00977ZM50,26.7959a2.22018,2.22018,0,0,1,2.01978,1.30475c-.66645-.05683-1.33887-.09235-2.01978-.09235s-1.35333.03552-2.01978.09235A2.22018,2.22018,0,0,1,50,26.7959Zm0,3.2124A21.62471,21.62471,0,0,1,71.50061,49.59308L71.5,49.59619l.0014.0069c.0307.3324.05548.66638.07093,1.00287H68.66418a18.68962,18.68962,0,0,0-37.32836,0H28.42767c.01545-.33649.04023-.67047.07093-1.00287l.0014-.0069-.00061-.00311A21.62471,21.62471,0,0,1,50,30.0083ZM24.5,50.59619h1.928c-.01422.33521-.02564.67114-.02564,1.00977,0,.3388.01142.67486.02564,1.01025H24.5ZM20.47461,49.374h2.02246v4.46436H20.47461Z" />
		<path d="M42.43945,52.31006a.84238.84238,0,0,0,.33008.21973.99961.99961,0,0,0,.37988.08007.99719.99719,0,0,0,.7002-1.71,1.00368,1.00368,0,0,0-1.08008-.22021.97146.97146,0,0,0-.33008.22021,1.002,1.002,0,0,0,0,1.41016Z" />
		<path d="M37.26953,50.8999a1.03426,1.03426,0,0,0-1.41015,0,1.002,1.002,0,0,0,0,1.41016,1.01806,1.01806,0,0,0,.71.2998.99719.99719,0,0,0,.70019-1.71Z" />
		<path d="M39.64941,49.07959a1.00607,1.00607,0,0,0,.71.29.964.964,0,0,0,.70019-.29,1.70249,1.70249,0,0,0,.12988-.1499.72054.72054,0,0,0,.09082-.16992.71166.71166,0,0,0,.05957-.19,1.382,1.382,0,0,0,.01954-.20019.97378.97378,0,0,0-.29981-.69971,1.02443,1.02443,0,0,0-1.41016,0,1.00143,1.00143,0,0,0,0,1.40967Z" />
		<path d="M37.42969,44.23a.988.988,0,0,0-.07031.37988,1.01608,1.01608,0,0,0,.29.71.99143.99143,0,0,0,.71.29.96586.96586,0,0,0,.70019-.29.98041.98041,0,0,0,.29981-.71.99647.99647,0,0,0-.07911-.37988.88162.88162,0,0,0-.2207-.32031,1.00715,1.00715,0,0,0-1.62988.32031Z" />
		<path d="M41.14941,42.12988a1.00778,1.00778,0,0,0,1-1,1.03031,1.03031,0,0,0-.08007-.39013.96819.96819,0,0,0-.21-.31983,1.0367,1.0367,0,0,0-1.41993,0,.99958.99958,0,0,0-.21.31983,1.04941,1.04941,0,0,0-.08008.39013,1.0078,1.0078,0,0,0,1,1Z" />
		<path d="M41.05957,55.54a.8817.8817,0,0,0,.2207-.32031.95166.95166,0,0,0,0-.75977.91339.91339,0,0,0-.2207-.33008,1.03427,1.03427,0,0,0-1.41016,0,.94954.94954,0,0,0-.21972.33008,1.06141,1.06141,0,0,0,0,.75977,1.03545,1.03545,0,0,0,.92969.62011A.97515.97515,0,0,0,41.05957,55.54Z" />
		<path d="M37.64941,57.94971a1.0533,1.0533,0,0,0-.29.71.9904.9904,0,0,0,1,1,.99719.99719,0,0,0,.70019-1.71A1.03425,1.03425,0,0,0,37.64941,57.94971Z" />
		<path d="M41.85938,61.43994a.98545.98545,0,0,0-1.62989.33008.94109.94109,0,0,0,0,.75977,1.17533,1.17533,0,0,0,.21.33007,1.014,1.014,0,0,0,1.41993,0,1.13325,1.13325,0,0,0,.21-.33007.9412.9412,0,0,0,0-.75977A1.01269,1.01269,0,0,0,41.85938,61.43994Z" />
		<path d="M64.13965,50.8999a1.68922,1.68922,0,0,0-.14942-.12988l-.18066-.09033a1.17506,1.17506,0,0,0-.17969-.04981.847.847,0,0,0-.38965,0,1.02389,1.02389,0,0,0-.19043.04981c-.05957.03027-.12011.06006-.16992.09033a.62541.62541,0,0,0-.15039.12988.87331.87331,0,0,0-.21972.31983,1.09236,1.09236,0,0,0-.08008.39013.97965.97965,0,0,0,.2998.7002.63638.63638,0,0,0,.15039.12988c.04981.02979.11035.06006.16992.08985.05958.02.12012.04.19043.06005a1.247,1.247,0,0,0,.18946.02,1.38968,1.38968,0,0,0,.20019-.02l.17969-.06005c.06055-.02979.12012-.06006.18066-.08985a1.774,1.774,0,0,0,.14942-.12988,1.01136,1.01136,0,0,0,.29-.7002.90206.90206,0,0,0-.08008-.39013A.98371.98371,0,0,0,64.13965,50.8999Z" />
		<path d="M58.92969,47.66992a.99491.99491,0,0,0,.71,1.69971.681.681,0,0,0,.20019-.02,1.17506,1.17506,0,0,0,.17969-.04981c.06055-.02978.12012-.06.18067-.08984a1.69882,1.69882,0,0,0,.14941-.13037,1.00141,1.00141,0,0,0,0-1.40967A1.61341,1.61341,0,0,0,60.2002,47.54l-.18067-.09033-.17969-.06006A1.02328,1.02328,0,0,0,58.92969,47.66992Z" />
		<path d="M61.08984,45.44971c.04981.03027.11036.06006.16993.09033a1.06233,1.06233,0,0,0,.19043.0498.61132.61132,0,0,0,.18945.02.681.681,0,0,0,.20019-.02,1.23258,1.23258,0,0,0,.17969-.0498l.18067-.09033a1.77384,1.77384,0,0,0,.14941-.12989,1.02955,1.02955,0,0,0,.29-.71.83024.83024,0,0,0-.08008-.37988.99075.99075,0,0,0-.21-.32031,1.77185,1.77185,0,0,0-.14941-.12988c-.06055-.02979-.12012-.06006-.18067-.08985l-.17969-.06006a1.27087,1.27087,0,0,0-.38964,0c-.07032.02-.13086.04-.19043.06006-.05957.02979-.12012.06006-.16993.08985a.65579.65579,0,0,0-.15039.12988.879.879,0,0,0-.21972.32031.97409.97409,0,0,0,.21972,1.08984A.65606.65606,0,0,0,61.08984,45.44971Z" />
		<path d="M58.84961,42.12988a1.38968,1.38968,0,0,0,.20019-.02l.17969-.06006c.06055-.02978.12012-.06.16992-.08984a.96744.96744,0,0,0,.16016-.13037,1.00505,1.00505,0,0,0,.29-.69971,1.39691,1.39691,0,0,0-.01953-.20019.715.715,0,0,0-.06055-.18994.54157.54157,0,0,0-.08984-.16993.899.899,0,0,0-.12012-.1499.94064.94064,0,0,0-.16016-.12988c-.0498-.03027-.10937-.06006-.16992-.09033a1.17475,1.17475,0,0,0-.17969-.04981.99968.99968,0,1,0-.20019,1.98Z" />
		<path d="M60.55957,54.46a.92849.92849,0,0,0-.21-.33008,1.61057,1.61057,0,0,0-.14941-.12011.75964.75964,0,0,0-.18067-.08985.61865.61865,0,0,0-.17969-.06006,1.01861,1.01861,0,0,0-.91015.27.92835.92835,0,0,0-.21.33008.94109.94109,0,0,0,0,.75977,1.15358,1.15358,0,0,0,.21.33007,1.0519,1.0519,0,0,0,.71.29,1.38968,1.38968,0,0,0,.20019-.02.61832.61832,0,0,0,.17969-.06.75964.75964,0,0,0,.18067-.08985l.14941-.12012a1.04871,1.04871,0,0,0,.29-.71A.83024.83024,0,0,0,60.55957,54.46Z" />
		<path d="M62.2002,57.82959a.77852.77852,0,0,0-.18067-.08984.64874.64874,0,0,0-.17969-.06006.8602.8602,0,0,0-.38964,0,.61167.61167,0,0,0-.19043.06006.56833.56833,0,0,0-.16993.08984.95663.95663,0,0,0-.37011.4502.94223.94223,0,0,0,0,.76025.909.909,0,0,0,.21972.32959.61447.61447,0,0,0,.15039.12012.547.547,0,0,0,.16993.08984.58745.58745,0,0,0,.19043.06006,1.18869,1.18869,0,0,0,.18945.02,1.32478,1.32478,0,0,0,.20019-.02.61865.61865,0,0,0,.17969-.06006.74157.74157,0,0,0,.18067-.08984,1.53529,1.53529,0,0,0,.14941-.12012,1.02673,1.02673,0,0,0,.21-.32959.83226.83226,0,0,0,.08008-.38037,1.04871,1.04871,0,0,0-.29-.71Z" />
		<path d="M59.76953,61.77a.73875.73875,0,0,0-.08984-.18018,1.61674,1.61674,0,0,0-.12012-.1499.91462.91462,0,0,0-.16016-.12012.54641.54641,0,0,0-.16992-.08984.61855.61855,0,0,0-.17969-.06006,1.01726,1.01726,0,0,0-.91015.27l-.12012.1499a.77556.77556,0,0,0-.08984.18018.61183.61183,0,0,0-.05957.17969,1.26544,1.26544,0,0,0-.02051.20019.99945.99945,0,0,0,.08008.37989,1.15358,1.15358,0,0,0,.21.33007,1.0519,1.0519,0,0,0,.71.29,1.38968,1.38968,0,0,0,.20019-.02.64863.64863,0,0,0,.17969-.06006.5462.5462,0,0,0,.16992-.08984c.06055-.04.11036-.08008.16016-.12012a1.1538,1.1538,0,0,0,.21-.33007.99945.99945,0,0,0,.08008-.37989,1.39011,1.39011,0,0,0-.01953-.20019A.64531.64531,0,0,0,59.76953,61.77Z" />
		<path d="M56.86035,50.606h-.00976a1.00489,1.00489,0,1,0,.00976,0Z" />
	</g>
</svg>
