<svg xmlns="http://www.w3.org/2000/svg" version="1.1" xmlns:xlink="http://www.w3.org/1999/xlink" xmlns:svgjs="http://svgjs.dev/svgjs" width="126" height="111"><svg version="1.1" id="SvgjsSvg1009" xmlns="http://www.w3.org/2000/svg" xmlns:xlink="http://www.w3.org/1999/xlink" x="0px" y="0px" viewBox="0 0 126 111" style="enable-background:new 0 0 126 111;" xml:space="preserve">
<style type="text/css">
	.st0{clip-path:url(#SVGID_00000047748209047064717420000014210528056715472291_);}
	.st1{fill:#c59837;}
	.st2{clip-path:url(#SVGID_00000181053307849503813340000011366463623207225494_);}
</style>
<g>
	<defs>
		<rect id="SvgjsRect1008" x="70.7" y="24" width="54.4" height="81.3"></rect>
	</defs>
	<clipPath id="SvgjsClipPath1007">
		<use xlink:href="#SVGID_1_" style="overflow:visible;"></use>
	</clipPath>
	<g style="clip-path:url(#SVGID_00000166666262464770231500000016301615103219574202_);">
		<path class="st1" d="M112.9,50.9c-0.3-0.6-0.6-1.2-1-1.8c-1-1.6-2.2-2.9-3.4-4.3c-1.2-1.4-2.3-2.9-3-4.7c-0.3-0.7-0.5-1.4-0.7-2.1
			c0-0.1-0.1-0.2,0-0.3c0.2-0.1,0.2,0.1,0.3,0.2c0.7,1,1.6,1.8,2.6,2.4c1,0.7,1.7,1.6,2.1,2.7c0.5,1.3,0.8,2.8,1.4,4.1
			c0.2,0.5,0.4,1,0.7,1.5c0.9,1.3,1.6,2.7,2.2,4.2c0.1,0.1,0.1,0.3,0.2,0.4c0.2-0.1,0.1-0.2,0.1-0.2c-0.1-3.7-0.5-7.3-1.4-10.9
			c-0.1-0.5-0.4-0.9-0.7-1.4c-0.6-0.9-1.2-1.7-1.9-2.4c-2.2-2.4-3.4-5.3-3.8-8.5c-0.1-0.9-0.3-1.8-0.4-2.8c-0.1-0.5-0.1-1-0.1-1.5
			c0-0.4-0.1-0.9-0.2-1.3c0.2,0,0.2,0.1,0.3,0.2c0.3,0.6,0.7,1.1,1.2,1.6c1.9,2,3.1,4.3,3.7,7c0.3,1.7,1.1,3.3,1.6,5
			c0.7,2.3,1.3,4.6,1.8,7c0,0.1,0,0.2,0.2,0.4c0.1-0.7,0.3-1.3,0.3-1.9c0-1.5-0.1-3-0.3-4.6c0-0.2,0-0.4-0.2-0.5
			c-0.2-0.1-0.2-0.4-0.1-0.6c0.1-0.1,0.2-0.2,0.3-0.2c0.1,0,0.2,0,0.3,0.1c0.2,0.2,0.3,0.4,0.1,0.6c-0.2,0.2-0.1,0.4-0.1,0.7
			c0.1,1,0.3,2,0.4,3c0,0.1,0,0.1,0.1,0.2c0.2-0.7,0.5-1.3,0.7-1.9c0-0.1-0.1-0.2-0.1-0.3c0-0.2,0-0.4,0.2-0.4c0.1,0,0.2,0,0.3,0
			c0.1,0,0.2,0.1,0.2,0.2c0.1,0.2,0,0.4-0.1,0.4c-0.2,0.1-0.2,0.2-0.3,0.4c-0.2,0.6-0.4,1.2-0.5,1.8c0.3-0.2,0.5-0.4,0.8-0.6
			c0.3-0.2,0.5-0.4,0.8-0.6c0.2-0.1,0.4-0.2,0.3-0.6c0-0.2,0.2-0.4,0.5-0.4c0.3,0,0.4,0.2,0.4,0.5c0,0.3-0.2,0.4-0.5,0.3
			c-0.2-0.1-0.3,0-0.5,0.2c-0.4,0.4-0.8,0.7-1.2,1.1c-0.7,0.5-1,1.1-1.1,1.9c-0.1,0.8-0.2,1.6-0.3,2.4c0,0.4-0.1,0.7,0,1.1
			c0.2,1.4,0.3,2.7,0.4,4.1c0,0.1,0,0.1,0,0.2c0.2,0,0.2-0.2,0.2-0.3c0.3-0.9,0.5-1.8,0.7-2.7c0.4-1.3,0.9-2.6,1.7-3.7
			c0.2-0.2,0.3-0.5,0.6-0.6c0.1-0.1,0.2-0.1,0.3-0.1c0.1,0.1,0.1,0.2,0.1,0.3c0,0.2-0.1,0.4-0.2,0.6c-0.1,0.3-0.2,0.6-0.3,0.9
			c-0.3,1.7-1.3,3.1-2.3,4.6c-0.2,0.3-0.3,0.6-0.4,0.9c0,0,0,0,0,0.1c-0.7,1.2-0.3,2.5-0.4,3.8c0,0.2-0.1,0.4,0,0.7
			c0.2-0.1,0.2-0.2,0.2-0.3c0.8-1.8,1.8-3.4,3.1-4.9c1.1-1.2,2.3-2.2,3.8-2.9c0.2-0.1,0.3-0.2,0.5-0.3c0.1-0.1,0.2-0.1,0.3,0.1
			c0.1,0.1,0,0.2-0.1,0.3c-1.3,1-2.1,2.4-2.8,4c-0.4,0.9-1,1.7-1.8,2.4c-0.6,0.5-1.1,0.9-1.7,1.4c-0.3,0.2-0.5,0.5-0.8,0.8
			c-0.7,0.6-1,1.4-1.1,2.3c-0.2,2.5-0.6,5.1-1.3,7.5c0,0.1-0.1,0.2,0,0.3c0.1,0.1,0.1,0,0.2,0c0.1-0.1,0.3-0.2,0.5-0.1
			c0.2,0.1,0.2,0.3,0.1,0.4c-0.1,0.2-0.2,0.3-0.4,0.3c-0.4,0-0.6,0.1-0.7,0.5c-0.3,1.2-0.7,2.3-1.1,3.5c0,0.1-0.1,0.2,0,0.3
			s0.2-0.1,0.3-0.2c0.8-0.9,1.6-2,2.3-3c1.9-2.7,4.3-4.9,7.2-6.5c0.8-0.5,1.7-0.8,2.6-1.1c0.1,0,0.2-0.1,0.3,0
			c0.1,0.1,0,0.2-0.1,0.3c-1.3,1-2.2,2.2-3.1,3.5c-0.6,0.9-1.4,1.8-2.1,2.5c-0.9,1-2.1,1.6-3.3,2.2c-1,0.4-2,0.9-2.9,1.6
			c-0.5,0.4-0.8,1-1.2,1.4c-0.5,0.4-0.7,0.9-1,1.5c-1.4,3.5-3.3,6.8-5.4,9.9c-0.1,0.1-0.3,0.2-0.3,0.4c0,0,0,0.1,0,0.1
			c0,0,0.1,0,0.1,0c1-0.6,1.9-1.3,2.8-2c1.9-1.5,3.8-2.7,6.1-3.5c0.5-0.2,1-0.3,1.5-0.4c0.1,0,0.2,0,0.3,0.1
			c0.1,0.1,0.1,0.2-0.1,0.3c-1.1,0.6-1.9,1.7-2.9,2.5c-1.1,0.9-2.4,1.4-3.8,1.7c-1,0.2-2,0.4-2.9,0.9c-0.9,0.5-1.9,1.1-2.6,2
			c-1.7,2.2-3.6,4.2-5.7,6.1c-0.1,0.1-0.3,0.2-0.4,0.5c0.6-0.1,1.1-0.2,1.5-0.4c0.8-0.5,1.6-1.1,2.2-1.9c0.3-0.5,0.7-0.9,1.1-1.3
			c0.2-0.2,0.4-0.3,0.6-0.5c0.1,0,0.2-0.1,0.3,0c0.1,0.1,0.1,0.2,0,0.3c-0.2,0.5-0.4,1.1-0.8,1.6c-0.3,0.5-0.8,0.8-1.4,0.9
			c-0.4,0.1-0.7,0.3-1,0.6c0,0.2,0.1,0.1,0.2,0.1c0.2,0,0.4-0.1,0.6-0.1c0.5,0,0.9-0.1,1.2-0.5c0.3-0.5,0.9-0.6,1.5-0.7
			c0.6-0.1,1.3-0.2,1.9-0.4c0.1,0,0.2,0,0.2,0c0.1,0,0.2,0,0.3,0.1c0.1,0.1,0,0.2-0.1,0.3c-0.9,0.6-1.8,1.1-2.9,1.3
			c-0.5,0.1-1,0.1-1.5,0.2c0.1,0.1,0.2,0.1,0.3,0.2c1,0.3,1.9,0.8,2.7,1.4c0.2,0.1,0.3,0.3,0.4,0.5c0,0.1,0.1,0.2,0,0.3
			c-0.1,0.1-0.2,0-0.3,0c-0.3-0.2-0.6-0.4-1-0.5c-0.3-0.1-0.6-0.2-1-0.2c-0.5,0-1-0.2-1.3-0.7c-0.5-0.8-1.2-0.8-1.9-0.7
			c-0.8,0.1-1.7,0.3-2.5,0.5c-0.2,0-0.3,0.1-0.4,0.2c-1.8,1.5-3.6,2.9-5.6,4.1c0,0-0.1,0.1-0.2,0.1c0.3,0.1,0.6,0,0.8-0.1
			c1.7-0.2,3.3-0.6,4.7-1.4c0.3-0.2,0.6-0.2,0.7-0.6c0.1-0.2,0.3-0.2,0.5-0.2c0.2,0.1,0.3,0.2,0.3,0.4c0,0.1,0,0.2-0.1,0.2
			C98.3,96,98.2,96,98.1,96c-0.5,0-0.8,0.4-1.2,0.6c0.2,0.1,0.5,0.2,0.7,0c0.1-0.1,0.2-0.1,0.3-0.1c0.1,0,0.2,0,0.3,0.1
			c0.2,0.1,0.2,0.3,0,0.4c-0.1,0.2-0.3,0.3-0.5,0.2c-0.3-0.2-0.5-0.1-0.9-0.1c0.3,0.2,0.5,0.5,0.9,0.4c0.2,0,0.3,0.1,0.4,0.3
			c0.1,0.2,0,0.3-0.1,0.4c-0.2,0.1-0.4,0.1-0.5-0.1c-0.4-0.4-0.9-0.7-1.4-0.9c-0.2-0.1-0.3-0.1-0.5,0c-1.5,0.5-3.1,0.8-4.7,1
			c-0.2,0-0.4,0.1-0.5,0.2c-0.8,0.4-1.5,0.9-2.3,1.3c0,0-0.1,0-0.1,0.1c0.5,0,1,0.1,1.5-0.2c1-0.6,2.1-1.1,3.3-1.3
			c1.5-0.2,3-0.1,4.5,0.5c0.2,0.1,0.4,0.2,0.6,0.2c1.2,0.5,2.4,0.6,3.7,0.4c0.2,0,0.3-0.1,0.4,0.1c0.1,0.2-0.1,0.3-0.2,0.4
			c-0.8,0.5-1.7,0.8-2.6,1c-1.4,0.3-2.7,0.2-4.1,0.1c-2.2-0.2-4.3-0.5-6.5-0.8c-0.8-0.1-1.5,0-2.2,0.4c-4.6,2.3-9.3,3.8-14.4,4.7
			c-0.2,0-0.5,0.1-0.7,0.1c-0.3,0-0.5-0.1-0.5-0.4c0.1-0.1,0.3-0.1,0.5-0.1c2.2-0.3,4.3-0.8,6.4-1.4c0.5-0.1,0.9-0.4,1.3-0.7
			c1.6-1.2,2.9-2.6,4.1-4.2c0.8-1.1,1.4-2.3,1.8-3.6c0.3-1.1,0.7-2.2,1.2-3.3c1.1-2.1,2.8-3.6,5.1-4.5c0.1,0,0.2-0.1,0.2,0
			c0.1,0.1,0,0.2-0.1,0.3c-0.9,1-1.6,2-2.1,3.3c-0.3,0.6-0.5,1.3-0.8,1.9c-0.5,1.4-1.4,2.6-2.6,3.4c-0.9,0.6-1.6,1.4-2.2,2.3
			c-0.9,1.4-2.1,2.6-3.4,3.7c-0.1,0.1-0.3,0.2-0.3,0.3c0.1,0.1,0.2,0,0.3,0c3.8-1.3,7.4-3.1,10.8-5.3c0.3-0.2,0.5-0.4,0.7-0.6
			c1.8-2.1,3.5-4.3,4.9-6.6c0.5-0.8,0.6-1.6,0.7-2.5c0.1-1-0.1-1.9-0.5-2.8c-0.9-2-0.7-4,0.1-6c0.1-0.3,0.2-0.6,0.6-0.6
			c0,0.4,0,0.8,0,1.2c-0.1,0.7,0,1.5,0.2,2.2c0.4,1,0.4,2.1,0.1,3.2c-0.4,1.2-0.3,2.5-0.4,3.7c0,0.1,0,0.1,0.1,0.2
			c0.2-0.4,0.5-0.8,0.7-1.2c0.8-1.6,1.7-3.2,2.4-4.9c0.3-0.8,0.7-1.6,0.6-2.5c-0.1-3.4,1.1-6.2,3.4-8.6c0.2-0.3,0.5-0.6,0.8-0.8
			c0.1-0.1,0.1-0.1,0.2-0.1c0.1,0,0.1,0.1,0.1,0.2c0,0.1,0,0.2-0.1,0.3c-0.4,1.1-0.6,2.2-0.6,3.4c0,1.2-0.5,2.2-1.2,3.1
			c-0.6,0.9-1.4,1.7-1.9,2.7c-0.3,0.6-0.6,1.2-0.8,1.8c-0.5,1.3-1.1,2.6-1.8,3.9c-0.4,0.8-0.8,1.6-1.2,2.4c-1.4,2.6-2.9,5.1-4.9,7.3
			c0,0,0,0.1,0,0.1c0.2,0,0.3-0.1,0.5-0.2c6.1-4.6,11-10.2,14.7-16.9c1-1.9,1.7-3.9,2.2-6c0.1-0.3,0-0.5-0.1-0.8
			c-0.1-0.4-0.2-0.7-0.3-1.1c0-0.2-0.1-0.3-0.3-0.4c-0.3-0.1-0.3-0.3-0.2-0.5s0.2-0.4,0.5-0.3c0.2,0.1,0.4,0.2,0.4,0.5
			c-0.1,0.5,0,0.6,0.4,1c0.2-0.7,0.3-1.5,0.1-2.2c-0.2-0.8-0.3-1.5-0.6-2.3c0-0.1-0.1-0.2-0.2-0.3c-0.2-0.1-0.3-0.3-0.2-0.5
			c0.1-0.2,0.2-0.2,0.4-0.1c0.2,0.1,0.3,0.3,0.2,0.5c0,0.1-0.1,0.2,0,0.3c0.2,0.5,0.4,1,0.6,1.5c0,0.1,0.1,0.1,0.1,0.1
			c0.1-0.2,0.1-0.5,0.1-0.7c0-0.2,0-0.5,0-0.7c0.2-1-0.3-1.8-0.8-2.5c-0.2-0.2-0.3-0.5-0.6-0.6c-0.2,0-0.2-0.3-0.1-0.4
			c0.1-0.2,0.2-0.3,0.4-0.2c0.1,0,0.1,0,0.2,0.1s0.1,0.1,0.1,0.2c0,0.2,0,0.3,0.2,0.3c0.3,0.3,0.5,0.7,0.8,1.1c0-0.6,0.1-1.2,0-1.8
			c-0.1-0.4-0.3-0.7-0.6-0.9c-0.3-0.3-0.5-0.5-0.8-0.7c-0.1-0.1-0.2-0.1-0.3-0.1c-0.2,0-0.3-0.1-0.4-0.3c0-0.2,0.1-0.3,0.2-0.3
			c0.2,0,0.3,0,0.4,0.3c0,0.1,0,0.2,0.1,0.2c0.5,0.3,0.9,0.6,1.2,1c0-1.1,0-2.2-0.9-3c-0.2-0.2-0.4-0.4-0.7-0.7
			c-0.1-0.1-0.2-0.1-0.3-0.1c-0.2,0-0.4-0.1-0.4-0.4c0-0.2,0.2-0.3,0.3-0.3c0.3,0,0.4,0.2,0.3,0.4c0,0.1,0,0.2,0.1,0.2
			c0.4,0.4,0.7,0.7,1.1,1.1c-0.1-0.6-0.2-1.3-0.4-1.9c-0.2-0.9-0.5-1.7-0.8-2.5c-0.1-0.1-0.1-0.2-0.3-0.2c-0.2,0-0.4-0.2-0.3-0.4
			c0-0.1,0.1-0.2,0.1-0.2c0.1-0.1,0.2-0.1,0.3-0.1c0.2,0,0.3,0.2,0.3,0.4c0,0.1,0,0.2,0,0.2c0.4,0.9,0.8,1.9,1.1,2.9
			c0.2-0.6,0.3-1.1,0.4-1.6c0.1-0.2,0.1-0.4,0-0.7c-0.1-0.1-0.1-0.2-0.1-0.3c0-0.1,0.1-0.2,0.2-0.3c0.1-0.1,0.3-0.1,0.4,0.1
			c0.2,0.2,0.2,0.5,0,0.7c-0.1,0.1-0.2,0.2-0.2,0.4c0,0.8-0.3,1.5-0.4,2.3c0,0.1,0,0.2,0,0.3c0.1,0.6,0.2,1.2,0.4,1.9
			c0.2-0.4,0.6-0.8,0.6-1.3c0-0.2,0.1-0.4,0.3-0.5c0.2,0,0.2,0.1,0.3,0.3c0,0.2,0,0.5-0.2,0.5c-0.2,0.1-0.2,0.2-0.3,0.3
			c-0.6,1-0.6,2.1-0.4,3.3c0.1-0.4,0.7-0.6,0.6-1.1c0-0.1,0.1-0.2,0.3-0.3c0.2,0,0.3,0,0.3,0.2c0.1,0.2,0,0.3-0.1,0.4
			c-0.4,0.1-0.5,0.5-0.7,0.8c-0.6,0.9-0.4,1.9-0.4,2.9c0.3-0.3,0.6-0.4,0.7-0.8c0-0.2,0.2-0.4,0.4-0.3c0.2,0,0.2,0.2,0.2,0.3
			c0,0.2-0.1,0.5-0.4,0.5c-0.4-0.1-0.5,0.2-0.7,0.5c-0.3,0.4-0.3,1-0.3,1.5c-0.1,0.5-0.1,0.9-0.1,1.4c0,0.1,0,0.1,0.2,0.2
			c0.2-0.5,0.8-0.7,0.9-1.2c1.2-4.3,1.8-8.7,1.8-13.1c0-0.3,0-0.5-0.1-0.7c-0.3-0.6-0.5-1.3-0.8-1.9c-0.1-0.2-0.2-0.3-0.4-0.4
			c-0.8-0.5-1.7-0.9-2.6-1.1c-2.4-0.7-4.5-1.9-6-3.9c-0.3-0.4-0.6-0.7-0.9-1.2c-0.1-0.1-0.1-0.2,0-0.3c0.1-0.1,0.2,0,0.3,0.1
			c0.9,0.9,1.9,1.5,3,1.9c1.5,0.5,2.7,1.4,3.8,2.5C111.3,50,111.9,50.6,112.9,50.9C112.9,51,112.9,51,112.9,50.9z M110.6,73.2
			c0.7-1.4,1.1-2.8,1.5-4.2c-0.3,0.3-0.5,0.6-0.7,0.9c-0.1,0.1-0.2,0.3-0.3,0.4c-0.1,0.9-0.3,1.7-0.6,2.5
			C110.6,73,110.6,73.1,110.6,73.2z M113.7,66.9C113.7,66.9,113.7,66.9,113.7,66.9c-0.1-0.1-0.1,0-0.1,0
			C113.5,67,113.5,67,113.7,66.9C113.7,67,113.7,67,113.7,66.9z M112.1,71.8L112.1,71.8C112.1,71.8,112.1,71.8,112.1,71.8
			C112.1,71.8,112.1,71.8,112.1,71.8L112.1,71.8z M112.1,72C112.1,72,112,71.9,112.1,72C112,71.9,112,71.9,112.1,72
			C112,72,112,72,112.1,72C112,72,112,72,112.1,72z M111.4,68.9C111.5,68.9,111.5,68.9,111.4,68.9C111.5,68.9,111.5,68.9,111.4,68.9
			C111.5,68.9,111.5,68.9,111.4,68.9L111.4,68.9z M100.6,92L100.6,92C100.6,92,100.6,92,100.6,92C100.6,92.1,100.6,92.1,100.6,92
			L100.6,92z"></path>
	</g>
</g>
<g>
	<defs>
		<rect id="SvgjsRect1006" x="0.2" y="22.7" width="54.4" height="82.7"></rect>
	</defs>
	<clipPath id="SvgjsClipPath1005">
		<use xlink:href="#SVGID_00000119832801797953372420000000666214012905721277_" style="overflow:visible;"></use>
	</clipPath>
	<g style="clip-path:url(#SVGID_00000138557548892254436630000003644615589985743745_);">
		<path class="st1" d="M11.5,66.6c0.1-0.1,0-0.2,0-0.3c-0.7-2.7-1.1-5.5-1.3-8.3c0-0.3-0.1-0.6-0.3-0.8c-0.7-0.9-1.5-1.6-2.4-2.3
			c-0.1-0.1-0.3-0.2-0.4-0.3c-1.1-0.8-1.8-1.7-2.3-3c-0.5-1.2-1.2-2.3-2.1-3.2c-0.2-0.1-0.3-0.3-0.5-0.4c-0.1-0.1-0.2-0.2-0.1-0.3
			c0.1-0.1,0.2-0.1,0.3-0.1c1.5,0.7,2.9,1.6,4.1,2.9c1.4,1.5,2.5,3.3,3.3,5.2c0,0.1,0.1,0.2,0.1,0.3c0,0,0,0,0.1,0
			c0-0.3,0-0.6,0-0.8c0-0.5-0.1-1,0-1.5c0.1-0.9-0.3-1.6-0.6-2.4c-0.2-0.6-0.5-1.1-0.9-1.5c-0.8-1.1-1.4-2.3-1.7-3.6
			c-0.1-0.5-0.3-0.9-0.4-1.4c-0.1-0.2-0.1-0.4,0.1-0.5C6.7,44,6.9,44.2,7,44.3c0.7,0.7,1.1,1.6,1.5,2.5C9,48,9.3,49.3,9.7,50.6
			c0.1,0.3,0.1,0.6,0.3,0.9c0.1-0.1,0.1-0.2,0.1-0.3c0.1-1.3,0.2-2.6,0.3-3.9c0.1-1-0.1-1.9-0.2-2.9c0-0.3-0.1-0.7-0.2-1
			c-0.1-0.6-0.3-1-0.8-1.4c-0.5-0.4-1.1-0.9-1.6-1.4c-0.1-0.1-0.3-0.1-0.4-0.1c-0.2,0-0.3,0-0.4-0.2c-0.1-0.2-0.1-0.3,0-0.5
			c0.1-0.1,0.2-0.2,0.4-0.2c0.2,0,0.3,0.1,0.3,0.3c0,0.3,0.1,0.4,0.3,0.6c0.5,0.4,1.1,0.8,1.6,1.2c0.1-0.1,0-0.2,0-0.3
			c-0.1-0.4-0.3-0.9-0.4-1.3C9,40.1,9,39.8,8.7,39.7c-0.2-0.1-0.2-0.3-0.1-0.4c0.1-0.2,0.3-0.2,0.5-0.1c0.2,0.1,0.3,0.2,0.2,0.4
			c-0.1,0.2,0,0.4,0,0.6c0.2,0.5,0.4,1,0.6,1.5c0.1-1,0.3-2,0.4-3c0-0.3,0.1-0.6-0.1-0.8c-0.2-0.2-0.1-0.5,0.2-0.6
			c0.2-0.1,0.5-0.1,0.6,0.1s0.1,0.5-0.1,0.6c-0.2,0.1-0.2,0.3-0.2,0.5c-0.1,1.2-0.2,2.5-0.3,3.7c-0.1,0.9,0.1,1.7,0.2,2.6
			c0,0.1,0,0.1,0.1,0.1c0-0.1,0.1-0.2,0.1-0.3c0.6-3.3,1.5-6.4,2.7-9.5c0.4-1,0.6-2.1,0.9-3.1c0.6-2.5,1.9-4.6,3.6-6.4
			c0.4-0.4,0.8-0.9,1.1-1.5c0-0.1,0.1-0.2,0.2-0.2c0,0,0,0.1,0,0.1c-0.3,2.7-0.5,5.3-1.2,8c-0.5,2.1-1.5,3.9-2.9,5.6
			c-0.7,0.9-1.5,1.8-2.2,2.7c-0.8,1-1,2.3-1.2,3.5c-0.6,2.9-0.9,5.9-1,8.9c0,0.1-0.1,0.2,0.1,0.3c0.1,0,0.1-0.1,0.2-0.2
			c0.6-1.7,1.5-3.2,2.4-4.7c0.6-1,0.9-2.1,1.2-3.1c0.3-0.9,0.5-1.7,0.9-2.5c0.4-1,1.1-1.8,2-2.3c1-0.6,1.9-1.4,2.5-2.4
			c0.1-0.1,0.1-0.2,0.3-0.2c0.2,0.1,0.1,0.2,0.1,0.3c-0.4,1.9-1.2,3.6-2.3,5.1c-0.8,1.1-1.7,2.2-2.6,3.2c-1.1,1.3-2.1,2.7-2.9,4.2
			c-0.1,0.2-0.2,0.4-0.3,0.5c0.2,0.1,0.2,0,0.4-0.1c0.8-0.4,1.4-0.9,2-1.5c1.1-1.1,2.3-2,3.9-2.5c1.1-0.4,2.1-1,3-1.9
			c0.1-0.1,0.2-0.2,0.3-0.1c0.1,0.1,0,0.2,0,0.3c-1,1.4-2.1,2.7-3.6,3.6c-1,0.6-2.1,1.1-3.2,1.4c-0.9,0.3-1.7,0.6-2.5,1.1
			c-0.3,0.1-0.5,0.4-0.6,0.7c-0.2,0.5-0.4,1-0.6,1.4c-0.2,0.4-0.3,0.8-0.3,1.3c0.1,4.3,0.7,8.5,1.8,12.7c0.1,0.3,0.2,0.6,0.5,0.8
			c0.2,0.2,0.4,0.4,0.5,0.6c0.1,0,0.1-0.1,0.1-0.2c-0.1-0.7-0.1-1.4-0.2-2.1c0-0.4-0.2-0.7-0.4-1C13,65.1,12.8,65,12.6,65
			c-0.2,0.1-0.3-0.1-0.3-0.2c-0.1-0.2-0.1-0.3,0-0.5c0.1-0.2,0.4-0.1,0.5,0.2c0.1,0.4,0.4,0.6,0.8,0.9c-0.1-0.9,0.2-1.7-0.2-2.5
			c-0.2-0.3-0.3-0.6-0.4-0.9c-0.1-0.1-0.1-0.2-0.3-0.3c-0.1,0-0.2-0.1-0.2-0.1s-0.1-0.2,0-0.2c0-0.2,0.2-0.3,0.3-0.2
			c0.2,0,0.3,0.2,0.3,0.4c0,0.1,0,0.2,0.1,0.3c0.2,0.2,0.4,0.4,0.5,0.6c0-0.3,0-0.7,0.1-1c0.2-0.9-0.2-1.6-0.6-2.4
			c0-0.1-0.1-0.1-0.2-0.1c-0.2,0-0.2-0.2-0.3-0.3c-0.1-0.2,0-0.5,0.2-0.5c0.2-0.1,0.4,0.2,0.4,0.4c0,0.5,0.4,0.9,0.6,1.3
			c0.3-1.1,0.6-2.1,0.2-3.2c-0.1-0.4-0.2-0.8-0.2-1.2c0-0.2-0.1-0.4-0.2-0.5c-0.2-0.2-0.1-0.4,0-0.6c0.1-0.2,0.4-0.2,0.5,0.1
			c0,0.1,0.1,0.3,0,0.3c-0.3,0.4-0.1,0.8,0,1.2c0.1,0.4,0.1,0.7,0.3,1.1c0.2-0.5,0.4-1,0.6-1.5c0.2-0.4,0.3-0.8,0.5-1.2
			c0.1-0.1,0.1-0.3,0.1-0.4c0-0.2,0.1-0.4,0.3-0.4c0.2,0,0.3,0.1,0.4,0.3c0.1,0.2-0.1,0.4-0.3,0.4c-0.3,0-0.3,0.2-0.4,0.3
			c-0.5,1.3-0.9,2.6-1.2,3.9c0,0.1-0.1,0.2,0,0.4c0.4-0.4,0.8-0.8,1.1-1.1c0.1-0.1,0-0.2,0-0.3c0-0.2,0.1-0.3,0.3-0.3
			c0.1,0,0.2,0,0.2,0.1c0.1,0.1,0.1,0.1,0.1,0.2c0,0.2-0.1,0.3-0.2,0.4c-1.1,0.5-1.9,1.6-2,2.8c0,0.3-0.1,0.7,0,1
			c0.3-0.4,0.8-0.8,1.3-1.1c0.1,0,0.1-0.2,0.1-0.2c0.1-0.2,0.2-0.2,0.4-0.2c0.2,0,0.3,0.2,0.2,0.3c0,0.2-0.1,0.3-0.3,0.3
			c-0.3,0-0.4,0.1-0.6,0.3c-0.4,0.3-0.8,0.6-1,1.1c-0.1,0.2-0.2,0.4-0.2,0.7c0,0.5,0,1,0,1.5c0.3-0.5,0.6-0.9,1-1.3c0,0,0-0.2,0-0.2
			c0-0.2,0.1-0.3,0.3-0.3c0.2,0,0.3,0,0.3,0.2c0.1,0.2,0.1,0.3-0.1,0.4c-0.6,0.3-0.8,0.9-1.1,1.4c-0.3,0.5-0.4,1-0.3,1.6
			c0.1,0.5,0,1,0.1,1.5c0.2,0,0.2-0.1,0.2-0.2c0.1-0.4,0.2-0.8,0.4-1.1c0.1-0.2,0.2-0.4,0.1-0.7c-0.1-0.2,0.1-0.3,0.2-0.4
			c0.2-0.1,0.3,0,0.4,0.1c0.1,0.2,0.1,0.4-0.1,0.5c-0.5,0.3-0.5,0.9-0.6,1.4c-0.1,0.5-0.2,1-0.3,1.5c-0.1,0.7,0,1.3,0.2,2
			c0.2-0.3,0.5-0.6,0.3-1c-0.1-0.2,0.1-0.5,0.3-0.5c0.3-0.1,0.5,0.1,0.5,0.3c0.1,0.2,0,0.4-0.3,0.5C15,70,15.1,70.4,15,70.6
			c0,0.1,0,0.2,0,0.2c-0.4,0.8-0.2,1.6,0,2.4c0.6,2.7,1.9,5,3.3,7.3c3.4,5.6,7.8,10.3,13,14.3c0.2,0.2,0.4,0.3,0.6,0.5
			c0.1,0,0.1-0.1,0-0.2c-0.1-0.1-0.1-0.2-0.2-0.2c-1.6-1.8-2.9-3.9-4.1-6c-1.3-2.3-2.5-4.7-3.5-7.2c-0.6-1.5-1.4-2.9-2.5-4.1
			c-0.7-0.9-1.3-1.8-1.5-2.9c-0.1-0.5-0.1-1.1-0.2-1.6c-0.1-0.7-0.2-1.5-0.5-2.2c-0.1-0.2-0.1-0.4-0.2-0.6c0-0.1,0-0.2,0.1-0.3
			c0.1,0,0.2,0,0.2,0.1c0.3,0.2,0.5,0.6,0.8,0.8c1.4,1.6,2.6,3.2,3.1,5.3c0.2,0.9,0.3,1.9,0.3,2.8c0,1,0.2,1.9,0.6,2.8
			c0.6,1.3,1.2,2.5,1.8,3.8c0.3,0.7,0.8,1.4,1.1,2.1c0,0.1,0.1,0.2,0.2,0.2c0-0.6,0-1.1,0-1.7c0-1-0.3-1.9-0.5-2.9
			c-0.1-0.7-0.1-1.5,0.1-2.2c0.4-1,0.5-2.1,0.3-3.2c0-0.1-0.1-0.3,0.1-0.4c0.2-0.1,0.3,0.1,0.4,0.2c0.5,0.7,0.7,1.5,0.8,2.3
			c0.2,1.6,0.1,3.1-0.6,4.5c-0.4,0.9-0.4,1.8-0.3,2.7c0,0.2,0,0.3,0,0.5c0,0.5,0.2,1,0.5,1.5c1.4,2.5,3.2,4.7,5.1,6.8
			c0.3,0.3,0.6,0.6,1,0.8c2.5,1.6,5.2,3,7.9,4.1c0.9,0.4,1.8,0.7,2.6,1c0.1,0,0.2,0.1,0.3,0.1c0-0.2-0.1-0.2-0.2-0.3
			c-1.5-1.3-2.9-2.7-3.9-4.5c-0.3-0.6-0.8-1-1.4-1.4c-1.7-1.2-2.8-2.8-3.4-4.7c-0.5-1.6-1.4-2.9-2.5-4.2c-0.1-0.1-0.3-0.2-0.1-0.3
			c0.1-0.1,0.2,0,0.3,0.1c1.2,0.4,2.3,1.1,3.2,2c1.1,1.1,1.9,2.5,2.4,4c0.3,1,0.6,2,1,3.1c0.2,0.7,0.6,1.2,1,1.8
			c1.3,1.9,2.9,3.5,4.8,4.9c0.2,0.1,0.4,0.2,0.6,0.3c2.2,0.7,4.4,1.2,6.6,1.5c0.2,0,0.3,0.1,0.5,0.1c0,0.4-0.1,0.5-0.6,0.4
			c-0.8-0.1-1.6-0.2-2.3-0.4c-3-0.6-5.8-1.5-8.6-2.6c-1.2-0.5-2.5-1-3.7-1.6c-1-0.6-2.1-0.6-3.2-0.4c-2.7,0.5-5.5,0.9-8.3,0.9
			c-1.2,0-2.4-0.3-3.6-0.8c-0.2-0.1-0.4-0.2-0.7-0.4c-0.1-0.1-0.2-0.2-0.2-0.4c0.1-0.2,0.2-0.2,0.4-0.1c0.5,0.1,0.9,0.1,1.4,0.1
			c0.8,0,1.6-0.2,2.3-0.5c1.5-0.6,3-0.8,4.6-0.7c1,0.1,1.8,0.4,2.7,0.8c0.3,0.1,0.5,0.2,0.8,0.4c0.5,0.4,1.1,0.5,1.8,0.4
			c0-0.1-0.1-0.1-0.2-0.2c-0.7-0.4-1.4-0.8-2.1-1.2c-0.5-0.3-1-0.3-1.4-0.3c-1.3-0.1-2.5-0.4-3.7-0.8c-0.3-0.1-0.6-0.1-0.9,0.1
			c-0.4,0.2-0.8,0.4-1.2,0.8c-0.2,0.2-0.4,0.2-0.6,0.1c-0.2-0.1-0.2-0.2-0.1-0.4c0-0.1,0.1-0.2,0.2-0.2s0.2-0.1,0.3,0
			c0.4,0.1,0.5-0.2,0.8-0.4c-0.3,0-0.6-0.2-0.8,0c-0.2,0.1-0.4,0-0.5-0.1c-0.1-0.2-0.1-0.3,0-0.4c0.2-0.2,0.4-0.2,0.5,0
			c0.2,0.2,0.5,0.1,0.7,0.1c-0.4-0.2-0.7-0.6-1.2-0.6c-0.1,0-0.2,0-0.3-0.1c-0.1-0.1-0.1-0.2-0.1-0.3c0-0.2,0.1-0.3,0.3-0.4
			c0.2-0.1,0.5,0,0.5,0.2c0.1,0.2,0.2,0.3,0.4,0.4c0.6,0.3,1.1,0.6,1.7,0.8c1.3,0.5,2.7,0.6,4,0.9c0,0,0.1,0,0.1,0
			c0-0.2-0.1-0.2-0.2-0.2c-1.8-1.1-3.4-2.4-5-3.7C28,93,27.6,92.7,27,92.6c-0.9-0.2-1.8-0.5-2.7-0.3c-0.3,0-0.5,0.1-0.7,0.4
			c-0.1,0.1-0.2,0.2-0.3,0.3c-0.3,0.4-0.7,0.6-1.2,0.7c-0.7,0-1.3,0.3-1.9,0.7c-0.1,0.1-0.2,0.2-0.4,0.1c-0.2-0.2,0-0.3,0-0.4
			c0.2-0.3,0.5-0.5,0.8-0.7c0.7-0.5,1.5-0.9,2.4-1.1c0.1,0,0.1-0.1,0.2-0.1l-1.4-0.2c-1.1-0.1-2.1-0.6-3-1.3
			c-0.1-0.1-0.2-0.1-0.2-0.3c0-0.2,0.2-0.2,0.3-0.1c1,0.2,2,0.3,3,0.6c0.3,0.1,0.6,0.3,0.8,0.6c0.2,0.2,0.4,0.3,0.6,0.3
			c0.4,0,0.8,0.1,1.2,0c-0.2-0.3-0.4-0.5-0.7-0.5c-1.1-0.3-1.8-1-2.2-2.1c-0.1-0.2-0.2-0.3-0.2-0.5c0-0.1-0.1-0.2,0-0.3
			c0.1-0.1,0.2,0,0.4,0c0.2,0.1,0.4,0.3,0.6,0.5c0.5,0.5,1,1,1.4,1.6c0.5,0.8,1.3,1.2,2,1.6c0.4,0.2,0.9,0.2,1.3,0.3
			c0-0.2-0.1-0.2-0.2-0.3c-2.2-2-4.2-4.2-6.1-6.6c-0.1-0.1-0.1-0.2-0.2-0.2c-0.7-0.5-1.3-1-2.1-1.5c-0.7-0.4-1.5-0.6-2.3-0.8
			c-0.4-0.1-0.8-0.2-1.2-0.3c-1.5-0.3-2.7-1.1-3.7-2.1c-0.7-0.7-1.4-1.4-2.2-1.9C9,78.5,8.9,78.4,9,78.3c0.1-0.2,0.2-0.1,0.4-0.1
			c2.2,0.5,4.3,1.4,6.1,2.7c1.4,1,2.7,2,4.1,3c0.1,0.1,0.2,0.2,0.3,0.1c-0.1-0.2-0.2-0.3-0.3-0.5c-2.3-3.2-4.2-6.7-5.7-10.4
			c-0.1-0.2-0.2-0.4-0.4-0.6c-0.5-0.5-1-1.1-1.5-1.6c-0.4-0.4-0.8-0.7-1.3-0.9c-0.6-0.3-1.2-0.6-1.8-0.9c-2-0.8-3.5-2.3-4.8-4
			c-0.9-1.1-1.6-2.3-2.7-3.3C1,61.5,0.8,61.2,0.5,61c-0.1-0.1-0.2-0.2-0.1-0.3c0.1-0.2,0.2-0.1,0.3,0c3.4,1.1,6.1,3.2,8.5,5.9
			c1,1.2,1.9,2.5,2.9,3.8c0.3,0.4,0.6,0.7,0.9,1c0.1,0.1,0.1,0.2,0.2,0.1s0-0.2,0-0.2c-0.4-1.2-0.8-2.4-1.2-3.6
			c-0.1-0.3-0.2-0.5-0.6-0.4c-0.2,0-0.4,0-0.5-0.3c-0.1-0.2-0.1-0.3,0.1-0.5C11.1,66.3,11.3,66.4,11.5,66.6
			C11.5,66.6,11.5,66.6,11.5,66.6z M13.1,68.8c0.4,1.4,0.9,2.9,1.5,4.2c0.1,0,0.1-0.1,0.1-0.1c-0.2-0.9-0.4-1.7-0.6-2.5
			C13.9,69.7,13.5,69.2,13.1,68.8z M11.6,66.7C11.6,66.6,11.6,66.6,11.6,66.7c-0.1-0.1-0.2-0.1-0.1,0C11.5,66.7,11.5,66.7,11.6,66.7
			C11.6,66.7,11.6,66.7,11.6,66.7z M13.7,68.6C13.7,68.6,13.7,68.6,13.7,68.6C13.7,68.6,13.7,68.6,13.7,68.6
			C13.7,68.6,13.7,68.7,13.7,68.6C13.7,68.7,13.7,68.6,13.7,68.6z M13.1,71.5C13.1,71.5,13.1,71.5,13.1,71.5
			C13.1,71.5,13.1,71.5,13.1,71.5C13.1,71.5,13.1,71.6,13.1,71.5C13.1,71.6,13.1,71.6,13.1,71.5z M13.2,71.7L13.2,71.7
			C13.2,71.7,13.2,71.7,13.2,71.7C13.1,71.7,13.1,71.7,13.2,71.7L13.2,71.7z M24.6,91.8L24.6,91.8C24.6,91.8,24.6,91.8,24.6,91.8
			C24.6,91.8,24.6,91.8,24.6,91.8L24.6,91.8z"></path>
	</g>
</g>
<path class="st1" d="M63,103.3c0.2-0.5,0.5-0.9,0.8-1.3c0.4-0.5,0.9-0.9,1.6-0.7c0.7,0.2,1.1,0.7,1.2,1.5c0.1,0.7-0.1,1.3-0.3,1.9
	c-0.5,1.5-1.4,2.9-2.4,4.1c-0.1,0.1-0.1,0.1-0.2,0.2c-0.4,0.5-0.6,0.5-1,0c-0.5-0.5-0.9-1-1.3-1.5c-0.8-1.1-1.5-2.2-1.7-3.5
	c-0.1-0.5-0.1-1.1,0.2-1.6c0.3-0.7,1-1,1.7-0.7c0.6,0.3,1.1,0.8,1.4,1.4C62.9,103.1,62.9,103.2,63,103.3z"></path>
<path class="st1" d="M90.5,8.8c0.1,0,0.1,0,0.2,0c1.3,0.5,2.5,1.2,3.5,2.3c0.1,0.1,0.3,0.2,0.1,0.4c-0.1,0.1-0.3,0-0.4,0
	c-0.7-0.3-1.3-0.9-1.9-1.4c-0.5-0.3-0.9-0.7-1.4-1C90.6,9.1,90.5,9,90.5,8.8z"></path>
<path class="st1" d="M26.3,15.2c0,0.1-0.1,0.2-0.2,0.3c-0.8,0.9-1.7,1.8-2.5,2.6c-0.1,0.1-0.1,0.1-0.2,0.2c-0.1,0-0.2,0.1-0.2,0
	c-0.1-0.1-0.1-0.1,0-0.2c0.1-0.3,0.3-0.5,0.4-0.7c0.7-0.8,1.4-1.6,2.3-2.1C26.1,15.2,26.1,15.2,26.3,15.2z"></path>
<path class="st1" d="M64.7,0.5c-0.1,0.2-0.2,0.2-0.3,0.2c-1.2,0.1-2.5,0-3.7,0c-0.1,0-0.3,0-0.3-0.2c0-0.2,0.1-0.3,0.3-0.3
	c1.1-0.2,2.2-0.2,3.3,0C64.3,0.3,64.6,0.3,64.7,0.5z"></path>
<path class="st1" d="M70.9,1.2c0.7-0.4,3.8,0.4,4.3,0.9c0,0.1-0.1,0.1-0.2,0.1c-1.2-0.2-2.5-0.5-3.7-0.8C71.2,1.4,71,1.4,70.9,1.2z"></path>
<path class="st1" d="M54.2,1.3c0,0.2-0.2,0.2-0.3,0.2c-1.2,0.2-2.3,0.4-3.5,0.6c-0.1,0-0.1,0-0.2,0c-0.1,0-0.3,0.1-0.4-0.1
	c-0.1-0.2,0.2-0.3,0.3-0.3c0.8-0.3,1.7-0.4,2.6-0.5c0.3,0,0.7,0,1,0C53.9,1.2,54.1,1.2,54.2,1.3z"></path>
<path class="st1" d="M34.6,8.6c0,0.1-0.1,0.2-0.2,0.2c-1,0.7-2,1.5-3,2.2c0,0,0,0-0.1,0c-0.1,0.1-0.3,0.3-0.4,0.1
	c-0.1-0.2,0.1-0.3,0.2-0.4C32,9.9,32.9,9.2,34,8.6C34.2,8.6,34.4,8.4,34.6,8.6z"></path>
<path class="st1" d="M98.9,15.6c0.2,0,0.3,0.1,0.5,0.2c0.9,0.8,1.6,1.6,2.4,2.5c0.1,0.2,0.3,0.4,0.1,0.6c-0.2,0.2-0.4-0.1-0.5-0.2
	c-0.7-1-1.6-1.8-2.4-2.7C99,15.9,98.9,15.8,98.9,15.6z"></path>
<path class="st1" d="M85.2,5.8c-0.3,0.1-0.5,0-0.8-0.1c-0.8-0.4-1.6-0.8-2.3-1.1c-0.3-0.1-0.5-0.2-0.8-0.3c-0.1-0.1-0.3-0.1-0.2-0.3
	c0.1-0.2,0.2-0.1,0.4-0.1C81.8,4,82,4,82.2,4.1c1,0.4,1.9,0.9,2.9,1.5C85.1,5.6,85.2,5.7,85.2,5.8z"></path>
<path class="st1" d="M44,4c-0.4,0.2-0.7,0.4-1.1,0.5c-0.8,0.3-1.7,0.7-2.5,1c-0.1,0-0.2,0.1-0.2,0.1c-0.1,0-0.2,0-0.2-0.1
	c0-0.1,0-0.2,0.1-0.2c0.2-0.1,0.4-0.2,0.5-0.3c0.7-0.3,1.5-0.6,2.2-0.9c0.4-0.2,0.8-0.2,1.2-0.2L44,4z"></path>
<path class="st1" d="M28.4,13.8c0,0.2-0.1,0.3-0.2,0.5c-0.1,0.1-0.3,0.2-0.5,0.2c-0.2,0-0.3-0.1-0.5-0.2c-0.1-0.1-0.2-0.3-0.2-0.5
	c0-0.2,0.1-0.3,0.2-0.5c0.1-0.1,0.3-0.2,0.5-0.2c0.2,0,0.3,0.1,0.5,0.2C28.4,13.4,28.4,13.6,28.4,13.8z"></path>
<path class="st1" d="M21.2,21.7c0,0.4-0.3,0.7-0.7,0.7c-0.2,0-0.3-0.1-0.4-0.2c-0.1-0.1-0.2-0.3-0.2-0.4c0-0.2,0.1-0.3,0.2-0.4
	c0.1-0.1,0.3-0.2,0.4-0.2c0.2,0,0.3,0.1,0.4,0.2C21.1,21.4,21.2,21.5,21.2,21.7z"></path>
<path class="st1" d="M103.1,19.6c0.2,0,0.3,0,0.4,0.2c0.1,0.1,0.2,0.2,0.2,0.4c0,0.2-0.1,0.3-0.2,0.4c-0.1,0.1-0.3,0.2-0.5,0.2
	c-0.2,0-0.3,0-0.4-0.2c-0.1-0.1-0.2-0.2-0.2-0.4C102.4,19.9,102.7,19.7,103.1,19.6z"></path>
<path class="st1" d="M66.7,1.2c-0.2,0-0.3-0.1-0.4-0.2c-0.1-0.1-0.2-0.3-0.2-0.4c0-0.2,0.1-0.3,0.2-0.4c0.1-0.1,0.3-0.2,0.4-0.2
	c0.2,0,0.3,0.1,0.4,0.2c0.1,0.1,0.2,0.3,0.2,0.4c0,0.2-0.1,0.3-0.2,0.4C67,1.2,66.9,1.3,66.7,1.2z"></path>
<path class="st1" d="M86.9,7.1c-0.2,0-0.3-0.1-0.4-0.2c-0.1-0.1-0.2-0.2-0.2-0.4c0-0.2,0.1-0.3,0.2-0.4C86.6,6,86.8,6,86.9,6
	c0.2,0,0.3,0.1,0.4,0.2c0.1,0.1,0.2,0.2,0.2,0.4c0,0.2-0.1,0.3-0.2,0.4C87.2,7.1,87.1,7.1,86.9,7.1z"></path>
<path class="st1" d="M56.2,1.4c-0.2,0-0.3,0-0.4-0.2c-0.1-0.1-0.2-0.2-0.2-0.4c0-0.2,0.1-0.3,0.2-0.4c0.1-0.1,0.2-0.2,0.4-0.2
	c0.2,0,0.3,0.1,0.4,0.2c0.1,0.1,0.2,0.2,0.2,0.4c0,0.1-0.1,0.3-0.2,0.4S56.4,1.4,56.2,1.4z"></path>
<path class="st1" d="M77.1,3.2c-0.2,0-0.3-0.1-0.4-0.2c-0.1-0.1-0.2-0.2-0.2-0.4c0-0.2,0.1-0.3,0.2-0.4c0.1-0.1,0.2-0.2,0.4-0.2
	c0.2,0,0.3,0.1,0.4,0.2c0.1,0.1,0.2,0.2,0.2,0.4s0,0.3-0.2,0.4C77.3,3.1,77.2,3.2,77.1,3.2z"></path>
<path class="st1" d="M95.7,13.1c-0.2,0-0.3-0.1-0.4-0.2c-0.1-0.1-0.1-0.2-0.1-0.4c0-0.1,0.1-0.3,0.2-0.4c0.1-0.1,0.2-0.2,0.4-0.2
	c0.2,0,0.3,0.1,0.4,0.2c0.1,0.1,0.2,0.2,0.2,0.4c0,0.2-0.1,0.3-0.2,0.4C95.9,13,95.8,13.1,95.7,13.1z"></path>
<path class="st1" d="M45.3,3.2c0-0.1,0.1-0.3,0.2-0.4c0.1-0.1,0.2-0.2,0.4-0.1c0.1,0,0.3,0.1,0.4,0.2c0.1,0.1,0.2,0.2,0.2,0.4
	c0,0.1-0.1,0.3-0.2,0.4c-0.1,0.1-0.2,0.2-0.4,0.1c-0.1,0-0.3-0.1-0.4-0.2C45.3,3.4,45.3,3.3,45.3,3.2z"></path>
<path class="st1" d="M36.2,8.1c-0.1,0-0.3-0.1-0.4-0.2c-0.1-0.1-0.1-0.2-0.1-0.4c0-0.1,0.1-0.3,0.2-0.4c0.1-0.1,0.2-0.1,0.4-0.1
	c0.1,0,0.3,0,0.4,0.1c0.1,0.1,0.2,0.2,0.2,0.4c0,0.1-0.1,0.3-0.2,0.4C36.5,8,36.3,8.1,36.2,8.1z"></path>
<path class="st1" d="M97.4,14.4c-0.2,0-0.4-0.2-0.4-0.4c0-0.1,0-0.2,0.1-0.2c0.1-0.1,0.1-0.1,0.2-0.1c0.2,0,0.5,0.2,0.5,0.4
	C97.7,14.3,97.6,14.4,97.4,14.4z"></path>
<path class="st1" d="M79.8,3.4c0,0.2-0.2,0.3-0.4,0.3c-0.2,0-0.4-0.1-0.4-0.3C79,3.2,79.2,3,79.4,3S79.7,3.2,79.8,3.4z"></path>
<path class="st1" d="M104.8,22c0,0.2-0.1,0.4-0.3,0.4c-0.2,0-0.4-0.1-0.4-0.4c0-0.2,0.1-0.3,0.3-0.3C104.6,21.7,104.8,21.8,104.8,22
	z"></path>
<path class="st1" d="M89.2,7.7c0,0.2-0.1,0.3-0.3,0.3c-0.2,0-0.4-0.1-0.4-0.3c0-0.2,0.1-0.3,0.3-0.3C89,7.3,89.2,7.5,89.2,7.7z"></path>
<path class="st1" d="M22.1,19.9c0,0.2-0.1,0.3-0.3,0.3c-0.1,0-0.1,0-0.2-0.1c-0.1-0.1-0.1-0.1-0.1-0.2c0-0.2,0.1-0.3,0.3-0.3
	C22,19.6,22.1,19.8,22.1,19.9z"></path>
<path class="st1" d="M69,0.6c0.2,0,0.3,0.1,0.3,0.3S69.2,1.2,69,1.2c-0.2,0-0.3-0.1-0.3-0.2C68.7,0.8,68.8,0.7,69,0.6z"></path>
<path class="st1" d="M58.3,0.9c-0.2,0-0.3-0.1-0.3-0.2c0-0.2,0.1-0.3,0.3-0.3c0.1,0,0.2,0.1,0.2,0.2C58.6,0.8,58.5,0.9,58.3,0.9z"></path>
<path class="st1" d="M29.6,12.4c0,0.2-0.1,0.3-0.3,0.3c-0.2,0-0.2-0.1-0.3-0.2c0-0.2,0.1-0.3,0.3-0.3C29.5,12.1,29.6,12.2,29.6,12.4
	z"></path>
<path class="st1" d="M38.4,6.5c0,0.2-0.1,0.3-0.3,0.3c-0.2,0-0.3-0.1-0.2-0.3c0-0.1,0-0.1,0.1-0.2c0.1-0.1,0.1-0.1,0.2-0.1
	C38.3,6.2,38.4,6.3,38.4,6.5z"></path>
<path class="st1" d="M48.2,2.5c0,0.1-0.1,0.2-0.2,0.2c-0.1,0-0.2-0.1-0.2-0.2c0-0.2,0.1-0.2,0.3-0.2C48.1,2.3,48.2,2.4,48.2,2.5z"></path>
<g>
	<path class="st1" d="M67.2,22.9c-0.4-0.5-0.9-0.8-1.6-1c-0.6-0.2-1.4-0.3-2.2-0.3c-1.7,0-3.3,0.2-4.8,0.7c-1.5,0.5-2.6,1-3.5,1.7
		c-0.4,0.2-0.8,0.6-1.2,1c-0.5,0.5-0.8,0.9-1.1,1.2c-0.1,0.2-0.3,0.4-0.4,0.7c-0.1,0.2-0.3,0.5-0.4,0.8c-0.1,0.3-0.3,0.5-0.4,0.8
		c-0.2,0.2-0.3,0.4-0.6,0.5c-0.4,0.1-0.8,0.2-1.3,0.2s-1,0-1.4,0c-1.4,0.1-2.8,0.2-4.1,0.4c-1.3,0.2-2.6,0.4-3.9,0.7
		c-1.3,0.3-2.7,0.8-4,1.3c-1.3,0.5-2.5,1.1-3.4,1.9c-0.5,0.4-1.1,0.8-1.6,1.2c-0.5,0.4-1,0.8-1.5,1.4c-0.7,0.7-1.2,1.4-1.7,2.2
		c-0.5,0.8-0.9,1.7-1.1,2.8c-0.1,0.2-0.1,0.4-0.1,0.6c0,0.2,0,0.5,0,0.7c0,0.4,0,0.8,0.1,1.2c0,0.4,0.1,0.7,0.2,1.1
		c0.4,1.5,1.1,2.6,2.3,3.4c1.2,0.8,2.6,1.3,4.2,1.5c0.3,0,0.7,0.1,1.1,0.1c0.4,0,0.8,0.1,1.1,0.2c0.3,0.2,0.5,0.4,0.6,0.7
		c0.1,0.3,0.2,0.7,0.2,1c0,0.4,0.1,0.7,0.2,1.1c0.3,1,0.8,1.9,1.5,2.5c0.7,0.7,1.5,1.1,2.5,1.4c1,0.3,2,0.4,3,0.4
		c1.3,0,2.6-0.2,3.9-0.5c1.3-0.3,2.4-0.8,3.2-1.2c1.3-0.7,2.5-1.5,3.5-2.5c1.1-0.9,2-2,2.8-3.3c0.3-0.5,0.5-1,0.8-1.4
		c0.3-0.5,0.5-1,0.7-1.6c0.1-0.4,0.3-0.9,0.4-1.5c0.1-0.6,0.2-1.2,0.2-1.8v-0.3c0-0.1,0-0.2,0-0.3c-0.1-0.7-0.3-1.3-0.8-1.8
		c-0.4-0.5-1-0.9-1.6-1.1s-1.3-0.4-2-0.4c-1.4,0-2.6,0.3-3.8,1c-1.2,0.6-2.2,1.5-3,2.5c-0.8,1-1.4,2.2-1.8,3.4
		c0,0.1-0.1,0.3-0.2,0.7c-0.1,0.4-0.2,0.7-0.2,1.1c0,0.2,0,0.4,0.1,0.5c0.1,0.2,0.2,0.3,0.4,0.3h0.2c0.3,0,0.5-0.1,0.6-0.4
		c0.1-0.2,0.1-0.5,0.1-0.8v-0.2c0.1-1.4,0.5-2.6,1.1-3.7c0.6-1.1,1.5-2,2.5-2.6c1-0.6,2.2-1,3.4-1c0.9,0,1.5,0.3,2,0.8
		c0.5,0.5,0.7,1.3,0.7,2.2c0,0.6-0.1,1.2-0.2,1.8c-0.4,1.7-1,3.2-1.9,4.5c-0.8,1.2-1.8,2.4-3,3.4c-0.6,0.5-1.3,1-2.2,1.5
		c-0.8,0.5-1.7,0.9-2.6,1.2c-0.9,0.3-1.9,0.5-2.9,0.5c-1.2,0-2.3-0.3-3.3-0.8c-1-0.5-1.7-1.4-2-2.5c-0.1-0.2-0.1-0.5-0.2-1
		c0-0.4-0.1-0.8-0.1-1.2c0-0.1,0-0.3,0-0.4c0-0.1,0-0.2,0-0.3c0.1-0.4,0.3-0.7,0.7-0.8c0.4-0.1,0.7-0.3,1.1-0.5
		c0.4-0.2,0.8-0.4,1.1-0.6c0.1-0.1,0.3-0.2,0.4-0.3c0.1-0.1,0.2-0.3,0.2-0.4c0-0.1,0-0.2-0.1-0.2c-0.1,0-0.2-0.1-0.3-0.1
		c-0.2,0-0.4,0.1-0.5,0.2c-0.2,0.2-0.3,0.3-0.5,0.4c-0.2,0.1-0.4,0.3-0.6,0.4c-0.2,0.1-0.5,0.2-0.8,0.2c-0.2-0.2-0.3-0.4-0.3-0.7
		c0-0.2,0.1-0.5,0.2-0.8c0.1-0.3,0.2-0.5,0.3-0.7c0.1-0.4,0.3-0.7,0.4-1.1c0.1-0.4,0.3-0.7,0.4-1.1c0.1-0.2,0.2-0.4,0.4-0.5
		c0.2-0.2,0.3-0.4,0.4-0.6c0.3-0.5,0.7-1.1,1.1-1.6c0.4-0.6,0.8-1,1.2-1.5c0.3-0.3,0.6-0.6,0.9-0.9c0.3-0.3,0.6-0.6,1-0.8
		c0.2-0.1,0.4-0.2,0.5-0.3c0.2-0.1,0.4-0.2,0.6-0.3c0.2-0.1,0.4-0.2,0.6-0.4c0.2-0.1,0.4-0.2,0.6-0.3c1-0.5,2-1,3.2-1.4
		c1.2-0.4,2.5-0.7,3.8-0.8c0.2,0,0.5,0,0.8-0.1c0.4,0,0.7-0.1,1-0.2c0.3-0.1,0.5-0.3,0.5-0.5c0-0.1,0-0.2,0-0.2
		c-0.1-0.1-0.2-0.2-0.4-0.2c-0.1,0-0.3,0-0.4,0c-0.1,0-0.3,0-0.5,0h-0.1c0,0-0.1,0-0.1,0c-0.4,0-0.8-0.2-1.1-0.4
		c-0.3-0.2-0.5-0.5-0.7-0.8c-0.1-0.1-0.1-0.3-0.2-0.6c-0.1-0.3-0.1-0.5-0.1-0.8c0-0.1,0-0.2,0.1-0.4c0.1-0.3,0.4-0.5,0.9-0.5
		c0.5-0.1,1-0.2,1.5-0.2h0.1c0,0,0.1,0,0.1,0c0,0,0.1,0,0.1,0c1.2-0.1,2.4-0.2,3.5-0.2c1.2-0.1,2.3-0.3,3.3-0.5s1.9-0.7,2.7-1.3
		c0.8-0.6,1.4-1.5,1.8-2.6C67.8,24,67.5,23.4,67.2,22.9z M52.3,33.8c-0.2,0-0.4,0-0.6,0.1c-2.7,0.6-5,1.5-7,2.8
		c-0.2,0.2-0.5,0.3-0.7,0.5c-0.2,0.2-0.5,0.4-0.8,0.6c-0.7,0.5-1.4,1.1-2,1.8c-0.6,0.7-1.2,1.4-1.8,2.1c-0.3,0.5-0.7,1-1,1.6
		c-0.1,0.3-0.3,0.6-0.5,0.9c-0.2,0.3-0.3,0.5-0.4,0.8c-0.2,0.5-0.5,1.2-0.7,1.9c0,0,0,0,0,0.1c0,0,0,0,0,0c-0.1,0.3-0.2,0.7-0.3,1
		c-0.1,0.4-0.3,0.6-0.5,0.7c-0.2,0.1-0.4,0.1-0.6,0.1c-0.4,0-0.7,0-1.1-0.1c-0.4-0.1-0.7-0.2-1-0.3c0,0,0,0,0,0c0,0,0,0,0,0
		c-0.8-0.3-1.6-0.6-2.2-1.1c-0.6-0.5-1.1-1.1-1.5-1.8c-0.2-0.4-0.3-0.8-0.4-1.3c-0.1-0.5-0.1-1-0.1-1.5c0-0.5,0-0.9,0.1-1.4
		c0.1-0.4,0.2-0.8,0.3-1.2c0.1-0.2,0.1-0.3,0.3-0.5c0.1-0.2,0.2-0.3,0.3-0.5c0.1-0.2,0.2-0.3,0.2-0.5c0.1-0.2,0.2-0.4,0.2-0.5
		c0.4-0.7,0.9-1.3,1.5-1.9c0.6-0.6,1.3-1.1,1.9-1.6c2-1.5,4.4-2.5,7.2-3.2c2.8-0.7,5.8-1.2,9-1.3c0.2,0,0.3,0,0.4,0
		c0.1,0,0.3,0.1,0.5,0.2c0.1,0.5,0.2,1,0.3,1.4c0.1,0.5,0.3,0.8,0.7,1.2c0.1,0.1,0.3,0.2,0.4,0.3c0.1,0.1,0.2,0.2,0.2,0.3
		C52.7,33.6,52.5,33.8,52.3,33.8z M65.8,24.5c0,0.7-0.2,1.4-0.5,1.8c-0.3,0.5-0.8,0.8-1.3,1.1c-0.5,0.3-1.1,0.5-1.8,0.6
		c-0.6,0.1-1.3,0.3-1.9,0.4c-0.8,0.1-1.7,0.1-2.5,0.2c-0.9,0.1-1.7,0.1-2.5,0.1h-0.5c-0.2,0-0.3,0-0.5,0c0-0.2-0.1-0.3-0.1-0.5
		c0-0.4,0.1-0.7,0.3-1.1c0.2-0.3,0.5-0.7,0.7-1c0.2-0.4,0.5-0.7,0.8-1c0.3-0.3,0.6-0.6,1-0.9c0.7-0.5,1.6-0.9,2.7-1.3
		c1.1-0.4,2.1-0.6,3.2-0.6c0.8,0,1.5,0.1,2,0.4c0.6,0.3,0.9,0.7,1,1.3c0,0.1,0,0.1,0,0.2V24.5z"></path>
</g>
<g>
	<g transform="translate(43.489225, 58.909963)">
		<g>
			<path class="st1" d="M27.5,20.1c-1.2-1.1-1.7-2.8-1.7-5c0-2.5,0.8-5,2.4-7.6c0.9-1.5,2.1-2.7,3.6-3.6c1.5-0.9,3.2-1.4,5-1.4
				c0.8,0,1.6,0.1,2.6,0.4c1.8-2.9,3.2-5.1,4.4-6.4c1.1-1.3,2.1-2.3,2.9-3c1.9-1.5,3.7-2.2,5.6-2.2c0.4,0,0.6,0.2,0.6,0.6
				c-1.5,3.4-2.7,6.8-3.6,10.3c-0.8,3.5-1.5,6.8-1.9,10.1c-0.5,3.3-0.7,6.1-0.7,8.3c0,0.3-0.2,0.5-0.5,0.5c-0.8,0-1.2-0.9-1.2-2.8
				c0-2.4-0.2-4.5-0.7-6.5c-0.8-3.7-2.2-6.1-4.3-7.2c-0.3,0.5-0.8,1.4-1.5,2.8c-0.7,1.4-1.2,2.4-1.6,3.1c-0.3,0.6-0.8,1.5-1.5,2.7
				c-0.7,1.2-1.2,2.1-1.7,2.8c-1.1,1.7-2.3,3.2-3.7,4.4c0.2,0.1,0.5,0.1,0.8,0.1c2,0,3.6-0.7,4.9-2c1.3-1.3,2.2-2.8,2.7-4.6
				c0.1-0.3,0.3-0.4,0.6-0.4c0.2,0,0.3,0.1,0.2,0.3c-0.5,2-1.5,3.8-2.9,5.3c-1.4,1.5-3.3,2.3-5.4,2.3c-0.5,0-1.1-0.1-1.7-0.2
				c-2.2,1.8-4.5,2.6-6.9,2.6c-3.2,0-5.4-1.2-6.8-3.8c-0.7-1.3-1.1-2.8-1.1-4.3c0-0.8,0.1-1.7,0.3-2.6c0.6-2.4,1.7-4.2,3.4-5.2
				c0.9-0.5,1.8-0.8,2.9-0.8c0.3,0,0.6,0.1,0.8,0.3c0.2,0.2,0.4,0.5,0.5,0.9c-1.4,0-2.6,0.5-3.7,1.5c-1.9,1.6-2.8,3.9-2.8,6.9
				c0,1.8,0.5,3.2,1.6,4.2c1.1,1,2.6,1.5,4.4,1.5C23.8,22.6,25.6,21.8,27.5,20.1z M36.9,3.8c-2,0-3.8,0.6-5.3,1.9
				c-1.6,1.3-2.7,2.8-3.5,4.5C27.3,12,27,13.7,27,15.5c0,1.8,0.4,3.1,1.4,4c0.9-0.8,1.8-2,2.8-3.3c1-1.4,1.8-2.5,2.4-3.5
				c0.6-0.9,1.5-2.5,2.8-4.6C37.6,6,38.4,4.6,38.7,4C38.2,3.9,37.6,3.8,36.9,3.8z M50.6-7.3c-1.9,0.5-3.6,1.6-5.1,3.5
				c-1.5,1.8-3.1,4.3-4.8,7.3c2.3,1.2,3.9,3.7,4.8,7.5c0.4-4,1.1-7.7,2-11C48.5-3.4,49.5-5.8,50.6-7.3z"></path>
		</g>
	</g>
</g>
<g>
	<g transform="translate(50.082573, 39.444106)">
		<g>
			<path class="st1" d="M21.4,3c-1.3,0-2,0.8-2,2.4c0,0.4,0.1,0.9,0.2,1.4c0.5-0.4,0.9-0.8,1.2-1.1c0.3-0.3,0.7-0.7,1-1.2
				c0.7-0.9,1-1.9,1-3c0.2,0,0.3,0.1,0.4,0.2c0.1,0.1,0.1,0.3,0.1,0.6c0,0.2,0,0.5-0.1,0.8c-0.1,0.3-0.2,0.6-0.2,0.8
				c-0.1,0.2-0.2,0.5-0.5,0.8C22.3,5,22.1,5.2,22,5.3c-0.1,0.1-0.3,0.4-0.6,0.7c-0.8,0.7-1.2,1.1-1.3,1.2c-0.1,0.1-0.2,0.1-0.2,0.1
				c0,0,0,0-0.1,0.1c0,0-0.1,0-0.1,0c0.4,1.7,1.2,3.1,2.4,4.4c0.5-0.6,0.9-1.3,1.1-2.2c0.1-0.5,0.2-0.9,0.2-1.3c0-0.4,0-0.7-0.1-0.9
				c-0.2-0.6-0.4-0.9-0.9-0.9c0.1-0.2,0.2-0.4,0.5-0.4c0.4,0,0.7,0.3,0.8,1c0.1,0.2,0.1,0.6,0.1,1c0,0.4-0.1,0.9-0.2,1.5
				c-0.2,1-0.7,1.8-1.3,2.5c1.1,1.1,2.2,1.7,3.3,1.7c0.7,0,1.1-0.2,1.3-0.6c0.1-0.2,0.1-0.4,0-0.4c0,0,0,0-0.1,0
				c0-0.1,0-0.1,0.1-0.2c0.1-0.1,0.2-0.2,0.4-0.2c0.2,0,0.4,0.2,0.4,0.5c0,0.3-0.2,0.7-0.6,1c-0.4,0.3-1,0.5-1.7,0.5
				c-1.2,0-2.5-0.5-3.7-1.6c-0.8,0.6-1.6,0.9-2.5,0.9c-0.9,0-1.6-0.2-2.2-0.6c-0.6-0.4-0.9-1-0.9-1.7c0-0.7,0.2-1.3,0.6-1.9
				c0.4-0.6,1-1.2,1.8-1.9c-0.2-0.7-0.3-1.4-0.3-2c0-0.6,0.1-1.1,0.2-1.5C18.7,3.6,19,3.3,19.4,3c0.4-0.3,1-0.4,1.6-0.4
				c0.2,0,0.2,0,0.3,0.1C21.3,2.8,21.4,2.9,21.4,3z M19.2,13.2c0.8,0,1.6-0.2,2.3-0.8c-1.2-1.2-2-2.5-2.6-4.2
				c-1.2,1.1-1.8,2.1-1.8,3.1c0,0.6,0.2,1,0.6,1.3C18.1,13,18.6,13.2,19.2,13.2z"></path>
		</g>
	</g>
</g>
</svg><style>@media (prefers-color-scheme: light) { :root { filter: none; } }
@media (prefers-color-scheme: dark) { :root { filter: none; } }
</style></svg>