<svg xmlns="http://www.w3.org/2000/svg" viewBox="0 0 100 100">
  <circle cx="50" cy="50" r="48" fill="none" stroke="#b48a3f" stroke-width="1" />
  <circle cx="50" cy="50" r="44" fill="none" stroke="#b48a3f" stroke-width="0.5" />
  
  <!-- E letter -->
  <path d="M30,30 C35,40 35,60 30,70" fill="none" stroke="#b48a3f" stroke-width="2" />
  <path d="M30,30 L50,30" fill="none" stroke="#b48a3f" stroke-width="2" />
  <path d="M30,50 L45,50" fill="none" stroke="#b48a3f" stroke-width="2" />
  <path d="M30,70 L50,70" fill="none" stroke="#b48a3f" stroke-width="2" />
  
  <!-- & symbol -->
  <path d="M52,50 C52,50 55,45 55,42 C55,38 52,35 48,35 C44,35 40,38 40,45 C40,55 60,60 60,70 C60,75 55,75 50,70 C45,65 50,50 60,50 C65,50 70,55 70,60 C70,65 65,70 60,70" fill="none" stroke="#b48a3f" stroke-width="2" />
  
  <!-- A letter -->
  <path d="M72,70 L78,30 L84,70" fill="none" stroke="#b48a3f" stroke-width="2" />
  <path d="M75,55 L81,55" fill="none" stroke="#b48a3f" stroke-width="2" />
</svg> 