<svg xmlns="http://www.w3.org/2000/svg" version="1.1" viewBox="-5.0 -10.0 110.0 135.0">
	<g>
		<path d="m73.238 39.785c1.6211-3.2461 2.3281-6.8906 2.2266-9.9883-0.15625-4.5039-1.8555-8.0938-4.7031-10.219 2.5117-1.6172 3.7695-3.625 4.2617-5.6523 1.3984 0.24609 5.6016-2.0117 7.0156-4.0664 1.6211-2.3555 0.26953-3.9258-2.2969-2.0938-2.1992 1.5664-4.0898 2.1758-4.5898 2.3164-0.074219-0.48828-0.17578-0.96484-0.30469-1.418 1.2891-1.7969 3.2539-4.8125 2.1211-5.0859-1.3867-0.33594-3.0625 0.57422-3.6875 1.8281-0.36719-0.3125-0.87109-0.45312-1.375-0.35938-2.4609 0.46094-6.6836 3.0195-10.879 5.9375-11.383-7.0508-20.598-2.1328-23.676-0.015625-4.1914-2.9102-8.4062-5.4648-10.863-5.9258-0.46875-0.089844-0.93359 0.039062-1.293 0.3125-0.015624-0.11328-0.03125-0.23047-0.050781-0.33984-0.26953-1.5703-2.2969-2.8789-3.918-2.4883-1.25 0.30078 1.2695 3.9453 2.4922 5.5977-0.19141 0.57422-0.34766 1.1875-0.45312 1.832-0.78906-0.26562-2.3867-0.89844-4.1992-2.1914-2.5664-1.832-3.918-0.26172-2.2969 2.0938 1.3008 1.8906 4.9492 3.9453 6.6172 4.0742 0.5 2.0352 1.7734 4.0469 4.3008 5.6758-2.8281 2.1289-4.5117 5.7031-4.6641 10.188-0.10938 3.1914 0.64453 6.9609 2.3711 10.277-2.6992 2.5703-10.773 11.262-10.426 23.051 0.27734 9.332 5.7812 18.211 16.34 26.402-1.4141 1.4805-2.3867 3.3086-2.5938 5.1992-0.09375 0.86328 0.55078 1.6367 1.4414 1.7266 0.89844 0.078125 1.6875-0.53516 1.7812-1.3984 0.24609-2.2461 2.3359-4.4883 4.7305-5.3828l0.14453 5.7852c0.015625 0.85938 0.73828 1.543 1.6172 1.543h0.039062c0.89453 0 1.6016-0.75781 1.582-1.625l-0.14844-5.8594c2.2461 0.53516 3.8867 2.668 4.6914 6.2773 0.16406 0.73438 0.83594 1.2188 1.582 1.2188 0.11328 0 0.23047-0.023438 0.34375-0.050781 0.875-0.18359 1.4336-1.0234 1.2422-1.8711-0.21875-0.98047-0.48828-1.8555-0.79297-2.6367 0.55469 0.10156 1.1562 0.17188 1.8477 0.17188 0.88281 0 1.8789-0.10547 2.9805-0.36328-0.33203 0.82812-0.625 1.7617-0.86328 2.8203-0.19141 0.84766 0.36719 1.6875 1.2422 1.8672 0.11719 0.023437 0.23047 0.035156 0.34375 0.035156 0.74609 0 1.4219-0.50391 1.5859-1.2383 0.80469-3.6055 2.4688-5.7773 4.6953-6.3203l-0.15234 5.957c-0.023438 0.87109 0.6875 1.6172 1.582 1.6172h0.039062c0.87891 0 1.5977-0.55078 1.6211-1.4062l0.14844-5.8242c2.3945 0.89453 4.4805 3.0898 4.7227 5.3359 0.09375 0.86328 0.89062 1.4531 1.7852 1.375 0.89062-0.09375 1.5352-0.875 1.4414-1.7383-0.20703-1.8906-1.1797-3.7227-2.5938-5.2031 10.555-8.1914 16.07-17.082 16.371-26.438 0.38672-12.09-8.0273-20.957-10.527-23.316zm-4.8516-29.793c0.003906 1.2188-0.32422 3.3203-2.3906 4.5195-2.1367 1.2422-8.0234 3.8984-11.965 5.6406 4.6602-3.6758 10.293-7.8047 14.355-10.16zm-10.188 3c-3.9414 2.8789-7.4766 5.7148-9.0039 6.9648-1.543-1.2578-5.1172-4.1289-9.0938-7.0273 2.9648-1.8203 9.6562-4.6133 18.098 0.0625zm-22.043 1.0273c0.15234 0.16016 0.33594 0.28125 0.52734 0.36328 2.375 1.6914 4.8242 3.5391 7.082 5.3047-3.8711-1.7227-8.9609-4.0391-10.914-5.1758-1.9375-1.1289-2.3516-3.0117-2.3906-4.25 1.707 1.0156 3.6602 2.3125 5.6914 3.7422 0 0.007813 0.003906 0.011719 0.003906 0.015625zm-9.8984 15.883c0.14063-4.0898 1.7812-7.1562 4.5-8.4922 3.6055 2.1641 7.0547 4.6289 9.2109 6.6875-0.14453-0.011718-0.28516-0.042968-0.43359-0.042968-1.6016 0-3.0156 0.73828-3.9453 1.8633l-3.1484-1.793c-0.25781-0.14453-0.58984-0.0625-0.73828 0.1875-0.15234 0.25-0.066406 0.57031 0.19141 0.71875l3.1133 1.7734c-0.11719 0.23047-0.21094 0.46875-0.28906 0.71484l-2.3633 1.0352c-0.27344 0.11719-0.39453 0.42969-0.26953 0.69141 0.089843 0.19531 0.28516 0.30859 0.49219 0.30859 0.074219 0 0.14844-0.015626 0.22266-0.046876l1.6914-0.73828c-0.003907 0.066407-0.019532 0.12891-0.019532 0.19531 0 2.707 2.2734 4.9102 5.0664 4.9102 2.793 0 5.0664-2.2031 5.0664-4.9102 0-0.070313-0.019531-0.13672-0.019531-0.20312 0.51953-0.26172 0.87891-0.78125 0.87891-1.3867 0-5.2227-12.148-12.254-15.809-14.246-4.3945-2.6602-3.4453-6.6797-2.625-8.6367 0.67578 0.26953 1.4805 0.67187 2.3594 1.1602-0.070313 1.375 0.16406 4.1719 2.9102 5.7656 2.7891 1.6211 11.48 5.4492 14.684 6.8438 0.25781 0.21094 0.51953 0.42188 0.76172 0.62109 0.41797 0.34375 0.96094 0.44531 1.457 0.32031 0.49219 0.12109 1.0391 0.019531 1.457-0.32031 0.078125-0.066406 0.16406-0.13281 0.24219-0.19922 1.707-0.73828 12.488-5.4297 15.656-7.2695 2.9258-1.6992 3-4.7578 2.8945-6.0117 0.71094-0.38281 1.3555-0.69141 1.9219-0.91406 0.82422 1.9609 1.7812 5.9727-2.5586 8.6016-3.7266 2.0312-15.871 9.0586-15.871 14.281 0 0.65625 0.41797 1.2188 1.0078 1.4531-0.003906 0.046875-0.015625 0.09375-0.015625 0.14062 0 2.707 2.2422 4.9102 5.0352 4.9102 2.7852-0.003906 5.0273-2.207 5.0273-4.9141v-0.011719l1.2969 0.55469c0.074219 0.03125 0.16016 0.046875 0.23828 0.046875 0.20703 0 0.41016-0.11328 0.5-0.30859 0.12109-0.26563 0.007813-0.57422-0.26562-0.69141l-1.8906-0.82812c-0.10547-0.38672-0.25781-0.75391-0.45312-1.0977l2.8047-1.5977c0.25781-0.14844 0.34375-0.46875 0.19141-0.71875-0.15234-0.25391-0.48828-0.33203-0.74219-0.1875l-2.8711 1.6367c-0.92969-1.0391-2.2852-1.7109-3.8125-1.7109-0.19922 0-0.39062 0.035156-0.58594 0.058594 2.1602-2.0625 5.625-4.5391 9.2656-6.7266 2.7461 1.3242 4.4023 4.4062 4.5469 8.5195 0.17578 5.0938-2.2344 11.605-7.1836 14.199-3.8984 2.043-8.7344 1.2422-13.965-2.3242-0.042969-0.03125-0.089844-0.050782-0.13672-0.074219 2.6211-1.7461 2.6953-3.6992 2.6953-3.6992h-8.5781c0.054687 2 1.3789 2.8438 2.4844 3.707-0.042968 0.023438-0.089843 0.042969-0.12891 0.070313-5.2344 3.5664-10.062 4.3672-13.969 2.3242-4.9492-2.5898-7.3594-9.1055-7.1836-14.199zm15.098 3.0586c0 0.97266-0.81641 1.7656-1.8242 1.7656s-1.8242-0.79297-1.8242-1.7656c0-0.97266 0.82031-1.7656 1.8242-1.7656 1.0078 0 1.8242 0.79297 1.8242 1.7656zm17.637-1.7656c1.0078 0 1.8242 0.79297 1.8242 1.7656 0 0.97266-0.81641 1.7656-1.8242 1.7656-1.0078 0-1.8242-0.79297-1.8242-1.7656 0-0.97266 0.82031-1.7656 1.8242-1.7656zm-40.789 31.867c-0.30078-9.7812 6.1836-17.43 8.9453-20.23 0.50391 0.64844 1.0586 1.2617 1.6641 1.8281-0.57422 4.293-3.3828 29.223 6.5 42.168-0.48828 0.19141-0.96875 0.42578-1.4258 0.6875-10.137-7.7109-15.418-15.934-15.684-24.453zm35.051 26.551c-4.0273 1.543-6.5312 0.79688-7.6445 0.23047-2.1406-3.0977-4.9922-3.6914-6.7227-3.7148-9.2031-10.219-7.8008-32.156-7.0586-39.309 0.023437 0.011719 0.042969 0.027344 0.066406 0.039063 1.582 0.82812 3.6328 1.5 6.1328 1.5 3.0742 0 6.8242-1.0156 11.211-3.9961 4.3867 2.9805 8.1367 3.9961 11.211 3.9961 2.4961 0 4.5508-0.67188 6.1328-1.4961 0.09375-0.050781 0.17969-0.10938 0.26953-0.16016 0.73828 7.0312 2.2109 29.156-7.0469 39.43-1.6836 0.023438-4.4336 0.58984-6.5508 3.4805zm27.27-26.59c-0.28125 8.5469-5.5742 16.777-15.711 24.488-0.46094-0.26562-0.9375-0.49219-1.4258-0.6875 10.039-13.148 6.9766-38.668 6.4727-42.348 0.60547-0.58594 1.1641-1.2188 1.668-1.8906 2.6836 2.7227 9.3281 10.488 8.9961 20.438z" />
		<path d="m39.625 57.074c1.1133 0 2.2227-0.42578 3.3086-1.2656 1.668 0.94922 4.332 1.7031 6.4648 0.089844 2.1328 1.6133 4.7969 0.85937 6.4648-0.089844 1.0898 0.83984 2.1953 1.2656 3.3125 1.2656 0.17969 0 0.35938-0.011719 0.53906-0.035157 2.2891-0.28125 3.5977-2.3086 3.6484-2.3906 0.3125-0.49219 0.15234-1.1328-0.35156-1.4336-0.50781-0.30469-1.1719-0.15234-1.4883 0.33594-0.007813 0.011719-0.83984 1.2695-2.0938 1.4141-0.83203 0.097656-1.75-0.3125-2.7227-1.2266-0.38281-0.35547-0.98047-0.39062-1.4062-0.078125-0.3125 0.23047-2.9883 2.0938-4.832 0.35156-0.066406-0.17578-0.16406-0.34375-0.32812-0.46875-0.19141-0.14453-0.41797-0.20312-0.64453-0.20703-0.03125-0.003907-0.0625-0.003907-0.09375-0.007813-0.03125 0.003906-0.0625 0.003906-0.097656 0.007813-0.22656 0.003906-0.45313 0.0625-0.64453 0.20703-0.16406 0.125-0.26172 0.29297-0.32812 0.46875-1.8438 1.7422-4.5195-0.11719-4.832-0.34766-0.42188-0.31641-1.0234-0.28125-1.4102 0.078126-0.97266 0.91016-1.8828 1.3203-2.7227 1.2266-1.2461-0.14453-2.0742-1.3867-2.0938-1.4141-0.3125-0.48828-0.97656-0.64063-1.4844-0.33984-0.51172 0.30078-0.66797 0.94531-0.35547 1.4414 0.054687 0.085938 1.3594 2.1094 3.6484 2.3906 0.18359 0.015625 0.36328 0.027344 0.54297 0.027344z" />
		<path d="m41.516 65.691c1.3164 0 2.5703-0.53516 3.75-1.5781 0.78125 0.68359 2.0469 1.5195 3.6484 1.5742 0.054688 0.003906 0.11328 0.003906 0.16797 0.003906 1.3164 0 2.5703-0.53516 3.75-1.5781 0.78125 0.68359 2.0508 1.5195 3.6523 1.5742 0.054687 0.003906 0.10938 0.003906 0.16406 0.003906 1.6289 0 3.1719-0.80859 4.582-2.4023 0.39062-0.4375 0.33594-1.0977-0.11719-1.4766-0.44922-0.37891-1.1367-0.32812-1.5234 0.11328-1.0039 1.1367-1.9961 1.6953-3.0195 1.668-1.6172-0.050781-2.8516-1.6016-2.8633-1.6172-0.027343-0.03125-0.0625-0.046874-0.089843-0.074218-0.027344-0.027344-0.042969-0.066406-0.074219-0.089844-0.023438-0.019531-0.058594-0.027344-0.085938-0.046875-0.058593-0.039063-0.11719-0.070313-0.1875-0.10156-0.066406-0.027343-0.13281-0.054687-0.19922-0.066406-0.0625-0.015625-0.12109-0.019531-0.1875-0.019531-0.074218-0.003906-0.14453-0.003906-0.22266 0.007813-0.0625 0.011718-0.12109 0.027343-0.18359 0.050781-0.070312 0.023437-0.13672 0.054687-0.20312 0.089843-0.027344 0.019532-0.058594 0.019532-0.085938 0.039063-0.035156 0.023437-0.054688 0.0625-0.085938 0.089844-0.027343 0.027343-0.066406 0.039062-0.09375 0.070312-1.0078 1.1367-2.0117 1.7109-3.0195 1.668-1.6172-0.050781-2.8516-1.6016-2.8633-1.6172-0.023438-0.03125-0.0625-0.050781-0.089844-0.074218-0.027344-0.027344-0.039062-0.066406-0.070312-0.089844-0.023438-0.019531-0.058594-0.027344-0.085938-0.046875-0.058594-0.039063-0.12109-0.070313-0.1875-0.10156-0.066406-0.027343-0.12891-0.050781-0.19531-0.066406-0.0625-0.015625-0.125-0.019531-0.19141-0.019531-0.074219-0.003906-0.14453-0.003906-0.21484 0.007813-0.0625 0.011718-0.12109 0.027343-0.18359 0.050781-0.070312 0.023437-0.13672 0.054687-0.20312 0.089843-0.027344 0.019532-0.058594 0.019532-0.085937 0.039063-0.035157 0.023437-0.050782 0.0625-0.082032 0.089844-0.03125 0.027343-0.066406 0.039062-0.09375 0.070312-1.0078 1.1367-2.0039 1.7109-3.0195 1.668-1.6211-0.050781-2.8516-1.6016-2.8633-1.6172-0.35547-0.46094-1.0273-0.55469-1.5078-0.21484-0.48047 0.34375-0.57812 1.0039-0.22266 1.4648 0.074219 0.097657 1.8438 2.3633 4.5078 2.4531 0.070312 0.007812 0.125 0.011718 0.17969 0.011718z" />
		<path d="m56.352 70.305c-1.0078 1.1367-1.9844 1.7031-3.0195 1.668-1.6172-0.050781-2.8516-1.6016-2.8594-1.6172-0.027344-0.03125-0.0625-0.050781-0.089844-0.078125-0.027343-0.027344-0.039062-0.0625-0.070312-0.089844-0.027344-0.019531-0.058594-0.023438-0.085938-0.046875-0.0625-0.039063-0.12109-0.074219-0.1875-0.10547-0.0625-0.027344-0.125-0.050781-0.19141-0.066406s-0.13281-0.019531-0.19922-0.019531c-0.070313-0.003907-0.14063 0-0.20703 0.011719-0.066406 0.007812-0.12891 0.027343-0.19141 0.050781-0.070312 0.023437-0.13672 0.050781-0.19922 0.089843-0.027343 0.015626-0.058593 0.019532-0.085937 0.039063-0.035156 0.023437-0.050782 0.0625-0.082032 0.089844-0.03125 0.023437-0.066406 0.039062-0.09375 0.070312-1.0078 1.1367-2.0156 1.7266-3.0195 1.668-1.6172-0.050781-2.8516-1.6016-2.8633-1.6172-0.35547-0.46094-1.0312-0.55469-1.5078-0.21484-0.48047 0.34375-0.57813 1-0.22266 1.4648 0.074219 0.097657 1.8438 2.3633 4.5078 2.457 0.054687 0.003906 0.11328 0.003906 0.16797 0.003906 1.3164 0 2.5703-0.53516 3.75-1.5781 0.78125 0.68359 2.0508 1.5234 3.6484 1.5781 0.058594 0.003906 0.10938 0.003906 0.16797 0.003906 1.6289 0 3.168-0.80859 4.5781-2.4023 0.39062-0.4375 0.33594-1.1016-0.11719-1.4766-0.45703-0.375-1.1445-0.32422-1.5273 0.11719z" />
		<path d="m56.352 77.633c-1.0078 1.1367-1.9844 1.7031-3.0195 1.668-1.6172-0.046875-2.8516-1.6016-2.8594-1.6133-0.027344-0.03125-0.0625-0.050781-0.089844-0.078125-0.027343-0.027344-0.039062-0.0625-0.070312-0.089844-0.027344-0.019531-0.058594-0.027343-0.085938-0.046875-0.0625-0.042968-0.12109-0.074218-0.1875-0.10547-0.0625-0.027344-0.125-0.050782-0.19141-0.066407s-0.13281-0.019531-0.19922-0.023437c-0.070313-0.003906-0.14063 0-0.20703 0.011718-0.066406 0.011719-0.12891 0.027344-0.19141 0.050782-0.070312 0.023437-0.13672 0.050781-0.19922 0.089844-0.027343 0.015624-0.058593 0.019531-0.085937 0.039062-0.035156 0.023438-0.050782 0.058594-0.082032 0.085938-0.03125 0.027343-0.066406 0.039062-0.09375 0.070312-1.0078 1.1367-2.0156 1.7227-3.0195 1.668-1.6172-0.046875-2.8516-1.6016-2.8633-1.6133-0.35547-0.46094-1.0312-0.55859-1.5078-0.21484-0.48047 0.34375-0.57813 1-0.22266 1.4648 0.074219 0.097656 1.8438 2.3633 4.5078 2.4531 0.054687 0.003907 0.11328 0.003907 0.16797 0.003907 1.3164 0 2.5703-0.53516 3.75-1.5781 0.78125 0.68359 2.0508 1.5195 3.6484 1.5742 0.058594 0.003907 0.10938 0.003907 0.16797 0.003907 1.6289 0 3.168-0.80859 4.5781-2.4023 0.39062-0.4375 0.33594-1.1016-0.11719-1.4766-0.45703-0.36328-1.1445-0.31641-1.5273 0.125z" />
		<path d="m48.984 31.461s-4.1914 2.5391-4.293 5.5391h9.2344s-0.10156-3.3164-4.9414-5.5391z" />
		<path d="m22.008 57.527c0.089844-0.27344-0.066406-0.57031-0.35156-0.65625-0.28516-0.085938-0.58984 0.066406-0.67969 0.34375-0.1875 0.57422-1.1133 3.4922-0.91797 4.4492 0.050781 0.25 0.27734 0.42188 0.53125 0.42188 0.035156 0 0.070312-0.003907 0.10547-0.011719 0.29297-0.058594 0.48438-0.33203 0.42578-0.61719-0.097656-0.46484 0.375-2.3594 0.88672-3.9297z" />
		<path d="m25.637 65.75c0-1.625-0.71094-4.0547-0.74219-4.1562-0.082031-0.27734-0.38281-0.44141-0.66797-0.35938-0.28516 0.078125-0.45312 0.36719-0.37109 0.64453 0.007812 0.023438 0.69922 2.3945 0.69922 3.8711 0 0.28906 0.24219 0.52344 0.53906 0.52344 0.30078 0 0.54297-0.23438 0.54297-0.52344z" />
		<path d="m22.75 65.867c-0.03125-0.28516-0.30469-0.49219-0.59766-0.46484-0.29688 0.03125-0.51172 0.29297-0.47656 0.57812 0.015625 0.13281 0.38672 3.293 1.3594 4.6094 0.10547 0.14453 0.26953 0.21875 0.44141 0.21875 0.10938 0 0.21875-0.03125 0.3125-0.097656 0.24219-0.17188 0.30078-0.49609 0.125-0.73047-0.67187-0.90625-1.0703-3.2773-1.1641-4.1133z" />
		<path d="m27.973 75.086c0.19531-1.1445-1.1992-4.2305-1.4805-4.8398-0.12109-0.26562-0.44531-0.38672-0.71484-0.26172-0.27344 0.11719-0.39453 0.42969-0.26953 0.69141 0.64453 1.3906 1.5078 3.625 1.4023 4.2383-0.050781 0.28516 0.14844 0.55469 0.44531 0.60156 0.03125 0.007813 0.058593 0.007813 0.089843 0.007813 0.25391 0 0.48047-0.17969 0.52734-0.4375z" />
		<path d="m25.254 54.566c0.078125 0 0.15625-0.015625 0.23438-0.050781 0.26562-0.11328 0.37891-0.42578 0.27344-0.6875-0.15625-0.39062 0.082031-2.5898 0.40625-4.3945 0.050781-0.28516-0.14453-0.55469-0.44141-0.60547-0.29297-0.046875-0.57422 0.14062-0.625 0.42578-0.22656 1.2578-0.71094 4.2695-0.3125 5.0352 0.09375 0.17969 0.27344 0.27734 0.46484 0.27734z" />
		<path d="m28.672 78.148c-0.09375-0.27344-0.39844-0.42578-0.68359-0.33203-0.28125 0.09375-0.4375 0.39062-0.34375 0.66406 0.14453 0.41406 0.51172 1.6328 0.51172 2.2773 0 0.28906 0.24219 0.52344 0.53906 0.52344 0.30078 0 0.53906-0.23438 0.53906-0.52344 0.003906-0.94531-0.53906-2.543-0.5625-2.6094z" />
		<path d="m77.883 61.461c-0.058593 0.28125 0.13281 0.55859 0.42578 0.61328 0.035156 0.007812 0.070312 0.011719 0.10547 0.011719 0.25391 0 0.47656-0.17188 0.52734-0.42188 0.19531-0.95703-0.73047-3.8711-0.91797-4.4453-0.089844-0.27734-0.39063-0.42578-0.67578-0.34375-0.28516 0.085938-0.44141 0.38281-0.35547 0.65625 0.51562 1.5664 0.98437 3.4648 0.89062 3.9297z" />
		<path d="m74.109 61.59c-0.03125 0.10156-0.74219 2.5312-0.74219 4.1562 0 0.28906 0.24219 0.52344 0.54297 0.52344 0.29688 0 0.53906-0.23438 0.53906-0.52344 0-1.4766 0.69531-3.8477 0.70312-3.8711 0.082031-0.27734-0.085938-0.56641-0.37109-0.64453-0.29688-0.085938-0.59375 0.082031-0.67188 0.35938z" />
		<path d="m75.215 70.715c0.097656 0.066406 0.20312 0.097656 0.31641 0.097656 0.16797 0 0.33594-0.074219 0.4375-0.21875 0.97266-1.3164 1.3477-4.4766 1.3594-4.6094 0.03125-0.28516-0.17969-0.54688-0.47656-0.57812-0.3125-0.03125-0.56641 0.17578-0.59766 0.46484-0.097656 0.83594-0.49219 3.207-1.1641 4.1172-0.17578 0.23047-0.11719 0.55469 0.125 0.72656z" />
		<path d="m71.031 75.086c0.042969 0.25781 0.27344 0.4375 0.53125 0.4375 0.027344 0 0.058594-0.003907 0.089844-0.007813 0.29688-0.046875 0.49219-0.31641 0.44531-0.60156-0.10547-0.61328 0.75781-2.8477 1.4023-4.2383 0.12109-0.26562 0-0.57422-0.27344-0.69141-0.26953-0.11719-0.59375-0.003906-0.71484 0.26172-0.28125 0.60938-1.6758 3.6914-1.4805 4.8398z" />
		<path d="m73.242 53.82c-0.13281 0.25781-0.023438 0.57422 0.23828 0.70313 0.078125 0.039062 0.16016 0.054687 0.24219 0.054687 0.19531 0 0.38672-0.10547 0.48438-0.28906 0.39844-0.76953-0.085937-3.7773-0.3125-5.0391-0.050781-0.28516-0.33984-0.47266-0.625-0.42578-0.29297 0.050781-0.49219 0.32031-0.4375 0.60547 0.32812 1.8125 0.56641 4.0078 0.41016 4.3906z" />
		<path d="m71.016 77.816c-0.28125-0.089844-0.58984 0.058594-0.68359 0.33203-0.019531 0.066406-0.56641 1.6641-0.56641 2.6094 0 0.28906 0.24219 0.52344 0.53906 0.52344 0.30078 0 0.53906-0.23438 0.53906-0.52344 0-0.64453 0.37109-1.8633 0.51172-2.2773 0.097656-0.27734-0.054688-0.57031-0.33984-0.66406z" />
		<path d="m50.684 26.57c0 1.5117-2.3438 1.5117-2.3438 0 0-1.5117 2.3438-1.5117 2.3438 0" />
	</g>
</svg>
