<svg xmlns="http://www.w3.org/2000/svg" xmlns:xlink="http://www.w3.org/1999/xlink" version="1.1" x="0px" y="0px" viewBox="0 0 100 125" enable-background="new 0 0 100 100" xml:space="preserve">
	<g>
		<path d="M78.84,74.7c-1.321,0-1.836,1.291-2.01,1.729l-2.806,7.713c-0.157,0.475-0.164,0.668-0.164,0.997   c0,1.155,0.955,1.76,1.899,1.76c1.318,0,1.835-1.29,2.01-1.729l2.805-7.713c0.157-0.475,0.165-0.669,0.165-0.998   C80.739,75.305,79.784,74.7,78.84,74.7z" />
		<path d="M23.164,76.415C22.995,75.991,22.48,74.7,21.16,74.7c-0.944,0-1.9,0.604-1.9,1.76c0,0.329,0.008,0.523,0.171,1.011   l2.805,7.715c0.17,0.424,0.687,1.714,2.005,1.714c0.944,0,1.9-0.604,1.9-1.76c0-0.329-0.008-0.523-0.171-1.011L23.164,76.415z" />
		<path d="M46.3,57c0-4.206-3.294-7.5-7.5-7.5c-4.205,0-7.5,3.294-7.5,7.5s3.295,7.5,7.5,7.5C43.006,64.5,46.3,61.206,46.3,57z    M38.8,53.3c2.109,0,3.7,1.591,3.7,3.7s-1.591,3.7-3.7,3.7s-3.699-1.591-3.699-3.7S36.69,53.3,38.8,53.3z" />
		<path d="M50,4.7C32.741,4.7,18.7,18.741,18.7,36v14c0,10.973,4.862,23.112,7.767,30.365l0.249,0.62   C29.07,86.872,42.78,95.3,50,95.3s20.929-8.428,23.283-14.314l0.245-0.611C76.435,73.12,81.3,60.978,81.3,50V36   C81.3,18.741,67.259,4.7,50,4.7z M50,10.3c-0.563,0-0.9-0.336-0.9-0.9c0-0.564,0.337-0.9,0.9-0.9s0.9,0.336,0.9,0.9   C50.9,9.964,50.563,10.3,50,10.3z M75.7,50V36c0-12.266-9.062-23.026-21.188-25.3c0.125-0.379,0.188-0.814,0.188-1.3   c0-0.135,0-0.313-0.017-0.515C67.739,11.138,77.499,22.67,77.499,36v14c0,9.652-4.188,20.325-6.69,26.701   c-0.317,0.81-0.606,1.546-0.854,2.198h-1.843C73.217,66.612,75.7,57.153,75.7,50z M45.316,8.885C45.3,9.086,45.3,9.265,45.3,9.4   c0,0.432,0.049,0.854,0.148,1.281C33.16,12.925,24.3,23.485,24.3,36v14c0,9.861,5.021,22.783,7.462,28.899h-1.716   c-0.248-0.652-0.537-1.389-0.855-2.199C26.688,70.324,22.5,59.651,22.5,50V36C22.5,22.649,32.26,11.116,45.316,8.885z    M56.044,78.899C55.846,78.055,55.143,77.5,54.2,77.5h-8.4c-0.942,0-1.646,0.555-1.844,1.399H35.91   C33.601,73.471,29.5,61.563,29.5,57c0-5.215,4.085-9.3,9.3-9.3c5.128,0,9.3,4.172,9.3,9.3c0,5.215-4.085,9.3-9.3,9.3   c-1.118,0-1.899,0.781-1.899,1.9s0.781,1.9,1.899,1.9c4.579,0,8.793-2.363,11.2-6.223c2.406,3.859,6.621,6.223,11.2,6.223   c1.118,0,1.899-0.781,1.899-1.9s-0.781-1.9-1.899-1.9c-5.215,0-9.3-4.085-9.3-9.3s4.085-9.3,9.3-9.3c5.214,0,9.299,4.085,9.299,9.3   c0,4.87-4.515,17.158-6.417,21.899H56.044z M71.899,49.472c-2.444-3.476-6.4-5.572-10.699-5.572c-4.605,0-8.819,2.407-11.2,6.338   c-2.381-3.931-6.595-6.338-11.2-6.338c-4.299,0-8.255,2.096-10.699,5.572V36c0-12.28,9.619-21.9,21.899-21.9   S71.899,23.72,71.899,36V49.472z M43.956,82.7c0.197,0.845,0.9,1.4,1.844,1.4h8.4c0.943,0,1.646-0.556,1.844-1.4h11.39   C62.98,86.979,54.161,91.5,50,91.5s-12.98-4.521-17.434-8.8H43.956z" />
		<path d="M61.2,49.5c-4.206,0-7.5,3.294-7.5,7.5s3.294,7.5,7.5,7.5s7.5-3.294,7.5-7.5S65.406,49.5,61.2,49.5z M61.2,60.7   c-2.109,0-3.7-1.591-3.7-3.7s1.591-3.7,3.7-3.7s3.699,1.591,3.699,3.7S63.31,60.7,61.2,60.7z" />
		<path d="M61.2,55.101c-1.119,0-1.9,0.781-1.9,1.899s0.781,1.899,1.9,1.899c1.118,0,1.899-0.781,1.899-1.899   S62.318,55.101,61.2,55.101z" />
		<path d="M55.457,71.004l-3.937-2.627C51.053,68.06,50.522,67.7,50,67.7c-0.521,0-1.051,0.359-1.518,0.676l-3.939,2.628   c-0.577,0.385-0.783,0.974-0.783,1.396c0,1.395,1.053,1.9,1.761,1.9c0.576,0,0.965-0.217,1.654-0.63L50,72.001l2.822,1.667   c0.693,0.415,1.081,0.632,1.657,0.632c0.707,0,1.76-0.506,1.76-1.9C56.239,71.978,56.034,71.389,55.457,71.004z" />
		<path d="M38.8,58.899c1.119,0,1.9-0.781,1.9-1.899s-0.781-1.899-1.9-1.899c-1.118,0-1.899,0.781-1.899,1.899   S37.682,58.899,38.8,58.899z" />
	</g>
</svg>
