<svg xmlns="http://www.w3.org/2000/svg" version="1.1" viewBox="-5.0 -10.0 110.0 135.0">
 <path d="m82.445 34.855h6.5977c0.050781 0 0.097656-0.003907 0.14844-0.011719 0.007813 0 0.015625-0.003906 0.023438-0.003906 0.046875-0.007813 0.09375-0.019532 0.13672-0.035156 0.007813-0.003907 0.015626-0.007813 0.023438-0.007813 0.046875-0.015625 0.089844-0.035156 0.13281-0.0625 0.003907-0.003906 0.011719-0.007813 0.015626-0.011719 0.046874-0.027344 0.089843-0.054687 0.12891-0.089844l0.003906-0.003906c0.007812-0.007812 0.015625-0.011718 0.019531-0.019531 0.015625-0.015625 0.03125-0.027344 0.046875-0.042969 0.011719-0.011718 0.019532-0.023437 0.03125-0.035156 0.011719-0.011719 0.019532-0.023438 0.03125-0.035156 0.011719-0.011719 0.019532-0.027344 0.03125-0.039063 0.007813-0.011719 0.015625-0.023437 0.023438-0.035156 0.007812-0.015625 0.015625-0.027344 0.027344-0.042969 0.007812-0.011718 0.015624-0.023437 0.023437-0.039062s0.011719-0.027344 0.019531-0.039063c0.007813-0.015625 0.015625-0.027343 0.019532-0.042969 0.003906-0.011718 0.011718-0.027343 0.015624-0.039062 0.007813-0.015625 0.011719-0.03125 0.015626-0.050781 0.003906-0.011719 0.007812-0.027344 0.011718-0.039063 0.003906-0.015625 0.007813-0.035156 0.011719-0.050781s0.003906-0.027344 0.007813-0.042969c0.003906-0.015625 0.003906-0.03125 0.007812-0.050781s0.003906-0.035156 0.003906-0.054687c0-0.011719 0.003906-0.023438 0.003906-0.035157v-0.003906c0-0.023437-0.003906-0.046875-0.003906-0.070313v-0.027343c-0.003906-0.027344-0.007812-0.054688-0.011718-0.082031-0.003907-0.015626-0.007813-0.035157-0.011719-0.050782-0.003907-0.015625-0.007813-0.03125-0.011719-0.050781-0.003906-0.015625-0.011719-0.035156-0.019531-0.050781-0.003907-0.011719-0.007813-0.023438-0.015625-0.035156-0.011719-0.023438-0.023438-0.050782-0.035156-0.070313-0.003907-0.003906-0.003907-0.007813-0.007813-0.011719-0.015625-0.027344-0.03125-0.054687-0.050781-0.082031-0.003906-0.007813-0.007813-0.011719-0.011719-0.019531-0.015625-0.019532-0.027344-0.039063-0.042969-0.058594l-0.003906-0.003906c-1.7148-2.0391-2.6562-4.6797-2.6562-7.4375 0-2.7578 0.94141-5.3984 2.6562-7.4336l0.003906-0.003906c0.015625-0.019532 0.03125-0.039063 0.042969-0.058594 0.003906-0.007812 0.007813-0.011719 0.011719-0.019531 0.019531-0.027344 0.035156-0.054688 0.050781-0.082031 0.003906-0.003907 0.003906-0.007813 0.007813-0.011719 0.011718-0.023438 0.023437-0.046875 0.035156-0.070313 0.003906-0.011718 0.007812-0.023437 0.015625-0.035156 0.007812-0.015625 0.011719-0.035156 0.019531-0.050781 0.003906-0.015625 0.007812-0.03125 0.011719-0.050781 0.003906-0.015626 0.007812-0.035157 0.011719-0.050782 0.003906-0.027344 0.011718-0.054687 0.011718-0.082031v-0.027344c0.003906-0.023437 0.003906-0.046875 0.003906-0.070312v-0.003907c0-0.011718 0-0.023437-0.003906-0.035156 0-0.019531 0-0.035156-0.003906-0.054687-0.003906-0.015625-0.003906-0.03125-0.007812-0.050781-0.003907-0.015626-0.003907-0.027344-0.007813-0.042969-0.003906-0.019531-0.007813-0.035157-0.011719-0.050781-0.003906-0.011719-0.007812-0.027344-0.011718-0.039063-0.003907-0.015625-0.011719-0.03125-0.015626-0.050781-0.003906-0.011719-0.007812-0.027344-0.015624-0.039063-0.007813-0.015625-0.011719-0.027343-0.019532-0.042969-0.007812-0.015624-0.011718-0.027343-0.019531-0.039062s-0.015625-0.027344-0.023437-0.039062c-0.007813-0.015626-0.015626-0.027344-0.027344-0.042969-0.007813-0.011719-0.015625-0.023438-0.023438-0.035157-0.011718-0.015624-0.019531-0.027343-0.03125-0.039062-0.011718-0.011719-0.019531-0.023438-0.03125-0.035156-0.011718-0.011719-0.019531-0.023438-0.03125-0.035156-0.015625-0.015626-0.03125-0.027344-0.046875-0.042969-0.007812-0.007813-0.015625-0.011719-0.019531-0.019531 0 0-0.003906 0-0.003906-0.003907-0.019532-0.015625-0.039063-0.03125-0.058594-0.042969-0.007812-0.003906-0.011719-0.007812-0.019531-0.011718-0.023438-0.015625-0.046875-0.03125-0.070313-0.042969-0.019531-0.011719-0.035156-0.019531-0.054687-0.027344-0.011719-0.007812-0.027344-0.011719-0.039063-0.019531-0.019531-0.007812-0.039062-0.015625-0.058594-0.023438-0.007812-0.003906-0.019531-0.007812-0.027343-0.011718-0.027344-0.007813-0.058594-0.015625-0.085938-0.023438h-0.003906c-0.03125-0.007812-0.0625-0.011718-0.09375-0.015625h-0.019531c-0.023438-0.003906-0.050782-0.003906-0.074219-0.003906h-0.003906l-62.98 0.019531c-4.9648 0-9.0078 4.0391-9.0078 9.0078 0 2.8789 1.3594 5.4453 3.4688 7.0938h-1.5156c-4.9648 0-9.0078 4.0391-9.0078 9.0078s4.0391 9.0078 9.0078 9.0078h1.5156c-2.1094 1.6484-3.4688 4.2148-3.4688 7.0938s1.3594 5.4453 3.4688 7.0938h-1.5156c-4.9648 0-9.0078 4.0391-9.0078 9.0078 0 4.9648 4.0391 9.0078 9.0078 9.0078h62.98c0.050781 0 0.097657-0.003907 0.14844-0.011719 0.007812 0 0.015625-0.003906 0.023437-0.003906 0.046875-0.007813 0.09375-0.019532 0.13672-0.035156 0.007813-0.003907 0.015625-0.007813 0.023437-0.007813 0.046876-0.015625 0.089844-0.035156 0.13281-0.0625 0.003906-0.003906 0.011719-0.007813 0.015625-0.011719 0.046875-0.027344 0.089844-0.054687 0.12891-0.089844l0.003906-0.003906c0.007813-0.007812 0.015626-0.011718 0.019532-0.019531 0.015625-0.015625 0.03125-0.027344 0.046875-0.042969 0.011719-0.011718 0.019531-0.023437 0.03125-0.035156s0.019531-0.023438 0.03125-0.035156c0.011719-0.011719 0.019531-0.027344 0.03125-0.039063 0.007812-0.011719 0.015625-0.023437 0.023437-0.035156 0.007813-0.015625 0.015625-0.027344 0.027344-0.042969 0.007812-0.011718 0.015625-0.023437 0.023438-0.039062 0.007812-0.015625 0.011718-0.027344 0.019531-0.039063 0.007812-0.015625 0.015625-0.027343 0.019531-0.042969 0.003906-0.011718 0.011719-0.027343 0.015625-0.039062 0.007813-0.015625 0.011719-0.03125 0.015625-0.050781 0.003906-0.011719 0.007812-0.027344 0.011719-0.039063 0.003906-0.015625 0.007812-0.035156 0.011719-0.050781 0.003906-0.015625 0.003906-0.027344 0.007812-0.042969s0.003906-0.03125 0.007812-0.050781c0.003907-0.019531 0.003907-0.035156 0.003907-0.054687 0-0.011719 0.003906-0.023438 0.003906-0.035157v-0.003906c0-0.023437-0.003906-0.046875-0.003906-0.070313v-0.027343c-0.003907-0.027344-0.007813-0.054688-0.011719-0.082031-0.003906-0.015626-0.007812-0.035157-0.011719-0.050782-0.003906-0.015625-0.007812-0.03125-0.011719-0.050781-0.003906-0.015625-0.011718-0.035156-0.019531-0.050781-0.003906-0.011719-0.007812-0.023438-0.015625-0.035156-0.011718-0.023438-0.023437-0.050782-0.035156-0.070313-0.003906-0.003906-0.003906-0.007813-0.007812-0.011719-0.015626-0.027344-0.03125-0.054687-0.050782-0.082031-0.003906-0.007813-0.007812-0.011719-0.011718-0.019531-0.015626-0.019532-0.027344-0.039063-0.042969-0.058594l-0.003907-0.003906c-1.7148-2.0391-2.6562-4.6797-2.6562-7.4336 0-2.6055 0.84375-5.1094 2.3828-7.0938h6.5977c0.050781 0 0.097657-0.003906 0.14844-0.011719 0.007812 0 0.015625-0.003906 0.023437-0.003906 0.046875-0.007813 0.09375-0.019531 0.13672-0.035156 0.007813-0.003907 0.015625-0.007813 0.023437-0.007813 0.046876-0.015625 0.089844-0.035156 0.13281-0.0625 0.007813-0.003906 0.011719-0.007812 0.015625-0.011718 0.046875-0.027344 0.089844-0.054688 0.12891-0.089844 0 0 0.003906 0 0.003906-0.003906 0.011719-0.007813 0.019532-0.015626 0.027344-0.023438 0.011719-0.011719 0.027344-0.023438 0.039063-0.035156 0.011719-0.011719 0.023437-0.023438 0.035156-0.039063 0.007813-0.011719 0.019531-0.019531 0.027344-0.03125 0.011719-0.015625 0.023437-0.027343 0.03125-0.042969 0.007812-0.011718 0.015625-0.019531 0.023437-0.03125 0.011719-0.015624 0.019532-0.03125 0.027344-0.046874 0.007812-0.011719 0.015625-0.023438 0.019531-0.035157 0.007813-0.015625 0.015625-0.027343 0.019531-0.042969 0.007813-0.015624 0.011719-0.027343 0.019532-0.042968 0.007812-0.015625 0.011718-0.027344 0.015625-0.039063 0.007812-0.015625 0.011719-0.03125 0.015625-0.046875 0.003906-0.011718 0.007812-0.027344 0.011718-0.039062 0.003907-0.015625 0.007813-0.03125 0.011719-0.050782 0.003907-0.015624 0.003907-0.03125 0.007813-0.042968 0.003906-0.015625 0.003906-0.03125 0.007812-0.046875 0.003906-0.019531 0.003906-0.039063 0.003906-0.054688 0-0.011719 0.003907-0.023437 0.003907-0.03125v-0.003906c0-0.023437-0.003907-0.046875-0.003907-0.070313v-0.023437c-0.003906-0.03125-0.007812-0.058594-0.011718-0.089844-0.003906-0.015625-0.007813-0.027343-0.011719-0.042969-0.003906-0.015624-0.007813-0.035156-0.011719-0.050781s-0.011718-0.035156-0.019531-0.050781c-0.003906-0.011719-0.007813-0.023438-0.015625-0.035156-0.011719-0.023438-0.019531-0.046875-0.03125-0.066406-0.003906-0.003907-0.003906-0.011719-0.007812-0.015626-0.015626-0.027343-0.03125-0.054687-0.050782-0.082031-0.003906-0.007812-0.007812-0.011719-0.011718-0.019531-0.015626-0.019531-0.027344-0.039062-0.042969-0.058594l-0.003907-0.003906c-1.7148-2.0391-2.6562-4.6797-2.6562-7.4336 0-2.7578 0.94141-5.3984 2.6562-7.4336l0.003907-0.003906c0.015625-0.019531 0.03125-0.039062 0.042969-0.058594 0.003906-0.007812 0.007812-0.011718 0.011718-0.019531 0.019532-0.027343 0.035156-0.054687 0.050782-0.082031 0.003906-0.003906 0.003906-0.007812 0.007812-0.011719 0.011719-0.023437 0.023438-0.046875 0.035156-0.070312 0.003906-0.011719 0.007813-0.023438 0.015625-0.035157 0.007813-0.015624 0.011719-0.035156 0.019531-0.050781 0.003907-0.015625 0.007813-0.03125 0.011719-0.050781 0.003907-0.015625 0.007813-0.035156 0.011719-0.050781 0.003906-0.027344 0.011719-0.054688 0.011719-0.082031v-0.027344c0.003906-0.023438 0.003906-0.046875 0.003906-0.070313v-0.003906c0-0.011719 0-0.023437-0.003906-0.035156 0-0.019531 0-0.035157-0.003907-0.054688-0.003906-0.015625-0.003906-0.03125-0.007812-0.050781-0.003906-0.015625-0.003906-0.027344-0.007812-0.042969-0.003907-0.019531-0.007813-0.035156-0.011719-0.050781-0.003907-0.011719-0.007813-0.027344-0.011719-0.039062-0.003906-0.015626-0.011719-0.03125-0.015625-0.050782-0.003906-0.011718-0.007813-0.027344-0.015625-0.039062-0.007812-0.015625-0.011719-0.027344-0.019531-0.042969-0.007813-0.015625-0.011719-0.027344-0.019531-0.039063-0.007813-0.011718-0.015626-0.027343-0.023438-0.039062-0.007812-0.015625-0.015625-0.027344-0.027344-0.042969-0.007812-0.011719-0.015625-0.023437-0.023437-0.035156-0.011719-0.015625-0.019531-0.027344-0.03125-0.039063-0.011719-0.011718-0.019531-0.023437-0.03125-0.035156-0.011719-0.011718-0.019531-0.023437-0.03125-0.035156-0.015625-0.015625-0.03125-0.027344-0.046875-0.042969-0.007813-0.007812-0.015625-0.011719-0.019532-0.019531 0 0-0.003906 0-0.003906-0.003906-0.019531-0.015625-0.039062-0.03125-0.058594-0.042969-0.007812-0.003906-0.011718-0.007813-0.019531-0.011719-0.023437-0.015625-0.046875-0.03125-0.070312-0.042968-0.019531-0.011719-0.035157-0.019532-0.054688-0.027344-0.011719-0.007813-0.027343-0.011719-0.039062-0.019532-0.019531-0.007812-0.042969-0.015624-0.0625-0.023437-0.007813-0.003906-0.015625-0.007813-0.023438-0.007813-0.0625-0.019531-0.12109-0.03125-0.18359-0.039062h-0.015626c-0.027343-0.003906-0.050781-0.003906-0.078124-0.003906h-0.003907-6.5977c-1.5391-1.9883-2.3828-4.4883-2.3828-7.0938 0-2.6055 0.84375-5.1094 2.3828-7.0938zm-4.2578 6.1367h-30.555v-6.1367h32.496c-1.1211 1.832-1.7891 3.9414-1.9414 6.1367zm-37.199 7.5547c-0.32812-0.23047-0.76562-0.23047-1.0977 0l-4.7344 3.3086v-17.004h10.562v17.004l-4.7344-3.3086zm-22.02-22.699c0-3.9102 3.1836-7.0938 7.0938-7.0938h61.121c-1.1211 1.832-1.7891 3.9414-1.9414 6.1367h-57.625c-0.52734 0-0.95703 0.42969-0.95703 0.95703s0.42969 0.95703 0.95703 0.95703h57.625c0.15234 2.1992 0.82031 4.3047 1.9414 6.1367h-61.121c-3.9102 0-7.0938-3.1836-7.0938-7.0938zm0.039062 23.195c-3.9102 0-7.0938-3.1836-7.0938-7.0938 0-3.9102 3.1836-7.0938 7.0938-7.0938h14.238v6.1367h-12.684c-0.52734 0-0.95703 0.42969-0.95703 0.95703 0 0.52734 0.42969 0.95703 0.95703 0.95703h12.684v6.1367zm59.18 24.152h-57.625c-0.52734 0-0.95703 0.42969-0.95703 0.95703s0.42969 0.95703 0.95703 0.95703h57.629c0.15234 2.1992 0.82031 4.3047 1.9414 6.1367h-61.125c-3.9102 0-7.0938-3.1836-7.0938-7.0938s3.1836-7.0938 7.0938-7.0938h61.121c-1.1211 1.832-1.7891 3.9414-1.9414 6.1367zm7.0547-16.102h-57.625c-0.52734 0-0.95703 0.42969-0.95703 0.95703 0 0.52734 0.42969 0.95703 0.95703 0.95703h57.625c0.15234 2.1992 0.82031 4.3047 1.9414 6.1367h-61.121c-3.9102 0-7.0938-3.1836-7.0938-7.0938 0-3.9102 3.1836-7.0938 7.0938-7.0938h7.1836v2.7383 0.007813c0 0.023437 0.003906 0.042969 0.003906 0.066406 0 0.011719 0 0.019531 0.003906 0.03125 0.003906 0.019531 0.007813 0.042969 0.011719 0.0625 0.003906 0.011719 0.003906 0.019531 0.003906 0.03125 0.003907 0.015625 0.007813 0.035157 0.011719 0.050781 0.003906 0.011719 0.007812 0.027344 0.011719 0.039063 0.003906 0.011719 0.007812 0.023437 0.011719 0.035156 0.007812 0.019531 0.011718 0.035157 0.019531 0.050781 0.003906 0.007813 0.007812 0.015626 0.011719 0.027344 0.007812 0.019532 0.019531 0.039063 0.027343 0.058594 0.003907 0.007812 0.011719 0.015625 0.015625 0.023438 0.011719 0.019531 0.023438 0.039062 0.035156 0.058593 0 0.003907 0.003907 0.003907 0.003907 0.003907 0.007812 0.007812 0.011719 0.015624 0.019531 0.023437 0.011719 0.015625 0.023438 0.03125 0.035156 0.046875 0.011719 0.011719 0.019532 0.023438 0.03125 0.035156 0.011719 0.011719 0.019532 0.023438 0.03125 0.03125 0.011719 0.011719 0.023438 0.023438 0.039063 0.035156 0.011719 0.007813 0.019531 0.019532 0.03125 0.027344 0.015625 0.011719 0.027343 0.019532 0.042969 0.03125 0.011718 0.007813 0.023437 0.015625 0.035156 0.023438 0.015625 0.007812 0.027344 0.015625 0.042968 0.023437 0.011719 0.007813 0.027344 0.015625 0.039063 0.023438 0.011719 0.007812 0.027344 0.011719 0.039063 0.019531 0.015624 0.007812 0.03125 0.015625 0.046874 0.019531 0.011719 0.003907 0.023438 0.007813 0.035157 0.011719 0.015625 0.007812 0.035156 0.011719 0.054687 0.015625 0.011719 0.003906 0.023438 0.007813 0.035156 0.007813 0.019532 0.003906 0.035157 0.007812 0.054688 0.011718 0.015625 0.003906 0.027344 0.003906 0.039062 0.007813 0.015626 0.003906 0.03125 0.003906 0.050782 0.007812 0.015625 0.003907 0.035156 0.003907 0.050781 0.003907 0.011719 0 0.023437 0.003906 0.03125 0.003906h0.007813c0.019531 0 0.039062-0.003906 0.058593-0.003906 0.011719 0 0.023438 0 0.035157-0.003907 0.019531-0.003906 0.039062-0.007812 0.058593-0.007812 0.011719-0.003907 0.023438-0.003907 0.035157-0.007813 0.015624-0.003906 0.03125-0.007812 0.050781-0.011718 0.015625-0.003907 0.027343-0.007813 0.042969-0.011719 0.011718-0.003907 0.023437-0.007813 0.035156-0.015625 0.015625-0.007813 0.035156-0.011719 0.050781-0.019532 0.011719-0.003906 0.019531-0.011718 0.03125-0.015624 0.019531-0.007813 0.035156-0.015626 0.054687-0.027344 0.011719-0.007813 0.019532-0.011719 0.027344-0.019532 0.015625-0.011718 0.035156-0.019531 0.050782-0.03125 0.003906 0 0.003906-0.003906 0.007812-0.003906l5.6914-3.9805 5.6914 3.9805 0.003907 0.003906c0.035156 0.023438 0.074219 0.046876 0.11328 0.066407 0.007812 0.003906 0.015625 0.007812 0.023438 0.011719 0.039062 0.019531 0.078124 0.035156 0.12109 0.046874h0.003907c0.039062 0.011719 0.078124 0.019532 0.12109 0.027344 0.011719 0.003906 0.023438 0.003906 0.035157 0.003906 0.039062 0.003907 0.078124 0.007813 0.12109 0.007813h0.003907 0.003906c0.035156 0 0.070312-0.003906 0.10156-0.007813 0.007813 0 0.019532-0.003906 0.027344-0.003906 0.027344-0.003906 0.054688-0.007812 0.078125-0.015625 0.011719-0.003906 0.019531-0.003906 0.03125-0.007812 0.023437-0.007813 0.050781-0.015625 0.074219-0.023438 0.011718-0.003906 0.019531-0.007812 0.03125-0.011719 0.023437-0.007812 0.046875-0.019531 0.066406-0.03125 0.011719-0.003906 0.019531-0.007812 0.03125-0.015624 0.027344-0.015626 0.050781-0.027344 0.074219-0.046876 0.007812-0.003906 0.011719-0.007812 0.019531-0.011718 0.027344-0.019532 0.054688-0.039063 0.078125-0.058594 0.011719-0.007812 0.019531-0.015625 0.027344-0.027344 0.015625-0.015625 0.035156-0.03125 0.050781-0.050781 0.007812-0.007813 0.015625-0.019531 0.023438-0.027344 0.019531-0.019531 0.035156-0.042969 0.054687-0.066406 0.003906-0.003906 0.007813-0.007813 0.011719-0.015625 0-0.003906 0.003906-0.003906 0.003906-0.003906 0.011719-0.019532 0.023438-0.039063 0.035156-0.058594 0.003906-0.007812 0.011719-0.015625 0.015625-0.023438 0.011719-0.019531 0.019531-0.039062 0.027344-0.058593 0.003906-0.007813 0.007813-0.015625 0.011719-0.027344 0.007812-0.015625 0.011718-0.035156 0.019531-0.050781 0.003906-0.011719 0.007813-0.023438 0.011719-0.035156 0.003906-0.011719 0.007812-0.027344 0.011718-0.039063 0.003907-0.015625 0.011719-0.035156 0.011719-0.050781 0.003907-0.011719 0.003907-0.019532 0.003907-0.03125 0.003906-0.019532 0.007812-0.042969 0.011718-0.0625 0-0.011719 0-0.019532 0.003906-0.03125 0.003907-0.023438 0.003907-0.042969 0.003907-0.066406v-0.007813-2.7383h39.551c-1.1211 1.832-1.7891 3.9414-1.9414 6.1367zm-5.1133-8.0508h-32.496v-6.1367h30.555c0.15234 2.1992 0.82031 4.3047 1.9414 6.1367z"/>
<text x="0.0" y="117.5" font-size="5.0" font-weight="bold" font-family="Arbeit Regular, Helvetica, Arial-Unicode, Arial, Sans-serif" fill="#000000">Created by Nuruuulll _23</text><text x="0.0" y="122.5" font-size="5.0" font-weight="bold" font-family="Arbeit Regular, Helvetica, Arial-Unicode, Arial, Sans-serif" fill="#000000">from Noun Project</text></svg>