<svg xmlns="http://www.w3.org/2000/svg" xmlns:xlink="http://www.w3.org/1999/xlink" version="1.1" x="0px" y="0px" viewBox="0 0 2000 2500" style="enable-background:new 0 0 2000 2000;" xml:space="preserve">
	<path d="M1986.9,822.3H1911c-3.8,0-6.9-3-7-6.7l-31.1-715.4c-0.3-7-6.1-12.5-13.1-12.5h-96.4c-7,0-12.8,5.5-13.1,12.5L1719,823.3  c-0.1,2.6-1.6,4.8-3.9,6l-73.9,37c-4.4,2.2-7.2,6.7-7.2,11.7V921c0,2.2-1.1,4.3-2.8,5.6c-1.2,0.9-2.7,1.4-4.2,1.4  c-0.7,0-1.4-0.1-2-0.3l-269.2-80.9c-2-0.6-3.6-2-4.4-3.9c-30-67-78.3-123.8-139.7-164.5c-63-41.7-136.2-63.7-211.9-63.7  s-148.9,22-211.9,63.7C726.4,719.1,678.1,776,648.1,843c-0.8,1.9-2.4,3.3-4.4,3.9l-269.2,80.7c-0.7,0.2-1.3,0.3-2,0.3  c-1.5,0-3-0.5-4.2-1.4c-1.8-1.3-2.8-3.4-2.8-5.6v-43.1c0-4.9-2.8-9.5-7.2-11.7l-73.9-37c-2.3-1.1-3.8-3.4-3.9-6l-31.5-723  c-0.3-7-6.1-12.5-13.1-12.5h-96.4c-7,0-12.8,5.5-13.1,12.5L95.3,815.6c-0.2,3.8-3.3,6.7-7,6.7H13.1c-7.2,0-13.1,5.9-13.1,13.1v329.3  c0,7.2,5.9,13.1,13.1,13.1h75.2c3.8,0,6.9,3,7,6.7l31.1,715.4c0.3,7,6.1,12.5,13.1,12.5h96.4c7,0,12.8-5.5,13.1-12.5l31.4-723.2  c0.1-2.6,1.6-4.8,3.9-6l73.9-37c4.4-2.2,7.2-6.7,7.2-11.7V1079c0-2.2,1.1-4.3,2.8-5.6c1.2-0.9,2.7-1.4,4.2-1.4c0.7,0,1.4,0.1,2,0.3  l269.2,80.7c2,0.6,3.6,2,4.4,3.9c30,67,78.3,123.8,139.7,164.5c63,41.7,136.2,63.7,211.9,63.7c75.6,0,148.9-22,211.9-63.7  c61.4-40.6,109.7-97.5,139.7-164.5c0.8-1.9,2.4-3.3,4.4-3.9l269.3-80.8c0.7-0.2,1.3-0.3,2-0.3c1.5,0,3,0.5,4.2,1.4  c1.8,1.3,2.8,3.4,2.8,5.6v43.1c0,4.9,2.8,9.5,7.2,11.7l73.9,37c2.3,1.1,3.8,3.4,3.9,6l31.4,723.2c0.3,7,6.1,12.5,13.1,12.5h96.4  c7,0,12.8-5.5,13.1-12.5l31.1-715.4c0.2-3.8,3.3-6.7,7-6.7h75.9c7.2,0,13.1-5.9,13.1-13.1V835.4  C2000,828.1,1994.1,822.3,1986.9,822.3z M93.3,1124.3c0.1,1.9-0.6,3.8-1.9,5.2c-1.3,1.4-3.2,2.2-5.1,2.2H53.7c-3.9,0-7-3.2-7-7  V875.4c0-3.9,3.2-7,7-7h32.6c1.9,0,3.8,0.8,5.1,2.2c1.3,1.4,2,3.3,1.9,5.2l-5.4,123.8c0,0.4,0,0.8,0,1.1L93.3,1124.3z M205.1,1859.6  c-0.2,3.8-3.3,6.7-7,6.7h-19.7c-3.8,0-6.9-3-7-6.7l-36.1-829.2c-0.1-1.9,0.6-3.8,1.9-5.2c1.3-1.4,3.2-2.2,5.1-2.2h91.9  c1.9,0,3.8,0.8,5.1,2.2c1.3,1.4,2,3.3,1.9,5.2L205.1,1859.6z M239.3,974.8c-1.3,1.4-3.2,2.2-5.1,2.2h-91.9c-1.9,0-3.8-0.8-5.1-2.2  c-1.3-1.4-2-3.3-1.9-5.2l36.1-829.2c0.2-3.8,3.3-6.7,7-6.7h19.7c3.8,0,6.9,3,7,6.7l36.1,829.2C241.3,971.5,240.6,973.4,239.3,974.8z   M319.9,1097.4c0,2.7-1.5,5.1-3.9,6.3l-21.9,11c-1,0.5-2.1,0.7-3.1,0.7c-1.4,0-2.7-0.4-3.8-1.1c-2.1-1.4-3.3-3.7-3.2-6.2l4.7-107.5  c0-0.4,0-0.8,0-1.1L284,892c-0.1-2.5,1.1-4.9,3.2-6.2c1.1-0.7,2.5-1.1,3.8-1.1c1.1,0,2.2,0.2,3.1,0.7l21.9,11  c2.4,1.2,3.9,3.6,3.9,6.3V1097.4z M474.5,1044.6c0,2.2-1.1,4.3-2.8,5.6c-1.2,0.9-2.7,1.4-4.2,1.4c-0.7,0-1.4-0.1-2-0.3L371,1023  c-3-0.9-5-3.6-5-6.7v-32.6c0-3.1,2-5.8,5-6.7l94.5-28.3c0.7-0.2,1.3-0.3,2-0.3c1.5,0,3,0.5,4.2,1.4c1.8,1.3,2.8,3.4,2.8,5.6V1044.6z   M623.4,1095.1c-1.3,1.2-3,1.9-4.8,1.9c-0.7,0-1.4-0.1-2-0.3l-90.9-27.3c-3-0.9-5-3.6-5-6.7v-32.6c0-3.9,3.2-7,7-7h81.6  c3.7,0,6.7,2.9,7,6.5c1.4,19.2,4.5,39,9.1,58.8C626,1090.8,625.2,1093.4,623.4,1095.1z M625.4,911.7c-4.6,19.8-7.7,39.6-9.1,58.7  c-0.3,3.7-3.4,6.5-7,6.5h-81.6c-3.9,0-7-3.2-7-7v-32.6c0-3.1,2-5.8,5-6.7l90.9-27.2c0.7-0.2,1.3-0.3,2-0.3c1.8,0,3.5,0.7,4.8,1.9  C625.2,906.7,626,909.3,625.4,911.7z M746.8,1221c-0.1,0-0.2,0-0.3,0c-2-0.1-3.8-1-5.1-2.5c-25.4-29.9-45.1-63.7-58.8-100.2  c-14.2-37.8-21.3-77.7-21.3-118.3c0-40.3,7.1-79.8,21-117.4c13.4-36.2,32.9-69.8,57.8-99.7c1.3-1.5,3.1-2.4,5.1-2.5  c0.1,0,0.2,0,0.3,0c1.4,0,2.6,0.4,3.8,1.1l14.9,14.9c8.2,8.2,22.1,7.6,31.1-1.4c9-9,9.7-22.9,1.5-31l-5.3-5.3l0.1-0.2l-8.5-8.4  c-1.4-1.4-2.2-3.3-2.1-5.3c0.1-2,1-3.8,2.5-5.1c29.8-24.8,63.3-44.2,99.5-57.6c37.5-13.9,76.9-20.9,117.2-20.9l0.4,0  c39.9,0,79,6.9,116.2,20.6c35.9,13.2,69.2,32.3,98.9,56.8c1.5,1.3,2.5,3.1,2.5,5.1c0.1,2-0.7,3.9-2.1,5.3l-67.2,67.2  c-1.3,1.3-3.1,2.1-5,2.1c-1.1,0-2.7-0.3-4.3-1.4c-19.7-15-41.4-26.7-64.6-34.7c-24.1-8.3-49.3-12.5-74.9-12.5  c-25.8,0-51.2,4.3-75.4,12.7c-23.4,8.1-45.2,20-65,35.3c-1.6,1.2-3.2,1.5-4.3,1.5c-1.6,0-3.1-0.5-4.3-1.5l-3.5-3.5  c-8.2-8.2-22.1-7.5-31,1.5c-9,9-9.7,22.9-1.5,31l3.8,3.8l-0.2,0.2c1.6,2.5,1.5,5.7-0.4,8.1c-15.5,19.9-27.5,41.9-35.8,65.4  c-8.6,24.4-12.9,49.9-12.9,76c0,26.3,4.4,52.1,13.2,76.7c8.4,23.7,20.7,45.9,36.4,65.9c2.2,2.8,2,6.8-0.5,9.3l-66.9,67.1  C750.5,1220.3,748.7,1221,746.8,1221z M977.2,881.5c0.3,3.4-1.9,6.7-5.3,7.5c-10.3,2.6-20.1,6.7-29.1,12c-1.1,0.6-2.3,1-3.6,1  c-1.9,0-3.6-0.7-5-2l-40.6-40.2c-1.5-1.5-2.2-3.5-2.1-5.6c0.2-2.1,1.3-4,3-5.2c22.7-15.8,47.7-26.1,74.3-30.6  c0.4-0.1,0.8-0.1,1.2-0.1c1.7,0,3.3,0.6,4.5,1.7c1.6,1.3,2.5,3.3,2.5,5.4v54.9C977.2,880.6,977.2,881.1,977.2,881.5z M901.3,932.1  c2.3,2.3,2.7,5.9,1,8.7c-5.9,9.7-10.3,20-13,30.8c-0.8,3.1-3.6,5.3-6.8,5.3h-57c-2.1,0-4-0.9-5.4-2.5c-1.3-1.6-1.9-3.7-1.6-5.7  c4.7-27.4,15.4-52.9,31.7-75.8c1.2-1.7,3.1-2.8,5.1-2.9c0.2,0,0.4,0,0.6,0c1.9,0,3.6,0.7,5,2L901.3,932.1z M820.1,1025.5  c1.3-1.6,3.3-2.5,5.4-2.5h57c3.2,0,6,2.2,6.8,5.3c2.9,11.1,7.4,21.8,13.6,31.9c1.7,2.8,1.3,6.3-1,8.6l-40.2,40.2  c-1.3,1.3-3.1,2.1-5,2.1c-0.2,0-0.4,0-0.6,0c-2.1-0.2-3.9-1.2-5.1-2.9c-16.6-23-27.5-48.9-32.4-76.9  C818.2,1029.2,818.8,1027.1,820.1,1025.5z M894.9,1141.1l40.4-40.4c1.3-1.3,3.1-2.1,5-2.1c1.2,0,2.4,0.3,3.5,0.9  c8.8,5.1,18.3,8.9,28.2,11.4c3.1,0.8,5.3,3.6,5.3,6.8v57c0,2.1-0.9,4-2.5,5.4c-1.3,1.1-2.9,1.7-4.5,1.7c-0.4,0-0.8,0-1.2-0.1  c-26.5-4.5-51.1-14.6-73.2-29.9c-1.7-1.2-2.8-3.1-3-5.2C892.7,1144.6,893.4,1142.5,894.9,1141.1z M931.9,1000  c0-37.7,30.7-68.4,68.4-68.4s68.4,30.7,68.4,68.4c0,37.7-30.7,68.4-68.4,68.4S931.9,1037.7,931.9,1000z M1023.3,882.2v-57  c0-2.1,0.9-4,2.5-5.4c1.3-1.1,2.9-1.7,4.5-1.7c0.4,0,0.8,0,1.2,0.1c26.6,4.5,51.3,14.7,73.5,30.1c1.7,1.2,2.8,3.1,3,5.2  c0.2,2.1-0.6,4.1-2,5.6l-40.4,40.4c-1.3,1.3-3.1,2.1-5,2.1c-1.2,0-2.5-0.3-3.5-1c-8.7-5.1-18.3-9-28.5-11.6  C1025.5,888.2,1023.3,885.4,1023.3,882.2z M1023.3,1117.8c0-3.2,2.2-6,5.3-6.8c9.5-2.4,18.8-6.1,27.6-11.1c1-0.6,2.2-0.9,3.4-0.9  c1.9,0,3.7,0.7,5,2.1l40.5,40.5c1.5,1.5,2.2,3.5,2,5.6c-0.2,2.1-1.3,4-3,5.2c-22,15-46.4,24.9-72.6,29.5c-0.4,0.1-0.8,0.1-1.2,0.1  c-1.7,0-3.3-0.6-4.5-1.7c-1.6-1.3-2.5-3.3-2.5-5.4V1117.8z M1098.2,1069.4c-2.3-2.3-2.7-5.9-1-8.7c6.3-9.9,11-20.8,13.9-32.3  c0.8-3.1,3.6-5.3,6.8-5.3h57c2.1,0,4,0.9,5.4,2.5c1.3,1.6,1.9,3.7,1.6,5.7c-4.8,28.2-15.9,54.3-32.9,77.5c-1.2,1.7-3.1,2.7-5.1,2.9  c-0.2,0-0.4,0-0.5,0c-1.9,0-3.7-0.8-5-2.1L1098.2,1069.4z M1180.4,974.5c-1.3,1.6-3.3,2.5-5.4,2.5h-57c-3.2,0-6-2.2-6.8-5.3  c-2.8-10.9-7.3-21.5-13.4-31.5c-1.7-2.8-1.3-6.4,1-8.7l40.2-40.2c1.3-1.3,3.1-2.1,5-2.1c0.2,0,0.4,0,0.6,0c2.1,0.2,3.9,1.2,5.1,2.9  c16.5,22.7,27.6,49.2,32.3,76.6C1182.3,970.8,1181.7,972.9,1180.4,974.5z M1318,1118.7c-12.9,34.5-31.3,66.5-54.7,95.2l0,0l0,0  c-1.4,1.8-2.9,3.5-4.4,5.3c-1,1.2-2.3,2-3.8,2.3l-2.6,2.4l-4.3-4.3c-8.2-8.2-22.1-7.5-31,1.5c-9,9-9.7,22.9-1.5,31l3.1,3.1l-1.3,1.2  c0,0.3,0,0.5,0,0.8c-0.1,2-1,3.8-2.6,5.1c-29.7,24.3-62.9,43.3-98.7,56.4c-37.1,13.5-76.1,20.4-115.9,20.4  c-39.9,0-79.1-6.9-116.3-20.6c-35.9-13.2-69.2-32.3-99-56.7c-1.5-1.3-2.5-3.1-2.6-5.1c-0.1-2,0.7-3.9,2.1-5.3l67.2-67.2  c1.3-1.3,3.1-2.1,5-2.1c1.1,0,2.7,0.2,4.3,1.4c19.6,14.9,41.4,26.6,64.6,34.6c24,8.3,49.1,12.5,74.7,12.5  c50.4,0,98.4-16.1,138.7-46.5c1.6-1.2,3.2-1.4,4.2-1.4c0.3,0,0.5,0,0.8,0l1-1.2l19,19c8.2,8.2,22.1,7.6,31.1-1.4  c9-9,9.7-22.9,1.5-31l-21.3-21.3l7.5-8.6l1.1,1c14.4-18.9,25.7-39.7,33.6-62c8.8-24.7,13.3-50.6,13.3-77.1c0-26.2-4.4-52-13.1-76.6  c-8.4-23.7-20.6-45.8-36.2-65.7c-2.2-2.8-2-6.8,0.6-9.3l67.1-67.1c1.3-1.3,3.1-2.1,5-2.1c0.1,0,0.2,0,0.3,0c2,0.1,3.8,1,5.1,2.5  c25.3,30,45,63.6,58.6,100.1c14.1,37.8,21.3,77.6,21.3,118.2C1339.4,1040.8,1332.2,1080.7,1318,1118.7z M1479.9,1062.7  c0,3.1-2,5.8-5,6.7l-90.9,27.2c-0.7,0.2-1.3,0.3-2,0.3c-1.8,0-3.5-0.7-4.8-1.9c-1.8-1.7-2.6-4.3-2-6.7c4.5-19.3,7.5-39.1,9.1-58.9  c0.3-3.6,3.4-6.5,7-6.5h81.6c3.9,0,7,3.2,7,7V1062.7z M1479.9,969.9c0,3.9-3.2,7-7,7h-81.6c-3.6,0-6.7-2.8-7-6.5  c-1.6-19.8-4.6-39.6-9.1-58.9c-0.6-2.4,0.2-5,2-6.7c1.3-1.2,3-1.9,4.8-1.9c0.7,0,1.4,0.1,2,0.3l90.9,27.2c3,0.9,5,3.6,5,6.7V969.9z   M1634.5,1016.2c0,3.1-2,5.8-5,6.7l-94.5,28.4c-0.7,0.2-1.3,0.3-2,0.3c-1.5,0-3-0.5-4.2-1.4c-1.8-1.3-2.8-3.4-2.8-5.6v-89.4  c0-2.2,1.1-4.3,2.8-5.6c1.2-0.9,2.7-1.4,4.2-1.4c0.7,0,1.4,0.1,2,0.3l94.5,28.3c3,0.9,5,3.6,5,6.7V1016.2z M1716.6,1108  c0.1,2.5-1.1,4.9-3.2,6.2c-1.1,0.7-2.5,1.1-3.8,1.1c-1.1,0-2.2-0.2-3.1-0.7l-21.9-11c-2.4-1.2-3.9-3.6-3.9-6.3V902.6  c0-2.7,1.5-5.1,3.9-6.3l21.9-11c1-0.5,2.1-0.7,3.1-0.7c1.4,0,2.7,0.4,3.8,1.1c2.1,1.4,3.3,3.7,3.2,6.2l-4.7,107.5c0,0.4,0,0.8,0,1.1  L1716.6,1108z M1829.2,1859.6c-0.2,3.8-3.3,6.7-7,6.7h-19.7c-3.8,0-6.9-3-7-6.7l-36.1-829.2c-0.1-1.9,0.6-3.8,1.9-5.2  c1.3-1.4,3.2-2.2,5.1-2.2h91.9c1.9,0,3.8,0.8,5.1,2.2c1.3,1.4,2,3.3,1.9,5.2L1829.2,1859.6z M1863.4,974.8c-1.3,1.4-3.2,2.2-5.1,2.2  h-91.9c-1.9,0-3.8-0.8-5.1-2.2c-1.3-1.4-2-3.3-1.9-5.2l36.1-829.2c0.2-3.8,3.3-6.7,7-6.7h19.7c3.8,0,6.9,3,7,6.7l36.1,829.2  C1865.4,971.5,1864.7,973.4,1863.4,974.8z M1954,1124.6c0,3.9-3.2,7-7,7h-33.2c-1.9,0-3.8-0.8-5.1-2.2c-1.3-1.4-2-3.3-1.9-5.2  l5.4-123.8c0-0.4,0-0.8,0-1.1l-5.4-123.8c-0.1-1.9,0.6-3.8,1.9-5.2c1.3-1.4,3.2-2.2,5.1-2.2h33.2c3.9,0,7,3.2,7,7V1124.6z" />
</svg>
