<svg xmlns="http://www.w3.org/2000/svg" data-name="Layer 1" viewBox="0 0 5 6.25" x="0px" y="0px">
	<title>
		witchcraft
	</title>
	<path d="M2.91944,1.35492l-.05453-.03673L2.8618,1.29091c-.00781-.0099-.019-.01006-.03023-.01771a.289.289,0,0,0-.10028-.11581.2867.2867,0,0,0-.05275-.06975.04244.04244,0,0,1,.01313-.0368.05123.05123,0,0,1,.03794.00024l.0032.00407.00688.03285.00981.02092.02724.02156.01319.02786.01.00829c.01628.01161.03257.02323.04914.03442a.06243.06243,0,0,0,.01976.01037.07889.07889,0,0,1,.03875.02168.07655.07655,0,0,0,.01812.01038.11186.11186,0,0,0,.05439-.008l.04934-.03818.01974.00228L3.13257,1.147a.03317.03317,0,0,0,.00123-.03028L3.119,1.078,3.13119.97846C3.139.97007,3.14593.9789,3.153.97758L3.17624.97535,3.19206.9897a.15689.15689,0,0,1-.0064.07289c.00289.02732.025.03893.03622.058a.13532.13532,0,0,0,.03089.0046.23555.23555,0,0,1,.0849.013c.02536.007.05024.01583.07513.02445.00943.00327.01828.0082.02582.01164l.01708.01687.02829.01009a.331.331,0,0,1,.0174.02972.29636.29636,0,0,1,.01056.03049.03683.03683,0,0,0,.026.011l.00443-.00871-.00278-.04136a.14.14,0,0,0-.03778-.05521c-.01823-.0172-.035-.03593-.0529-.0535a.4128.4128,0,0,0-.03829-.03591.2057.2057,0,0,1-.0352-.03884A.16507.16507,0,0,0,3.341,1.00457.10509.10509,0,0,1,3.31983.98342c-.01-.01279-.01866-.02664-.02841-.03966A.20367.20367,0,0,0,3.26037.9062.107.107,0,0,1,3.24615.88794.13409.13409,0,0,1,3.22137.88219a.04582.04582,0,0,0-.04325.00293.15685.15685,0,0,1-.05355.01619C3.09622.90623,3.06836.914,3.04034.92077c-.00852.00206-.01679.0054-.0254.0068a.23827.23827,0,0,1-.02615.00154A.26285.26285,0,0,1,2.913.949c-.01988.00172-.03967.0033-.05974.00359a.57455.57455,0,0,0-.086.00913.309.309,0,0,0-.11016.04649l-.03359.02094-.011.01522c-.00991.00764-.02547.0112-.0336.02568-.0032.00572-.01217.00819-.02068.0135a.10274.10274,0,0,1-.01031.01692c-.03619.04171-.065.08918-.10159.13048a.64573.64573,0,0,0-.04547.05966c-.01285.01841-.02351.03836-.036.059l.00269.02111c-.00472.01963-.02328.02868-.03684.04783a.16758.16758,0,0,1-.04068.061c-.01624.02064-.03033.04283-.04719.06291a.27976.27976,0,0,1-.02321.0245.60811.60811,0,0,1-.06832.05845.07733.07733,0,0,0-.02.01689c-.0118.01671-.02893.0277-.042.04285L2.073,1.68857c-.01521.01207-.02831.02376-.04268.03361a.10405.10405,0,0,0-.04415.07136.41335.41335,0,0,1-.02474.09444.15884.15884,0,0,0-.00691.03352c-.03067.04991-.03067.04991-.04249.053L1.90928,1.964a.43421.43421,0,0,1,.00683-.06734.149.149,0,0,0,.00355-.05242.44874.44874,0,0,1-.00142-.0902c.00069-.00869.0001-.01749.0001-.02744a.28341.28341,0,0,0,.03274-.04924.16215.16215,0,0,1,.03259-.04092l.01076-.01052.06493-.0881a.08124.08124,0,0,0,.02885-.022.10915.10915,0,0,1,.03117-.02691l.00816-.00769c.01838-.02214.03762-.04351.05693-.06486.021-.02322.04035-.048.06013-.07227.00946-.01161.01871-.02345.02721-.03578A.21856.21856,0,0,1,2.302,1.27L2.30865,1.261c.02356-.043.05439-.08121.08122-.122.00825-.01255.0155-.02578.02281-.03891l.01353-.02681a.115.115,0,0,1,.03844-.05.04055.04055,0,0,0,.0138-.01756A.1077.1077,0,0,1,2.51831.9619a.24388.24388,0,0,0,.04988-.047l.03486-.019L2.61784.87744A.54563.54563,0,0,1,2.69841.86015L2.70952.85838a.13862.13862,0,0,1,.043-.01252c.0149-.00024.02821-.01016.04383-.00978A.03622.03622,0,0,0,2.81048.83134.0627.0627,0,0,1,2.83592.82556a.179.179,0,0,0,.069-.016.07923.07923,0,0,1,.025-.00748A.13837.13837,0,0,0,2.97028.79451.06559.06559,0,0,1,2.9962.79193.10663.10663,0,0,0,3.03707.78752L3.04433.78563A.48278.48278,0,0,0,3.144.76921l.03022.00641L3.2364.7625l.10468.02641c.01785.00824.02887.02732.04464.0429A.17313.17313,0,0,0,3.4128.87993c.02107.02788.04077.05687.06306.08373.01681.02026.03234.0416.04956.0613.01811.02073.03613.04168.05509.06171a.27032.27032,0,0,1,.03283.04107.34651.34651,0,0,0,.04912.06155l.00989.01118V1.2211a.07819.07819,0,0,0-.02013.04592c.00428.01465.01057.03242.01452.0507.0037.01712.00491.03478.00746.054l-.00862.03265A.27881.27881,0,0,0,3.6759,1.475a.23661.23661,0,0,0,.03542.04634.05025.05025,0,0,1,.01484.02948.02468.02468,0,0,1-.01863.01655L3.7003,1.56575A.09644.09644,0,0,1,3.68341,1.551c-.0165-.0205-.03317-.041-.04811-.06257a.18753.18753,0,0,0-.02745-.03154L3.59413,1.421l-.03678-.02516a.11033.11033,0,0,0-.04964-.06256L3.49623,1.313c-.01658-.01361-.03393-.02615-.0492-.04085-.01611-.01551-.03885-.01719-.05484-.03066a.47753.47753,0,0,1-.11354-.01821l-.01877.00788-.00738-.002-.03019-.02031a.057.057,0,0,0-.0406.00965.12789.12789,0,0,1-.034.01567.14821.14821,0,0,0-.0471.03039.08682.08682,0,0,1-.05055.03622L2.99,1.36536c-.00228.01089-.00551.023-.00716.03539a.06524.06524,0,0,0,.00113.02232.2634.2634,0,0,1,.00772.08122l.01.05545c-.00585.0181.00753.03387.00522.04968l.0153.02878v.05418l-.01135.0244a.21921.21921,0,0,0-.03747.02648.087.087,0,0,1-.026.01435c-.00014.01873.01465.03186.01548.049l.023.01719a.17154.17154,0,0,0,.03529.06017l.02477.03314.01861.02355c.0085.01081.01639.02216.02553.0324a.8222.8222,0,0,0,.07511.084.10386.10386,0,0,1,.0178.01921.14207.14207,0,0,0,.03661.03738.16445.16445,0,0,1,.02487.0229.54064.54064,0,0,0,.06764.06176l.01774.02761c-.00081.01868.00309.03695.00067.056a.07532.07532,0,0,0,.01021.05077l.0045.01224L3.337,2.3682l-.00464.02171-.02059.02268a.10679.10679,0,0,0-.05062.02345.10513.10513,0,0,0-.0137.03508.06344.06344,0,0,0,.00582.05777.13894.13894,0,0,0,.03612.06082.09175.09175,0,0,1,.01907.03216l.01056.0241c.01007.02028.019.04155.04182.04934l.02314.05207c.01776.008.03034-.00359.04393-.00715a.084.084,0,0,1,.07191.03289l.0037.00758a.11145.11145,0,0,0,.03169.06287c.021.0216.03829.04642.05993.06755a.40994.40994,0,0,1,.03063.038l.04968.06149a.13483.13483,0,0,1,.02542.04577.26319.26319,0,0,0,.0142.0313c-.01026.02038-.03366.0344-.03279.065.00069.00285.00535.0064.01538.00821l.035-.00756.0328.00518L3.787,3.14971l.055.00373c.01.00054.02.00038.03008.00033.01505-.00009.03022-.00156.04514-.00024a.147.147,0,0,0,.05225-.00469.17316.17316,0,0,1,.04839-.00509c.01253.00009.02507-.00108.03824-.00172a.07689.07689,0,0,1,.03784.01412c-.0109.016-.02886.01267-.041.02122a.33887.33887,0,0,1-.04052.021l-.07888.01216c-.01779.0046-.02944.02926-.04549.04293-.02138.0063-.03949.01118-.05729.017a.23758.23758,0,0,1-.077.01283l-.02558.01756a.23508.23508,0,0,1-.093.00921.17817.17817,0,0,0-.03011-.00052.40516.40516,0,0,1-.07887.00075l-.01276.00227c-.01318.01316-.02649.02818-.0416.04109s-.03215.02381-.04834.03558l-.049.01827A.10453.10453,0,0,1,3.3492,3.414a.07743.07743,0,0,0-.03891.0128.13162.13162,0,0,1-.0565.019.279.279,0,0,0-.0405.0109c-.01426,0-.02555-.00007-.03684,0a.19383.19383,0,0,0-.02632.00069c-.02357.00343-.047.00757-.0705.01169a.15922.15922,0,0,1-.04817.00669l-.00742.001c-.02555.01077-.05377.012-.07941.02232l-.02521.012-.13829.02647-.0224.00276c-.01114.0017-.02238.0031-.0333.00577a.24658.24658,0,0,1-.05577.00668.396.396,0,0,0-.04853.00432.65134.65134,0,0,1-.07494.00351.42755.42755,0,0,0-.04527.00163c-.012.00635-.0117.01681-.01751.02346-.033.01985-.04971.021-.10606.00785l-.1447.00811-.08941-.02822-.02556-.00587-.04846-.00608a.07618.07618,0,0,0-.04413.00419.06727.06727,0,0,1-.02591.00057l-.04062-.03574a.02524.02524,0,0,1-.00375-.02563l.02067-.01327-.00016-.01047c-.00443-.01288-.01753-.01732-.02827-.02758L1.92589,3.4143c.00186-.01827.003-.03445.00528-.05049a.15359.15359,0,0,1,.00716-.033.18985.18985,0,0,0,.00942-.044c.00252-.01989.00479-.03984.00649-.05982a.42945.42945,0,0,1,.00829-.05959.58372.58372,0,0,0,.00811-.07821.06152.06152,0,0,0-.00253-.015L1.935,3.06512c-.01079-.00335-.02122-.00795-.03211-.01087a.281.281,0,0,0-.02954-.00533l-.04468-.00665-.01461-.00334c-.03792-.02061-.08163-.02373-.12091-.04033a.149.149,0,0,0-.03629-.00915.10186.10186,0,0,1-.03916-.01491.03047.03047,0,0,0-.03044.00747.021.021,0,0,0-.00686.02015c.004.00969.01537.008.02443.01786a.0829.0829,0,0,0,.02152.03289.74352.74352,0,0,1-.0224.169.59778.59778,0,0,0-.03993.10686l-.01636.01937c-.00124.00994.00289.01529.00906.01692a1.11234,1.11234,0,0,0,.10966.03883.12188.12188,0,0,1,.01766.00631A.18165.18165,0,0,0,1.7503,3.422a.31159.31159,0,0,1,.06647.0111.0213.0213,0,0,1,.0157.00926c-.00143.00968-.01.00951-.0195.0135-.01583-.00138-.0345-.0035-.05322-.00448a.179.179,0,0,0-.0337.00125.12913.12913,0,0,1-.04488-.0018.0823.0823,0,0,0-.02586-.00374.13234.13234,0,0,1-.05888-.00952,1.13184,1.13184,0,0,0-.13507-.03278.24185.24185,0,0,0-.02739-.0023l-.04464.02212a.21835.21835,0,0,0-.07252.01116.11027.11027,0,0,1-.04078.00484.07066.07066,0,0,0-.03752.0061l-.059-.00283a.46758.46758,0,0,0-.19187-.00628.30853.30853,0,0,0-.073-.007C.88452,3.43047.85441,3.42852.82433,3.427L.81011,3.42282.80841,3.41c.00434-.00244.00838-.00644.01282-.007.02865-.00331.05735-.00653.08612-.00849.03507-.00239.07-.006.10474-.01115a.11526.11526,0,0,0,.02856-.00884.33714.33714,0,0,1,.10115-.02737.10794.10794,0,0,0,.02211-.0042q.0572-.01851.11416-.03779l.03419-.01279c.01363-.01149.01185-.02363.01394-.03449l.00261.00054.0108.02436A.226.226,0,0,0,1.3831,3.2767c.01841-.01607.01841-.01607.02286-.04941.008-.02186.0157-.03914.02047-.05719a.26076.26076,0,0,1,.0217-.05652l.01-.10413c.01-.02171.02973-.02805.0431-.043L1.4977,2.94182,1.50054,2.939c.01055-.00446.01891.006.03444.00344L1.5556,2.9339l.00469-.00861a.12942.12942,0,0,1,.00921-.04007l.00166-.00727a.14447.14447,0,0,1,.013-.05866.12856.12856,0,0,0-.00892-.04975.13955.13955,0,0,0,.00689-.072l-.00206-.04222a.30106.30106,0,0,1,.02974-.05041c.01142-.00713.02237-.01332.0326-.02052A.37464.37464,0,0,0,1.70028,2.516l.00539-.014.00715-.013c.01837-.01487.02976-.03709.05145-.04844l.00835-.00912L1.75544,2.3999l.01716-.06118a.17577.17577,0,0,1,.03529-.05195.13413.13413,0,0,1,.01575-.03619A.15339.15339,0,0,0,1.8402,2.217a.91378.91378,0,0,0,.03186-.09613.03273.03273,0,0,1,.01635-.0238.0318.0318,0,0,1,.02762.00677l.00334.00661c.00244.01479.00514.02958.0066.04449a.10426.10426,0,0,1-.00584.04078l-.01514.05a.37929.37929,0,0,1-.02685.04073.209.209,0,0,0-.02613.05.0457.0457,0,0,0,.02054.03056,1.01855,1.01855,0,0,1,.10452.08041l.01742.00611.01829.01846.0235.01854.02461.016.04949.01277.031.02512a.04165.04165,0,0,1,.00915.04167.02843.02843,0,0,1-.0267.01189.56915.56915,0,0,1-.07114-.00674A.50321.50321,0,0,1,1.995,2.57485l-.04373-.01423-.08964-.06131-.014.00589a.01661.01661,0,0,1-.01636.00063l-.0082-.0177-.00687.00147-.0388.04L1.74825,2.579a.10162.10162,0,0,1-.015.05184l-.006.0479.00754.0231-.00365.04969c-.00051.01,0,.02006.00039.03008l.0025.0544a.07744.07744,0,0,1-.00749.077l-.01193.02144a.0169.0169,0,0,0,.01537.01642c.02742.00422.05075.02152.07881.02374A.06247.06247,0,0,1,1.83,2.98234a.15473.15473,0,0,0,.0759.01777.182.182,0,0,1,.029.00306c.01094-.00188.01212-.01307.025-.02129a.30525.30525,0,0,0,.06746-.04274l.02305-.00436.01389.008.10294.00718.01114.00188c.01377.00093.02672-.0066.04092-.0035a.11342.11342,0,0,0,.03724.00254.13781.13781,0,0,1,.05222.004c.02529.007.05075.013.07544.02257.028.01085.05713.0188.086.02707a.08853.08853,0,0,1,.06079.03562l.021.0048.01245.01428a.05081.05081,0,0,0,.03718.00654c.03608-.00562.07265-.00345.10879-.00776.01992-.00237.04006-.00332.05981-.00663a.16669.16669,0,0,0,.06907-.02772l.02818-.002.04719-.02821h.02306a.54043.54043,0,0,0,.11-.047L3.092,2.92583l.01368-.00612c.01919-.01428.04268-.02022.06273-.033a.36543.36543,0,0,1,.04486-.02059l.03367-.023a.11333.11333,0,0,1,.03715-.01776.0314.0314,0,0,0,.02343-.01708c.00233-.01232-.00976-.01668-.0151-.02826l-.00615-.03074L3.26777,2.7347c-.02253-.03727-.02649-.07919-.04881-.1105a.25329.25329,0,0,0-.03216-.1001.09571.09571,0,0,1,.003-.06084l.00067-.01114-.00193-.00737a.02665.02665,0,0,0-.028-.00478c-.01215.0028-.02383.00765-.03732.01216h-.0398a.183.183,0,0,1-.05347.01767c-.00449.00026-.00862.00473-.01314.00676l-.02249.00916-.02551.02462-.034.00435a.06269.06269,0,0,1-.033-.00533c-.01142-.005-.02345-.00864-.03382-.01238a.41242.41242,0,0,1-.08438.001.267.267,0,0,0-.0488.00173c-.03119.00286-.06218.00746-.09352.00924a.18137.18137,0,0,1-.08849-.01086.0934.0934,0,0,1-.05008-.02041c-.024-.00694-.04936-.00491-.06736-.0234.004-.01126.004-.01126.02565-.0227a.08168.08168,0,0,1,.02377-.00076.12013.12013,0,0,0,.05946.00106L2.548,2.43126a.383.383,0,0,0,.10845-.00238A.156.156,0,0,0,2.72872,2.413a.175.175,0,0,0,.072.00087.26285.26285,0,0,0,.09866-.03411l.01035-.00432.021-.00777.01672-.01a.14668.14668,0,0,0,.03607-.00685A.48083.48083,0,0,1,3.08608,2.328.58066.58066,0,0,1,3.165,2.32672.04612.04612,0,0,0,3.19069,2.323c.009-.01468-.0007-.02929.00011-.04568A.13078.13078,0,0,1,3.16052,2.22a.3326.3326,0,0,0-.0467-.04474A.14683.14683,0,0,1,3.085,2.14569a.84547.84547,0,0,0-.0659-.07227c-.01741-.01789-.03215-.03826-.05137-.05446a.0502.0502,0,0,1-.01093-.01518.14893.14893,0,0,0-.03288-.04224.138.138,0,0,0-.03157-.05406.13119.13119,0,0,1-.02007-.03161l-.02735-.053-.0077-.01025a.09742.09742,0,0,0-.01745.00021l-.02157.00641a.1706.1706,0,0,1-.05573.007A.13825.13825,0,0,0,2.683,1.833l-.01312.00018-.024-.019a.08968.08968,0,0,1-.01959-.0042.08761.08761,0,0,0-.03312-.00532.12368.12368,0,0,1-.04933-.008.15718.15718,0,0,1-.069.01022.14648.14648,0,0,0-.0261.002l-.03849.0052-.01766-.009a.37764.37764,0,0,1-.13586-.02869L2.25864,1.768a.08091.08091,0,0,1,.03922-.01092c.03489-.00356.06962-.009.10458-.01149a.43773.43773,0,0,0,.0957-.01792.85809.85809,0,0,0,.14225-.03488.3919.3919,0,0,0,.056-.02173c.01277-.00512.02593-.0095.0381-.0158.01768-.00914.03458-.01977.05188-.02963a.09764.09764,0,0,1,.01981-.01026A.176.176,0,0,0,2.857,1.59155a.1627.1627,0,0,1,.02334-.01127.08006.08006,0,0,0,.0214-.04735l.0011-.01112a.2151.2151,0,0,0,.01409-.077.39986.39986,0,0,0,.005-.07114ZM3.197,3.02058a.15.15,0,0,1-.05233.02292.22961.22961,0,0,0-.05054.01361.305.305,0,0,1-.07224.02.50674.50674,0,0,0-.09105.02214.1602.1602,0,0,1-.05523.01029c-.02126.00059-.04244.00376-.06367.00545-.03367.00269-.06676.01047-.10085.00989a.24442.24442,0,0,0-.06745.00458.0545.0545,0,0,1-.015.00011l-.06443-.00205-.00885.00576a.18173.18173,0,0,0-.01289.06861l-.012.02229v.05454l.00865.02022c.00171.018-.01182.02558-.01446.03834V3.3822l-.015.02542c-.00174.01408-.007.02761.00114.04017l.00706.00414c.012.00251.021-.00756.03183-.0081a.30216.30216,0,0,0,.07186-.00105.05807.05807,0,0,0,.01832-.00256.10412.10412,0,0,1,.044-.00844.444.444,0,0,0,.12087-.02611l.01465-.00308a.15273.15273,0,0,0,.06838-.022A.20452.20452,0,0,0,2.927,3.37233a.13658.13658,0,0,1,.03611-.0096l.067-.00915a.13469.13469,0,0,0,.03986-.01044.14612.14612,0,0,1,.0284-.0093c.01708-.0039.03439-.00681.053-.01042a.13248.13248,0,0,1,.0566-.02524A.41107.41107,0,0,0,3.25042,3.283a.06748.06748,0,0,0,.02886-.01713.11223.11223,0,0,1,.03782-.024l.02709-.013a.40575.40575,0,0,1,.04772-.022.20238.20238,0,0,0,.0551-.02543L3.4717,3.19c.009.00343.01293.016.0267.01384a.068.068,0,0,0,.00126-.014c-.00179-.01621-.00563-.03231-.00605-.04853a.15949.15949,0,0,0-.01509-.06174c-.00976-.02171-.02084-.04282-.03151-.06411l-.00434-.00505-.02085-.00654a.12985.12985,0,0,1-.03325-.05562.0148.0148,0,0,0-.01395-.012.19138.19138,0,0,0-.04544.031.12269.12269,0,0,1-.01849.01248.15937.15937,0,0,1-.06067.0244l-.02368.01521Zm-.805.0474-.00121-.0031-.01334-.00637A.16687.16687,0,0,0,2.292,3.03377l-.0109-.00156a.08265.08265,0,0,0-.04756-.00744.10909.10909,0,0,1-.01858-.00164l-.02957-.00441a.5554.5554,0,0,1-.0785-.00671.02518.02518,0,0,0-.0263.01066.017.017,0,0,0,.001.021.37332.37332,0,0,0,.055.01554l.009.01494-.007.01033a.138.138,0,0,1-.0449-.00071.0862.0862,0,0,0-.05815.00977l-.00379.00774.01825.02628.01009.04388c-.00173.01438-.00248.02824-.0052.0417a.55094.55094,0,0,1-.01649.08085.11029.11029,0,0,0-.00592.05565.07838.07838,0,0,1-.00215.03716.15323.15323,0,0,0-.00434.06334l.0036.00871L2.052,3.473a.48574.48574,0,0,1,.06551-.00458c.03.00184.06014.00195.09.00424a.32663.32663,0,0,0,.05615-.00221c.01744-.00165.03474-.004.05235-.00467a.21141.21141,0,0,0,.05046-.00914l.02167-.04224c.00476-.0209.00757-.03567.01157-.0501A.12712.12712,0,0,0,2.40555,3.316a.103.103,0,0,1,.00345-.0372.10616.10616,0,0,0,.00442-.02958.5855.5855,0,0,1,.00235-.08633.03444.03444,0,0,0-.00806-.02815A.126.126,0,0,0,2.329,3.11435a.07131.07131,0,0,1-.04068-.00792L2.28376,3.0958c.00389-.00315.00722-.00763.01152-.009a.0833.0833,0,0,1,.0291-.00579.25717.25717,0,0,0,.06321-.00762Zm1.19823-.02456a.43438.43438,0,0,0-.04916-.07792A.08258.08258,0,0,1,3.52745,2.939a.12062.12062,0,0,0-.01732-.03312c-.00968-.01308-.01805-.02717-.02821-.03985a.14824.14824,0,0,1-.02712-.04477.04773.04773,0,0,0-.01811-.02348.01785.01785,0,0,0-.01775-.00241c-.00515.00757-.00515.00757-.00346.01476l.02176.02208a.49221.49221,0,0,1,.03883.0902l.03526.0463.02289.013c.00315.021.02131.0322.03172.04414.00556.01559.00943.02748.01424.039l.00832.00339C3.59381,3.05981,3.591,3.05237,3.59023,3.04342Zm-1.5864.45949.00956.00818.02216.00227.00254-.00181-.00131-.00314A.03525.03525,0,0,0,2.00383,3.50291Z" />
	<path d="M4.13737,3.61278a.07741.07741,0,0,0,.03392-.0181A.264.264,0,0,1,4.229,3.55979a.28649.28649,0,0,0,.04825-.02906.39221.39221,0,0,1,.06715-.04132.13127.13127,0,0,0,.0312-.02085.13206.13206,0,0,1,.04294-.02285.134.134,0,0,0,.04576-.02539c.01245-.01047.0265-.019.03948-.02887a.10035.10035,0,0,1,.038-.01594l.02718-.02023a.05541.05541,0,0,0,.01383-.01258c.01591-.02559.03844-.04594.05521-.0708l.0043-.00614A.13032.13032,0,0,1,4.68162,3.209a.08339.08339,0,0,0-.006-.04574c-.00406-.01571-.01073-.0306-.01426-.04668a.136.136,0,0,0-.0147-.03l-.02733-.02073a.15479.15479,0,0,1-.08211-.03429C4.51771,3.027,4.502,3.02293,4.48613,3.0197c-.02457-.005-.04975-.00766-.07373-.01457-.02288-.0066-.04536-.014-.06877-.01919a.83342.83342,0,0,0-.12679-.0172.48877.48877,0,0,0-.11268.0009.36214.36214,0,0,1-.08637-.00255.15178.15178,0,0,1-.03713-.01326l-.06819-.01049-.01814-.00467a.21374.21374,0,0,0-.055-.0114.25978.25978,0,0,1-.09015-.02473L3.735,2.893l.0102-.00494.00743.00054a.3407.3407,0,0,0,.07754.01416.321.321,0,0,1,.06283.01168.13612.13612,0,0,0,.03338.0051.82357.82357,0,0,0,.09025.003c.01124-.00069.02256-.00011.03708-.00011a.59908.59908,0,0,1,.11615-.01117.59751.59751,0,0,0,.11576-.0092l.011-.00251c.03632,0,.07285-.00208.10889.00116.04234.00382.08377.01545.12636.01878l.00742.00122c.0345.01133.06916.02219.10334.03442a.38436.38436,0,0,1,.04052.01976.0966.0966,0,0,1,.01656.00873.11221.11221,0,0,0,.0273.01954.17286.17286,0,0,1,.02733.01728A.14558.14558,0,0,0,4.8016,3.065a.02846.02846,0,0,1,.01764.02431l-.01678.03191-.01227.03014a.10912.10912,0,0,1-.04347.02922c-.00414.00579-.00308.01152.0011.014a.19424.19424,0,0,1,.0419.04258v.02139c-.009.01707-.02112.03464-.02949.0543a.06435.06435,0,0,1-.0158.02073c-.01654.01534-.03387.02982-.05322.04668l-.03706.048-.0111.01-.00948.00589a.14732.14732,0,0,1-.0573.04714.146.146,0,0,0-.02236.0201.50664.50664,0,0,1-.05038.04518.32853.32853,0,0,1-.08714.05077l-.05568.04891a.48242.48242,0,0,0-.07878.0464.24891.24891,0,0,0-.04484.03358c-.03562.01671-.06039.04895-.09555.06656-.01217.00609-.02167.01785-.034.02311a.47379.47379,0,0,0-.08691.05287l-.04239.01385-.02894.00805a.24057.24057,0,0,0-.02515.00754c-.00922.00373-.01791.00875-.02581.0127-.01222.01614-.01943.0345-.0412.04624L3.789,3.9794l-.02624.02375-.02251.00371-.033.00691c-.01463.00345-.029.00852-.04378.01066a.31975.31975,0,0,0-.07319.01619.14776.14776,0,0,1-.03686.00649c-.02742.00321-.05335.01326-.08064.017-.02611.00355-.05231.00655-.07828.011-.0197.00334-.03921.008-.0586.013a.54261.54261,0,0,1-.08066.01629.17855.17855,0,0,0-.08311.01982.06471.06471,0,0,1-.02141.00667.1919.1919,0,0,1-.02973.00468.69234.69234,0,0,0-.13579.029l-.0183.004a.56772.56772,0,0,0-.09257.01544.20017.20017,0,0,1-.08293.00462c-.01637.00483-.03328.00948-.04994.01486a.09375.09375,0,0,1-.03317.00571.35652.35652,0,0,0-.11881.01211.10233.10233,0,0,0-.05985.00148.04131.04131,0,0,1-.01493.00076.27506.27506,0,0,0-.0672.00649.20867.20867,0,0,1-.045.00219l-.068.00263a.281.281,0,0,0-.04444-.00283.49891.49891,0,0,0-.09137.00332L2.168,4.22639l-.012.00073-.02939.00643a.10077.10077,0,0,1-.04487.00242.67745.67745,0,0,0-.13519-.00251c-.02006,0-.04006.00087-.06011-.001-.01247-.00119-.02508-.0012-.03763-.00126A.2046.2046,0,0,1,1.7927,4.227a.11369.11369,0,0,0-.02622-.00168.13991.13991,0,0,1-.06929-.01423c-.01989.00215-.03974.0053-.05968.00617a.10494.10494,0,0,1-.05628-.01267c-.04431-.00486-.08675-.00827-.129-.01361-.04109-.00519-.08123-.01476-.12151-.02346-.04154-.009-.08235-.02135-.126-.03291l-.03437-.0048L1.13,4.12309l-.01851-.01c-.03567-.00915-.06631-.01581-.09619-.02495-.0455-.01391-.09048-.02957-.1357-.04443-.01073-.00353-.02137-.00755-.03234-.01a.14091.14091,0,0,1-.04843-.01993.08423.08423,0,0,0-.03467-.014.09483.09483,0,0,1-.04069-.01869C.702,3.96589.68157,3.94921.65961,3.93482a.1909.1909,0,0,0-.06119-.03045A.41281.41281,0,0,0,.5196,3.84984.215.215,0,0,0,.39513,3.755.156.156,0,0,1,.359,3.70388.08033.08033,0,0,0,.34874,3.684c-.02286-.02539-.037-.05666-.05758-.08354a.30227.30227,0,0,1-.0381-.06883C.25078,3.49745.25078,3.49745.2701,3.481l.01173.00681a.10244.10244,0,0,1,.02061.02665.21484.21484,0,0,0,.048.063.10631.10631,0,0,0,.0252.04459.06564.06564,0,0,1,.01015.01575L.41123,3.689a.15136.15136,0,0,0,.05445.02421A1.06288,1.06288,0,0,0,.553,3.78306a.274.274,0,0,1,.0811.03942.11592.11592,0,0,0,.03055.01421.49505.49505,0,0,0,.05029.0157.21818.21818,0,0,1,.04584.01649A.14626.14626,0,0,0,.79657,3.88a.26767.26767,0,0,1,.05694.01877.13948.13948,0,0,0,.025.008.10973.10973,0,0,1,.04765.01812l.11147.02313.04817.00887.06311.00965a.06484.06484,0,0,1,.01828.00421.28516.28516,0,0,0,.06553.01652.07543.07543,0,0,1,.01839.00345.28924.28924,0,0,0,.07292.01762,1.19293,1.19293,0,0,0,.14512.01942.87151.87151,0,0,0,.10888.006.37564.37564,0,0,1,.05259.003.29075.29075,0,0,0,.075.001.06217.06217,0,0,1,.02244.00147.25461.25461,0,0,0,.07125.00408.35919.35919,0,0,0,.075-.0048.06418.06418,0,0,1,.01493.00036A.38369.38369,0,0,0,1.938,4.03844a.96034.96034,0,0,1,.13546-.00293.22861.22861,0,0,0,.02991-.00181c.01118-.00132.02219-.00451.03337-.00511a.237.237,0,0,1,.031.00227L2.203,4.01829a.21239.21239,0,0,0,.06682-.00281c.04045.00348.07957-.01023.11993-.0093a.102.102,0,0,0,.029-.00682l.026-.00887a.11975.11975,0,0,0,.0659-.00206.06319.06319,0,0,1,.02222-.00362.226.226,0,0,0,.06294-.01011c.01464-.00336.02946-.006.04428-.00845.02846-.00469.05691-.00941.08547-.01337.02608-.00362.05239-.00565.07844-.00947.04218-.00619.08424-.0132.12633-.02l.03324-.00616a.35326.35326,0,0,0,.037-.007.77988.77988,0,0,1,.07732-.016c.04188-.00794.08422-.01361.12555-.02447a.11954.11954,0,0,1,.02236-.00308c.02629-.00176.05267-.00244.07888-.005.02747-.00263.05482-.0066.08214-.01057A.1271.1271,0,0,1,3.42419,3.849l.01128.00042c.04628-.00337.09254-.00706.13884-.01021.0228-.00155.04391-.01063.0661-.0141a.41214.41214,0,0,0,.06713-.00755L3.7186,3.8154a.55324.55324,0,0,0,.14157-.03683c.01185-.004.02432-.0065.03575-.01144.02188-.00947.04351-.01961.06469-.03055.03-.01549.05856-.03354.087-.0516.01581-.01.03-.0225.04556-.03319A.47347.47347,0,0,0,4.13737,3.61278Z" />
	<path d="M.2632,3.30656a.02852.02852,0,0,0-.02775.0079c-.00969.00979-.01856.0204-.02457.0271-.01881.00533-.0188.00547-.03012.00283.00241-.00925.01074-.01357.01676-.01964C.21874,3.30337.24008,3.2821.262,3.26146a.38691.38691,0,0,1,.03237-.0258c.025-.0189.05036-.03739.07531-.05639a.22816.22816,0,0,1,.093-.03842A.35474.35474,0,0,0,.54142,3.1171a.16683.16683,0,0,1,.05395-.0153c.02016-.002.03948-.00681.05916-.01049a.40246.40246,0,0,1,.0664-.01138c.02265-.00033.04492-.00527.0675-.00381a.46376.46376,0,0,1,.0638-.001.45526.45526,0,0,0,.06228-.014A.217.217,0,0,1,.99834,3.0439a.19007.19007,0,0,1,.06474-.02122A.173.173,0,0,0,1.09935,3.013c.0224-.008.04441-.01712.06669-.02548a.0649.0649,0,0,1,.02156-.006.16354.16354,0,0,0,.06465-.01878.27548.27548,0,0,1,.04193-.01625.24562.24562,0,0,0,.0384-.0166l.02937.00517.00258.01142a.03383.03383,0,0,1-.02065.02521.09387.09387,0,0,0-.03146.0264.34469.34469,0,0,1-.07367.02772l-.01353.00643a.21663.21663,0,0,1-.04611.01543.4973.4973,0,0,0-.11338.0395.16531.16531,0,0,1-.02752.012c-.02136.00695-.043.01306-.06509.01969l-.01226.02057L.93,3.15861l-.06482.01568A.25714.25714,0,0,1,.81886,3.2a.32747.32747,0,0,1-.0432.01175c-.02461.00443-.04861.01222-.07393.01887a.13766.13766,0,0,1-.05625.0266.32433.32433,0,0,0-.06883.01763.5401.5401,0,0,1-.05479.01352.16093.16093,0,0,0-.04618.01544l-.01725.00738a.13325.13325,0,0,0-.05494.03156c-.013.01177-.027.02244-.04077.03377L.34135,3.3844l-.03106.03033L.24584,3.4234C.23552,3.41874.2338,3.40855.231,3.39963a.12277.12277,0,0,1,.03155-.09394l.01521-.02882-.01182.005A.023.023,0,0,0,.2632,3.30656Z" />
	<path d="M2.16343,1.882a.29221.29221,0,0,0,.08076.02585l.00737.00141c.01626.00652.03212.01421.04874.01958s.03459.00684.05082.013a.59847.59847,0,0,1,.0537.02643l.00327.01236-.016.009-.01441.00423a.04051.04051,0,0,1-.03463.02686L2.32433,2.0117l-.02949.0062a.03859.03859,0,0,1-.03506-.00954.10814.10814,0,0,0-.046-.02345.34221.34221,0,0,1-.053-.02781l-.01225-.00867a.19353.19353,0,0,1-.06913-.05918.10289.10289,0,0,1-.04884-.03513l-.00175-.025.01093-.00866c.01427.00264.02567.01179.04045.01A.03961.03961,0,0,1,2.101,1.838.32127.32127,0,0,1,2.16343,1.882Z" />
	<path d="M2.2638,2.62305V2.61633l.00261-.00346.03013-.01635a.11655.11655,0,0,0,.078-.003.12844.12844,0,0,0,.05772.01.41178.41178,0,0,1,.06265.00822c.02213.00363.04411.00815.06893.0128a.136.136,0,0,0,.04537.01922.043.043,0,0,1,.032.01982l-.0063.01224a.16086.16086,0,0,1-.064.00106c-.03953-.006-.079-.01254-.11851-.01856-.01213-.00185-.02465.00417-.0367-.0014a.39579.39579,0,0,1-.08138-.01152c-.02059-.0037-.04049-.01168-.06111-.01631Z" />
	<path d="M1.83154,3.25c.00841-.01874.00858-.01863.02173-.02817a.06457.06457,0,0,1,.04463.00763L1.91132,3.25l.00637.01188a.03157.03157,0,0,1-.02.02665.12828.12828,0,0,1-.02538.0075A.30189.30189,0,0,1,1.83154,3.25Z" />
	<path d="M1.74307,3.19105c.01266.00078.01555.00828.02038.01385l.01549.0142a.04505.04505,0,0,1-.0216.04453l-.016.00327L1.72461,3.268a.029.029,0,0,1-.01916-.02852A.0821.0821,0,0,1,1.74307,3.19105Z" />
	<path d="M4.12221,3.13332a.08674.08674,0,0,1,.05909-.01358.03429.03429,0,0,1,.02314.01066l.00519.01087c-.004.003-.00745.0075-.01164.00846a.15561.15561,0,0,1-.07207.00251C4.12018,3.14613,4.11754,3.14093,4.12221,3.13332Z" />
	<path d="M3.26794,2.77789c-.01309.00341-.01309.00341-.02044-.00313C3.25365,2.76731,3.25948,2.76973,3.26794,2.77789Z" />
	<path d="M1.16024,2.961a.01365.01365,0,0,1-.01588.00452C1.14771,2.95653,1.15364,2.95774,1.16024,2.961Z" />
	<path d="M2.13844,3.24262a.08941.08941,0,0,0-.01462.054c-.00026.02758-.00156.05516-.0024.08207l-.00754.01413-.004.00587a.03367.03367,0,0,1-.0336-.00192l-.00475-.00931a.06058.06058,0,0,1-.00174-.01489,1.14213,1.14213,0,0,1,.00663-.14616c.00225-.01729.00161-.035.00224-.051a.02807.02807,0,0,1,.02349-.01921A.03493.03493,0,0,1,2.12858,3.18a.13339.13339,0,0,1,.00672.02916C2.13684,3.219,2.13723,3.22906,2.13844,3.24262Z" />
</svg>
