<svg xmlns="http://www.w3.org/2000/svg" data-name="Layer 2" viewBox="0 0 100 125" x="0px" y="0px">
	<path d="M.01,50.68c.01,2.12,.18,4.19,.47,6.18H.48s.04,.29,.04,.29l.19,1.26h-.01l.04,.18,.03,.18,.08,.45,.11,.56c.05,.29,.12,.59,.19,.88h-.01l.21,.85,.12,.52,.16,.68c.04,.18,.1,.37,.15,.55l.11,.38c.12,.47,.26,.92,.4,1.33,.04,.12,.08,.26,.12,.38h-.01l.25,.7c.01,.07,.04,.15,.07,.22l.16,.45h.01c.33,.97,.7,1.93,1.11,2.86h-.01l.03,.04s0,.01,.01,.04h0s.01,.04,.01,.05l.15,.32s.03,.05,.04,.08,.01,.05,.03,.08c.04,.12,.1,.23,.15,.36l.18,.4h.03c8.15,17.66,25.92,29.04,45.38,29.04,9.4,0,18.53-2.63,26.48-7.59l.08-.04h.01c12.52-7.88,20.85-20.68,22.9-35.25,.04-.21,.07-.4,.1-.6l.1-.77c.19-1.64,.3-3.34,.33-5.07H.01Zm54.62,8.7v1l-5.32-.12v-.88s5.32,0,5.32,0Zm-12.41,4.77h3.81l1.05,1.21h-4.86l-.48-1.04,.48-.16Zm-14.25,2.58h2.36l.33,.07-.14,.7h-2.55v-.77Zm-7.21,2.14h9.48l-.15,.73h-10.45l1.12-.73Zm26.04,6.07l-4.03-.05-.68,.27h-6.49l-.12-.48h11.82l-.49,.26Zm29.11,16.22l-10.44,3.96v-.67l-.44-.16s-.01,0-.04-.01c-.03-.01-.05-.01-.08-.03-.05-.03-.12-.04-.21-.08-.07-.03-.15-.05-.22-.08-.05-.01-.11-.04-.16-.05-.19-.07-.4-.15-.55-.21v-.77h-7.36l-1-.15v-.9h6.66v-1.37h-7.36l.59-.71h6.78v-1.37h-7l-.71-.27h5.74v-1.18h.84v-1.37h-7.33v-.38h8.47v-1.37h-8.47v-.59h12.07v-1.37h-1.92v-1.25h-8.31l.33-.16,1.67-.08v-.99h10.26v-1.37h-2.7v-1.27h-7.56l-.11-.47v-1.19h-6.6l-1.6,.21-.16-.75h16.04v-1.37h-7.96v-1.18H20.63l-.07-1.16H60.34v-1.37h-19.7l-.41-.73h24.79v-1.37h-25.56l-.44-.77h20.41v-1.37h-11.33l.93-1.12h15.08v-1.01h1.58v-.89h.16l3.25,1.22,1.06,.04h7.71v-1.37h-7.21l.33-.92h11.38v-1.37h-10.88l.19-.55h6.18v-1.37h-2.42v-.7l.53,.05,5.03-1.1,3.44,2.93,3.9-.78,3.56-3.42,.52,2.26,2.33-2.41,1.82,.26v2.01h1.51c-2.05,14.04-10.1,26.41-22.19,34.03Zm23.49-48.93c-.01-.07-.03-.14-.04-.21C95.86,20.16,77.97,2.62,56.01,.33h.03s-.41-.04-.41-.04c-.75-.07-1.51-.12-2.26-.16-1.1-.08-2.22-.12-3.37-.12C22.67,0,.37,22.07,.01,49.32H99.99c-.03-2.36-.22-4.74-.58-7.1Zm-57.23-4.89c-2.01,2.99-5.1,5.07-8.45,5.73-2.99,.58-5.96,0-8.38-1.63-2.58-1.74-4.26-4.47-4.74-7.68-.49-3.25,.3-6.6,2.22-9.45,2.56-3.82,6.67-5.93,10.71-5.93,2.14,0,4.26,.6,6.11,1.85,.6,.4,1.15,.86,1.63,1.36,.1,.1,.18,.18,.25,.27,.25,.25,.47,.51,.67,.78,.29,.37,.53,.75,.77,1.15,.23,.4,.44,.81,.62,1.23,.16,.37,.3,.75,.41,1.15,.36,1.16,.55,2.38,.55,3.63,0,2.56-.77,5.21-2.36,7.55ZM59.7,12.81l-2.49,.27-1.03-1.22h3.84l-.32,.95Zm37.51,30.67l-1.11-1.32-.77,1.59-.25-.9-3.53-.92-.77,2.97-1.07-.14-1.59-1.77-.86,1.32-1.12-.04h-.04s-4.05-1.29-4.05-1.29l-.89-1.14-1.12,.99h-8.9l-.6-.11-.19-.27v-1.34h9.42v-1.37h-5.48v-.85h-7.25l.12-.42h9.44v-1.37l-3.66-.11,3.34-1.71h8.41v-1.37h-10.16l-2.74-1.59h8.25v-1.37h-13.18l.58-.19h9.16v-1.37h-6.67l-.4-.27h1.15v-1.37h-3.08l-.41-.29,.02-.27,8.89,.11v-1.37h-5.88l3.66-1.14-7.12-1.38-.44-.44h4.03v-1.37h-5.41v-.79h3.49v-1.36l2.56-1.41h1.16v-1.37h-2.42v-1.18h-1.73l-.92-.75h7.21v-1.37h-5.25l2.19-1.15-4.15-2.64h2.14v-1.37h-4.29l-1.58-1-2.86,3.29h-5.44l-.04-.04-.16-.07s-.47-.18-1.08-.4h4.74v-1.37h-9.04l4.68-.44h5.53v-1.37h-5.31l-.56-.4h6.6v-1.37h-8.3l.3-.29h4.27v-1.37h-2.85l.59-.56h-3.74l.49-.23h3.93v-.93c20.89,2.18,38.3,17.97,42.55,38.49l-.97-1.04,.53,4.37ZM.01,49.32c-.01,.23-.01,.45-.01,.68v-.68H.01ZM38.73,21.6c-2.29-1.53-5.08-2.01-7.88-1.34-2.77,.67-5.21,2.38-6.86,4.85-1.66,2.45-2.34,5.36-1.92,8.18,.42,2.84,1.92,5.25,4.21,6.79,1.62,1.08,3.47,1.64,5.41,1.64,.81,0,1.63-.11,2.47-.3,2.77-.67,5.21-2.38,6.86-4.85,1.66-2.45,2.33-5.36,1.9-8.18-.42-2.84-1.92-5.25-4.19-6.79Zm-4.82,10.1c-.59,.88-1.7,1.16-2.48,.63-.37-.25-.62-.63-.68-1.11-.07-.48,.05-1,.34-1.42,.3-.44,.73-.74,1.21-.86,.14-.03,.27-.04,.41-.04,.32,0,.62,.08,.88,.26,.37,.25,.6,.64,.67,1.11,.01,.1,.03,.21,.03,.3,0,.4-.12,.78-.37,1.14Zm.78-7.59h-4.67v1.37h1.41v.71h-3.27v1.37h2.07v1.11c-.1,.11-.19,.23-.27,.36-.48,.71-.68,1.58-.56,2.4,.14,.86,.59,1.58,1.27,2.04,.16,.11,.34,.21,.52,.27h-2.1v1.37h2.63v1.27h-.88v1.37h2.71v.37h-1.27v1.32h-1.3v.88c-1.41-.11-2.75-.58-3.93-1.37-1.96-1.33-3.25-3.41-3.62-5.86-.37-2.48,.23-5.04,1.7-7.21,1.27-1.89,3.05-3.29,5.1-4.01v.47h1.49v1.3h2.97v.48Z" />
</svg>
