<svg xmlns="http://www.w3.org/2000/svg" xmlns:xlink="http://www.w3.org/1999/xlink" version="1.1" x="0px" y="0px" viewBox="0 0 100 125" enable-background="new 0 0 100 100" xml:space="preserve">
	<rect x="14.72" y="90.784" transform="matrix(0.8043 0.5942 -0.5942 0.8043 58.3095 6.4855)" fill="#000000" width="9.177" height="1.966" />
	<path fill="#000000" d="M13.041,92.533c-1.505,2.037-1.073,4.91,0.964,6.415c2.039,1.507,4.912,1.075,6.417-0.962l0.633-0.857  l-7.381-5.451L13.041,92.533z" />
	<path fill="#000000" d="M28.066,72.271c-0.106,0.117-0.222,0.222-0.317,0.352L17.568,86.406l7.38,5.451l8.015-10.85L28.066,72.271z   M25.318,84.752c-0.618,0.839-1.797,1.016-2.635,0.395c-0.836-0.617-1.014-1.797-0.396-2.636c0.619-0.837,1.799-1.013,2.635-0.396  C25.761,82.734,25.937,83.915,25.318,84.752z M25.665,81.111c-0.836-0.619-1.014-1.799-0.396-2.637  c0.619-0.838,1.799-1.015,2.636-0.396c0.839,0.62,1.015,1.8,0.395,2.637C27.681,81.555,26.503,81.73,25.665,81.111z" />
	<path fill="#000000" d="M81.957,3.971c0.579-0.787,1.695-0.955,2.48-0.372c0.787,0.581,0.955,1.693,0.373,2.481L33.172,75.993  l1.377,2.554c0.083-0.098,0.177-0.176,0.252-0.279L86.955,7.664c1.453-1.969,1.036-4.755-0.934-6.208  c-1.969-1.455-4.756-1.036-6.209,0.932L29.913,69.943l1.396,2.595L81.957,3.971z" />
</svg>
