<svg xmlns="http://www.w3.org/2000/svg" xmlns:xlink="http://www.w3.org/1999/xlink" version="1.1" x="0px" y="0px" viewBox="0 0 25 125" style="enable-background:new 0 0 25 100;" xml:space="preserve">
	<g>
		<path d="M9.9,85c0,0.9,0.6,1.7,1.3,2.1v2.4c-1,0.4-1.7,1.3-1.7,2.3c0,0.8,0.4,1.5,1,1.9c0,0,0,0.1,0,0.1c0,1.2,0.8,2.2,1.8,2.2   s1.8-1,1.8-2.2c0,0,0-0.1,0-0.1c0.6-0.5,1-1.1,1-1.9c0-1-0.7-1.9-1.7-2.3V87c0.7-0.4,1.1-1.2,1.1-2c0-0.9-0.5-1.7-1.2-2.1v-2.2   c0.6-0.1,1-0.4,1-0.7c0-0.2-0.2-0.4-0.5-0.5c0.3-0.1,0.5-0.3,0.5-0.5c0-0.2-0.2-0.4-0.6-0.6c0.4-0.1,0.6-0.3,0.6-0.6   c0-0.2-0.2-0.4-0.5-0.5c0.3-0.1,0.5-0.3,0.5-0.5c0-0.2-0.3-0.4-0.7-0.6c0.4-0.1,0.6-0.3,0.6-0.6c0-0.2-0.2-0.4-0.5-0.5   c0.3-0.1,0.5-0.3,0.5-0.5c0-0.2-0.2-0.4-0.6-0.6c0.4-0.1,0.6-0.3,0.6-0.6c0-0.2-0.2-0.4-0.5-0.5c0.3-0.1,0.5-0.3,0.5-0.5   c0-0.2-0.2-0.4-0.6-0.6c0.4-0.1,0.7-0.3,0.7-0.6c0-0.2-0.2-0.4-0.5-0.5c0.3-0.1,0.5-0.3,0.5-0.5c0-0.2-0.2-0.4-0.6-0.6   c0.4-0.1,0.6-0.3,0.6-0.6c0-0.2-0.2-0.4-0.5-0.5c0.3-0.1,0.5-0.3,0.5-0.5c0-0.2-0.3-0.4-0.7-0.6c0.4-0.1,0.6-0.3,0.6-0.6   c0-0.3-0.3-0.5-0.8-0.6v-2.3c0.5-0.3,0.8-0.9,0.8-1.6c0-0.8-0.5-1.5-1.3-1.8v-1.3l1.3-1.6c-0.2,0-0.5,0-0.9,0   c0.7-0.6,1.1-1.7,1.1-3c0-1.2-0.4-2.3-1-2.9c0.5,0,0.8,0,0.8,0L13,50.4H13v-1.5c0.5-0.1,0.9-0.4,0.9-0.8c0-0.3-0.4-0.6-0.9-0.8   c0.5-0.1,0.9-0.4,0.9-0.8c0-0.3-0.4-0.6-0.9-0.8v-2.4c1-0.1,1.8-0.7,1.8-1.3c0-0.5-0.6-1-1.4-1.2v-1.5c0.4-0.2,0.6-0.5,0.6-0.9   c0-0.5-0.4-0.9-1.1-1.1c0.6-0.2,1.1-0.6,1.1-1c0-0.4-0.4-0.8-0.9-1c0.5-0.2,0.9-0.6,0.9-1c0-0.4-0.3-0.7-0.7-0.9   c0.4-0.2,0.7-0.5,0.7-0.9c0-0.5-0.4-0.9-1.1-1.1c0.6-0.2,1.1-0.6,1.1-1c0-0.4-0.4-0.8-0.9-1c0.5-0.2,0.9-0.6,0.9-1   c0-0.4-0.3-0.8-0.8-1c0.5-0.2,0.8-0.5,0.8-0.9c0-0.5-0.4-0.9-1-1c0.6-0.2,1-0.6,1-1c0-0.4-0.3-0.8-0.9-1c0.5-0.2,0.9-0.5,0.9-1   c0-0.4-0.3-0.8-0.9-1c0.4-0.2,0.7-0.5,0.7-0.8c0-0.4-0.4-0.8-0.9-0.9c0.5-0.1,0.9-0.5,0.9-0.9c0-0.4-0.3-0.7-0.8-0.9   c0.5-0.2,0.8-0.5,0.8-0.9c0-0.4-0.3-0.7-0.7-0.9c0.4-0.1,0.6-0.4,0.6-0.7c0-0.3-0.3-0.6-0.7-0.7c0.4-0.1,0.7-0.4,0.7-0.7   c0-0.4-0.3-0.7-0.8-0.8v-2.1c0.7-0.1,1.2-0.6,1.2-1.1c0-0.5-0.5-0.9-1.1-1.1V6.6C13.5,6.4,14,6,14,5.5c0-0.3-0.2-0.6-0.5-0.8   c0-0.1,0-0.2,0-0.3c0-0.6-0.5-1.1-1.1-1.1s-1.1,0.5-1.1,1.1c0,0.1,0,0.2,0,0.2c-0.4,0.2-0.6,0.5-0.6,0.9c0,0.5,0.5,0.9,1.2,1.1v2.8   c-0.7,0.1-1.2,0.6-1.2,1.1c0,0.5,0.5,0.9,1.2,1.1v2.1c-0.4,0.1-0.7,0.4-0.7,0.8c0,0.3,0.3,0.6,0.7,0.7c-0.4,0.1-0.7,0.4-0.7,0.7   c0,0.3,0.2,0.5,0.5,0.7c-0.5,0.2-0.8,0.5-0.8,0.9c0,0.4,0.3,0.7,0.8,0.9c-0.5,0.2-0.8,0.5-0.8,0.9c0,0.4,0.4,0.8,0.9,0.9   c-0.5,0.1-0.9,0.5-0.9,0.9c0,0.3,0.3,0.7,0.7,0.8c-0.5,0.2-0.9,0.5-0.9,1c0,0.4,0.3,0.8,0.9,1c-0.5,0.2-0.9,0.5-0.9,1   c0,0.5,0.4,0.9,1,1c-0.6,0.2-1,0.6-1,1c0,0.4,0.3,0.7,0.7,0.9c-0.5,0.2-0.8,0.6-0.8,1c0,0.4,0.4,0.8,0.9,1c-0.5,0.2-0.9,0.6-0.9,1   c0,0.5,0.4,0.9,1.1,1.1c-0.6,0.2-1.1,0.6-1.1,1c0,0.4,0.3,0.7,0.7,0.9c-0.4,0.2-0.7,0.5-0.7,0.9c0,0.4,0.4,0.8,0.9,1   c-0.5,0.2-0.9,0.6-0.9,1c0,0.5,0.4,0.9,1.1,1.1c-0.6,0.2-1.1,0.6-1.1,1c0,0.3,0.2,0.6,0.6,0.9V41c-0.7,0.2-1.2,0.7-1.2,1.1   c0,0.6,0.7,1.1,1.6,1.2v2.5c-0.5,0.1-0.9,0.4-0.9,0.8c0,0.3,0.4,0.6,0.9,0.8c-0.5,0.1-0.9,0.4-0.9,0.8c0,0.3,0.4,0.6,0.9,0.8v1.5   h0.1L10.4,52c0.2,0,0.4,0,0.8,0c-0.6,0.6-1,1.7-1,2.9c0,1.3,0.5,2.4,1.1,3c-0.5,0-0.9,0-0.9,0l1.2,1.6v1.3c-0.7,0.3-1.2,1-1.2,1.8   c0,0.7,0.3,1.2,0.8,1.6v2.2c-0.7,0.1-1.1,0.4-1.1,0.7c0,0.2,0.3,0.4,0.7,0.6c-0.4,0.1-0.6,0.3-0.6,0.6c0,0.2,0.2,0.4,0.5,0.5   c-0.3,0.1-0.5,0.3-0.5,0.5c0,0.2,0.2,0.4,0.6,0.6c-0.4,0.1-0.6,0.3-0.6,0.6c0,0.2,0.2,0.4,0.5,0.5c-0.3,0.1-0.5,0.3-0.5,0.5   c0,0.2,0.2,0.4,0.6,0.6c-0.4,0.1-0.7,0.3-0.7,0.6c0,0.2,0.2,0.4,0.5,0.5c-0.3,0.1-0.5,0.3-0.5,0.5c0,0.2,0.2,0.4,0.6,0.6   c-0.4,0.1-0.6,0.3-0.6,0.6c0,0.2,0.2,0.4,0.5,0.5c-0.3,0.1-0.5,0.3-0.5,0.5c0,0.2,0.3,0.4,0.7,0.6c-0.4,0.1-0.6,0.3-0.6,0.6   c0,0.2,0.2,0.4,0.5,0.5c-0.3,0.1-0.5,0.3-0.5,0.5c0,0.2,0.2,0.4,0.6,0.6c-0.4,0.1-0.6,0.3-0.6,0.6c0,0.2,0.2,0.4,0.5,0.5   c-0.3,0.1-0.5,0.3-0.5,0.5c0,0.3,0.3,0.5,0.8,0.6v2.3C10.4,83.3,9.9,84.1,9.9,85z" />
	</g>
</svg>
