<svg xmlns="http://www.w3.org/2000/svg" xmlns:xlink="http://www.w3.org/1999/xlink" version="1.1" x="0px" y="0px" viewBox="0 0 100 125" style="enable-background:new 0 0 100 100;" xml:space="preserve">
	<path d="M89.9686279,39.8260498c-0.0042725-0.0108643-0.0057373-0.0224609-0.010376-0.0331421  c-0.0444336-0.1028442-0.1101074-0.194458-0.1872559-0.277771c-0.0172119-0.0186768-0.0339355-0.0358276-0.0526123-0.0531006  c-0.0192871-0.0179443-0.0345459-0.0393066-0.0552979-0.0557861l-11.4511719-9.0727539  c-0.0322266-0.0255737-0.0712891-0.0327148-0.1054688-0.0537109v-7.8442383c0-0.5522461-0.4472656-1-1-1H65.7243042  l-11.1403198-9.8217773c-2.7236328-2.1586914-6.5244141-2.1547852-9.2851562,0.043457l-11.036377,9.7783203H22.1835938  c-0.5527344,0-1,0.4477539-1,1V30.84198l-10.7646484,8.5652466c-0.020874,0.0166016-0.0360107,0.0380249-0.0552979,0.0560913  c-0.0177002,0.0165405-0.0334473,0.03302-0.0499268,0.0507202c-0.0775757,0.0837402-0.1436768,0.1759033-0.1882935,0.2794189  c-0.0043945,0.0101318-0.0056763,0.0211792-0.0097656,0.0314331c-0.0404663,0.1030884-0.0611572,0.2127075-0.0656738,0.3253174  c-0.0005493,0.0139771-0.0079956,0.0256348-0.0079956,0.0397339v48.8120117c0,0.0267944,0.0131836,0.0493164,0.0152588,0.0756226  c0.0050049,0.0668335,0.0206299,0.1296997,0.0394287,0.1953125c0.019043,0.06604,0.0393066,0.1281738,0.0707397,0.1878662  c0.012085,0.0231323,0.0128174,0.0489502,0.0269165,0.0714722c0.0336304,0.053894,0.0761719,0.0980225,0.1176758,0.1431274  c0.0122681,0.0132446,0.0209961,0.0286255,0.0339355,0.0412598c0.0821533,0.0801392,0.1766968,0.140686,0.2779541,0.1873779  c0.0236816,0.0109863,0.0474243,0.0189209,0.0721436,0.0281372c0.1107788,0.0410156,0.2258911,0.0692139,0.3443604,0.069519  c0.0005493,0,0.0010376,0.0003052,0.0015869,0.0003052h78c0.5527344,0,1-0.4477539,1-1V40.1899414  c0-0.0139771-0.0073242-0.0256348-0.0079346-0.0394897C90.0296631,40.038147,90.0089111,39.9289551,89.9686279,39.8260498z   M88.0419922,87.1965332L51.9268188,64.5959473l36.1151733-22.600708V87.1965332z M12.0419922,41.9952393l36.1151733,22.6005859  L12.0419922,87.1966553V41.9952393z M50.0420532,65.7753906l35.517395,22.2265625h-71.034668L50.0420532,65.7753906z   M87.3105469,40.09375l-9.2041016,5.7598877v-13.052124L87.3105469,40.09375z M46.5849609,13.1879883  c1.9873047-1.5820312,4.765625-1.5849609,6.7167969-0.0405273l9.3991699,8.2880859H37.2780151L46.5849609,13.1879883z   M76.1064453,23.4355469v23.6696777L50.0419312,63.4163818L23.1835938,46.6087036V23.4355469H76.1064453z M21.1835938,33.3988037  v11.958313l-8.4130859-5.2648315L21.1835938,33.3988037z" />
	<path d="M37.6474609,49.4086914c0.2207031,0.3476562,0.6298828,0.5244141,1.0400391,0.4438477l0.8476562-0.1694336  c0.4619141,1.7109375,1.7363281,3.8867188,4.4619141,4.1171875c3.3310547,0.28125,4.7607422,2.6860352,5.0458984,3.2338867  c0.0283203,0.0874023,0.0683594,0.1723633,0.1201172,0.2514648c0.1845703,0.2827148,0.5097656,0.453125,0.8476562,0.453125  s0.6523438-0.1704102,0.8369141-0.453125c0.0585938-0.0898438,0.1015625-0.1865234,0.1289062-0.2866211  c0.3222656-0.6025391,1.7705078-2.9238281,5.0263672-3.1987305c2.7255859-0.2304688,4-2.40625,4.4619141-4.1171875  L61.3125,49.8525391c0.4042969,0.081543,0.8193359-0.0957031,1.0400391-0.4438477l2.890625-4.5463867  c0.1523438-0.2402344,0.1962891-0.5341797,0.1191406-0.8081055c-0.078125-0.2739258-0.2675781-0.5019531-0.5234375-0.6269531  c-7.3300781-3.5839844-3.4960938-12.8173828-3.3291016-13.2089844c0.1962891-0.4609375,0.0214844-0.9980469-0.4101562-1.253418  l-3.21875-1.9067383c-0.3837891-0.2280273-0.8779297-0.171875-1.2021484,0.1381836  c-0.0244141,0.0244141-2.5800781,2.4277344-6.6894531,2.4277344c-4.0517578,0-6.6455078-2.4057617-6.6679688-2.4277344  c-0.3251953-0.3100586-0.8164062-0.3666992-1.2021484-0.1381836l-3.21875,1.9067383  c-0.4316406,0.2553711-0.6064453,0.7924805-0.4101562,1.253418c0.1669922,0.3916016,4.0009766,9.625-3.3291016,13.2089844  c-0.2558594,0.125-0.4453125,0.3530273-0.5234375,0.6269531c-0.0771484,0.2739258-0.0332031,0.5678711,0.1191406,0.8081055  L37.6474609,49.4086914z M40.6513672,30.2524414l1.8828125-1.1157227c1.1240234,0.8505859,3.7675781,2.4873047,7.4765625,2.4873047  c3.6923828,0,6.3320312-1.6367188,7.4550781-2.4873047l1.8828125,1.1157227  C57.9375,34.2041016,57.2666016,41.1625977,62.984375,44.6875l-1.9511719,3.0693359l-1.1708984-0.2338867  c-0.2792969-0.0571289-0.5673828,0.0117188-0.7949219,0.1811523c-0.2265625,0.1694336-0.3720703,0.4296875-0.3974609,0.7119141  c-0.0117188,0.1298828-0.3203125,3.1787109-2.8349609,3.3911133C52.8212891,52.0620117,50.984375,53.6542969,50,54.8808594  c-0.984375-1.2265625-2.8212891-2.8188477-5.8349609-3.0737305c-2.5146484-0.2124023-2.8232422-3.2612305-2.8349609-3.387207  c-0.0234375-0.2841797-0.1669922-0.5444336-0.3945312-0.7158203c-0.1748047-0.1313477-0.3867188-0.2006836-0.6015625-0.2006836  c-0.0654297,0-0.1308594,0.0063477-0.1962891,0.0195312l-1.1708984,0.2338867L37.015625,44.6875  C42.7333984,41.1625977,42.0625,34.2041016,40.6513672,30.2524414z" />
</svg>
